<?xml version="1.0" encoding="UTF-8"?>
<svg width="10px" height="8px" viewBox="0 0 10 8" version="1.1" xmlns="http://www.w3.org/2000/svg" xmlns:xlink="http://www.w3.org/1999/xlink">
    <!-- Generator: Sketch 40.3 (33839) - http://www.bohemiancoding.com/sketch -->
    <title>Shape</title>
    <desc>Created with Sketch.</desc>
    <defs></defs>
    <g id="Page-1" stroke="none" stroke-width="1" fill="none" fill-rule="evenodd">
        <g id="Search-Result" transform="translate(-11.000000, -83.000000)" fill="#9B9B9B">
            <g id="Magic-Help" transform="translate(0.000000, 69.000000)">
                <g id="Add-2">
                    <g id="Title---History" transform="translate(11.000000, 10.000000)">
                        <path d="M6.36363636,9 C5.15,9 2.72727273,9.665 2.72727273,11 L2.72727273,12 L10,12 L10,11 C10,9.665 7.57727273,9 6.36363636,9 L6.36363636,9 Z M2.27272727,7 L2.27272727,5.5 L1.36363636,5.5 L1.36363636,7 L0,7 L0,8 L1.36363636,8 L1.36363636,9.5 L2.27272727,9.5 L2.27272727,8 L3.63636364,8 L3.63636364,7 L2.27272727,7 Z M6.36363636,8 C7.36779045,8 8.18181818,7.1045695 8.18181818,6 C8.18181818,4.8954305 7.36779045,4 6.36363636,4 C5.35948227,4 4.54545455,4.8954305 4.54545455,6 C4.54545455,7.1045695 5.35948227,8 6.36363636,8 L6.36363636,8 Z" id="Shape"></path>
                    </g>
                </g>
            </g>
        </g>
    </g>
</svg>