<?xml version="1.0" encoding="UTF-8"?>
<svg width="13px" height="11px" viewBox="0 0 13 11" version="1.1" xmlns="http://www.w3.org/2000/svg" xmlns:xlink="http://www.w3.org/1999/xlink">
    <!-- Generator: Sketch 40.3 (33839) - http://www.bohemiancoding.com/sketch -->
    <title>Shape</title>
    <desc>Created with Sketch.</desc>
    <defs></defs>
    <g id="Page-1" stroke="none" stroke-width="1" fill="none" fill-rule="evenodd">
        <g id="Search-Result" transform="translate(-405.000000, -111.000000)" fill="#9B9B9B">
            <g id="Magic-Help" transform="translate(0.000000, 69.000000)">
                <g id="Add-2">
                    <g id="Input---Picture" transform="translate(303.000000, 38.000000)">
                        <path d="M103.3,5.22222222 L105.25,5.22222222 L106.55,4 L110.45,4 L111.75,5.22222222 L113.7,5.22222222 C114.41797,5.22222222 115,5.76942975 115,6.44444444 L115,13.7777778 C115,14.4527925 114.41797,15 113.7,15 L103.3,15 C102.58203,15 102,14.4527925 102,13.7777778 L102,6.44444444 C102,5.76942975 102.58203,5.22222222 103.3,5.22222222 L103.3,5.22222222 Z M108.5,7.05555556 C106.705075,7.05555556 105.25,8.42357438 105.25,10.1111111 C105.25,11.7986478 106.705075,13.1666667 108.5,13.1666667 C110.294925,13.1666667 111.75,11.7986478 111.75,10.1111111 C111.75,8.42357438 110.294925,7.05555556 108.5,7.05555556 L108.5,7.05555556 Z M108.5,8.27777778 C109.576955,8.27777778 110.45,9.09858907 110.45,10.1111111 C110.45,11.1236332 109.576955,11.9444444 108.5,11.9444444 C107.423045,11.9444444 106.55,11.1236332 106.55,10.1111111 C106.55,9.09858907 107.423045,8.27777778 108.5,8.27777778 L108.5,8.27777778 Z" id="Shape"></path>
                    </g>
                </g>
            </g>
        </g>
    </g>
</svg>