<?xml version="1.0" encoding="UTF-8"?>
<svg width="37px" height="36px" viewBox="0 0 37 36" version="1.1" xmlns="http://www.w3.org/2000/svg" xmlns:xlink="http://www.w3.org/1999/xlink">
    <!-- Generator: Sketch 40.3 (33839) - http://www.bohemiancoding.com/sketch -->
    <title>g10241</title>
    <desc>Created with Sketch.</desc>
    <defs></defs>
    <g id="Page-1" stroke="none" stroke-width="1" fill="none" fill-rule="evenodd">
        <g id="profile-screens" transform="translate(-4.000000, -510.000000)" fill="#6EB8EC">
            <g id="layer1">
                <g id="g10241" transform="translate(4.886400, 510.013600)">
                    <g id="g10201">
                        <path d="M0,35.2884941 L17.644247,35.2884941 L17.644247,0 L0,0 L0,35.2884941 L0,35.2884941 Z M11.0276544,4.41106176 L15.4387162,4.41106176 L15.4387162,8.82212352 L11.0276544,8.82212352 L11.0276544,4.41106176 L11.0276544,4.41106176 Z M11.0276544,13.2331853 L15.4387162,13.2331853 L15.4387162,17.644247 L11.0276544,17.644247 L11.0276544,13.2331853 L11.0276544,13.2331853 Z M11.0276544,22.0553088 L15.4387162,22.0553088 L15.4387162,26.4663706 L11.0276544,26.4663706 L11.0276544,22.0553088 L11.0276544,22.0553088 Z M2.20553088,4.41106176 L6.61659264,4.41106176 L6.61659264,8.82212352 L2.20553088,8.82212352 L2.20553088,4.41106176 L2.20553088,4.41106176 Z M2.20553088,13.2331853 L6.61659264,13.2331853 L6.61659264,17.644247 L2.20553088,17.644247 L2.20553088,13.2331853 L2.20553088,13.2331853 Z M2.20553088,22.0553088 L6.61659264,22.0553088 L6.61659264,26.4663706 L2.20553088,26.4663706 L2.20553088,22.0553088 L2.20553088,22.0553088 Z M19.8497779,11.0276544 L35.2884941,11.0276544 L35.2884941,13.2331853 L19.8497779,13.2331853 L19.8497779,11.0276544 L19.8497779,11.0276544 Z M19.8497779,35.2884941 L24.2608397,35.2884941 L24.2608397,26.4663706 L30.8774323,26.4663706 L30.8774323,35.2884941 L35.2884941,35.2884941 L35.2884941,15.4387162 L19.8497779,15.4387162 L19.8497779,35.2884941 L19.8497779,35.2884941 Z" id="path10203"></path>
                    </g>
                </g>
            </g>
        </g>
    </g>
</svg>