<?xml version="1.0" encoding="UTF-8"?>
<svg width="9px" height="11px" viewBox="0 0 9 11" version="1.1" xmlns="http://www.w3.org/2000/svg" xmlns:xlink="http://www.w3.org/1999/xlink">
    <!-- Generator: Sketch 40.3 (33839) - http://www.bohemiancoding.com/sketch -->
    <title>Shape</title>
    <desc>Created with Sketch.</desc>
    <defs></defs>
    <g id="Page-1" stroke="none" stroke-width="1" fill="none" fill-rule="evenodd">
        <g id="Search-Result" transform="translate(-405.000000, -139.000000)" fill="#87AADE">
            <g id="Magic-Help" transform="translate(0.000000, 69.000000)">
                <g id="Search">
                    <g id="Search-Result-Line" transform="translate(8.000000, 64.500000)">
                        <g id="Action" transform="translate(381.000000, 5.500000)">
                            <path d="M17.236898,9.17432411 C17.236898,9.80767903 17.7475006,10.3211146 18.3773607,10.3211146 L22.9392115,10.3211146 C23.5690717,10.3211146 24.0796743,9.80767903 24.0796743,9.17432411 L24.0796743,2.29358103 L17.236898,2.29358103 L17.236898,9.17432411 L17.236898,9.17432411 Z M18.6396671,5.09174988 L19.4436934,4.28326257 L20.6582861,5.49886052 L21.8671766,4.28326257 L22.6712028,5.09174988 L21.4623123,6.30734783 L22.6712028,7.52294577 L21.8671766,8.33143309 L20.6582861,7.11583514 L19.4493957,8.33143309 L18.6453695,7.52294577 L19.8542599,6.30734783 L18.6396671,5.09174988 L18.6396671,5.09174988 Z M22.6540959,0.573395257 L22.0838645,0 L19.2327078,0 L18.6624764,0.573395257 L16.6666667,0.573395257 L16.6666667,1.72018577 L24.6499056,1.72018577 L24.6499056,0.573395257 L22.6540959,0.573395257 L22.6540959,0.573395257 Z" id="Shape"></path>
                        </g>
                    </g>
                </g>
            </g>
        </g>
    </g>
</svg>