<?xml version="1.0" encoding="UTF-8"?>
<svg width="41px" height="39px" viewBox="0 0 41 39" version="1.1" xmlns="http://www.w3.org/2000/svg" xmlns:xlink="http://www.w3.org/1999/xlink">
    <!-- Generator: Sketch 40.3 (33839) - http://www.bohemiancoding.com/sketch -->
    <title>g10366</title>
    <desc>Created with Sketch.</desc>
    <defs></defs>
    <g id="Page-1" stroke="none" stroke-width="1" fill="none" fill-rule="evenodd">
        <g id="profile-screens" transform="translate(0.000000, -735.000000)" fill="#6FB9EC">
            <g id="layer1">
                <g id="g10366" transform="translate(0.432100, 735.151085)">
                    <g id="XMLID_23_">
                        <path d="M24.3735089,34.6488803 C22.9780414,35.1404372 21.4783646,35.4087312 19.9169194,35.4087312 C18.3572675,35.4087312 16.8590851,35.1409353 15.4649127,34.6504743 C14.9109896,35.5541858 14.2139034,36.3614588 13.3964685,37.0475861 C15.3966685,37.9153324 17.601302,38.3975244 19.9168198,38.3975244 C22.2317397,38.3975244 24.4359747,37.9155317 26.4358759,37.0481839 C25.6103712,36.3527913 24.9193622,35.5398396 24.3735089,34.6488803 L24.3735089,34.6488803 Z" id="XMLID_474_"></path>
                        <path d="M11.158759,11.7605027 C10.6593317,10.8424451 10.3000788,9.83741356 10.1098919,8.77469833 C6.56637866,11.4172897 4.12054956,15.4527582 3.588644,20.0627725 C4.58580503,19.7020251 5.63646547,19.5008794 6.69898145,19.4716888 C7.27342751,16.411862 8.88707695,13.7140776 11.158759,11.7605027 L11.158759,11.7605027 Z" id="XMLID_475_"></path>
                        <path d="M33.1349569,19.4716888 C34.1972737,19.5007797 35.2479341,19.7019255 36.2452944,20.0627725 C35.7132892,15.4528579 33.2675597,11.4172897 29.7240465,8.77469833 C29.5338596,9.83741356 29.1746067,10.8424451 28.6751793,11.7605027 C30.9467618,13.7140776 32.5604113,16.4117623 33.1349569,19.4716888 L33.1349569,19.4716888 Z" id="XMLID_476_"></path>
                        <ellipse id="XMLID_477_" cx="19.9169194" cy="7.01519587" rx="6.9738508" ry="6.9738508"></ellipse>
                        <path d="M3.48812092,23.3914911 C0.15252808,25.3172702 -0.990286814,29.5824773 0.935492272,32.9179705 C2.22724869,35.1552815 4.5713592,36.4060915 6.98162166,36.4060915 C8.16458601,36.4060915 9.36378947,36.1047215 10.4619717,35.4705992 C13.7974649,33.5448201 14.9403794,29.2795133 13.0146004,25.9441197 C11.7228439,23.7067092 9.37883306,22.4558992 6.96847097,22.4559988 C5.78550662,22.4559988 4.58620354,22.7574684 3.48812092,23.3914911 L3.48812092,23.3914911 Z" id="XMLID_478_"></path>
                        <path d="M26.8190391,25.9442194 C24.8933597,29.2797126 26.0361746,33.5448201 29.3716678,35.4705992 C30.4700493,36.1047215 31.6689539,36.4061911 32.8521175,36.4061911 C35.2621807,36.4061911 37.6064904,35.1552815 38.8981472,32.9180702 C40.8238267,29.582577 39.6811114,25.3172702 36.3455186,23.3914911 C35.2472367,22.7573688 34.0484318,22.4558992 32.8651685,22.4559988 C30.4551053,22.4560985 28.1106959,23.707008 26.8190391,25.9442194 L26.8190391,25.9442194 Z" id="XMLID_479_"></path>
                    </g>
                </g>
            </g>
        </g>
    </g>
</svg>