<?xml version="1.0" encoding="UTF-8"?>
<svg width="33px" height="37px" viewBox="0 0 33 37" version="1.1" xmlns="http://www.w3.org/2000/svg" xmlns:xlink="http://www.w3.org/1999/xlink">
    <!-- Generator: Sketch 40.3 (33839) - http://www.bohemiancoding.com/sketch -->
    <title>g10302</title>
    <desc>Created with Sketch.</desc>
    <defs></defs>
    <g id="Page-1" stroke="none" stroke-width="1" fill="none" fill-rule="evenodd">
        <g id="profile-screens" transform="translate(-4.000000, -622.000000)" fill="#6EB8EC">
            <g id="layer1">
                <g id="g10302" transform="translate(4.842086, 622.323200)">
                    <g id="g10261">
                        <g id="hash">
                            <path d="M31.9002068,13.6715172 L31.9002068,9.1143448 L26.1991841,9.1143448 L27.3384772,0 L22.7813048,0 L21.6420117,9.1143448 L12.5299455,9.1143448 L13.6692386,0 L9.11206621,0 L7.97277311,9.1143448 L0,9.1143448 L0,13.6715172 L7.40312656,13.6715172 L6.26611205,22.785862 L0,22.785862 L0,27.3430344 L5.6964655,27.3430344 L4.5571724,36.4573792 L9.1143448,36.4573792 L10.2536379,27.3430344 L19.3679827,27.3430344 L18.226411,36.4573792 L22.785862,36.4573792 L23.9251551,27.3430344 L31.9002068,27.3430344 L31.9002068,22.785862 L24.4948016,22.785862 L25.6295376,13.6715172 L31.9002068,13.6715172 L31.9002068,13.6715172 Z M19.9376292,22.785862 L10.8232844,22.785862 L11.960299,13.6715172 L21.0723652,13.6715172 L19.9376292,22.785862 L19.9376292,22.785862 Z" id="path10264"></path>
                        </g>
                    </g>
                </g>
            </g>
        </g>
    </g>
</svg>