<?xml version="1.0" encoding="UTF-8"?>
<svg width="9px" height="9px" viewBox="0 0 9 9" version="1.1" xmlns="http://www.w3.org/2000/svg" xmlns:xlink="http://www.w3.org/1999/xlink">
    <!-- Generator: Sketch 40.3 (33839) - http://www.bohemiancoding.com/sketch -->
    <title>Shape</title>
    <desc>Created with Sketch.</desc>
    <defs></defs>
    <g id="Page-1" stroke="none" stroke-width="1" fill="none" fill-rule="evenodd">
        <g id="Search-Result" transform="translate(-12.000000, -82.000000)" fill="#9B9B9B">
            <g id="Magic-Help" transform="translate(0.000000, 69.000000)">
                <g id="History">
                    <g id="Title---History" transform="translate(12.000000, 10.000000)">
                        <path d="M4.05,5.36842105 L4.05,7.78894737 L6.1695,9.11052632 L6.525,8.50421053 L4.725,7.38157895 L4.725,5.36842105 L4.05,5.36842105 Z M4.725,3 C3.1365,3 1.7595,3.90947368 1.0215,5.25947368 L0,4.18421053 L0,7.26315789 L2.925,7.26315789 L1.6875,5.96052632 C2.232,4.76684211 3.375,3.94736842 4.725,3.94736842 C6.58896103,3.94736842 8.1,5.53793576 8.1,7.5 C8.1,9.46206424 6.58896103,11.0526316 4.725,11.0526316 C3.2535,11.0526316 2.0115,10.0626316 1.548,8.68421053 L0.603,8.68421053 C1.098,10.5931579 2.7495,12 4.725,12 C7.083,12 9,9.98684211 9,7.5 C9,6.3065258 8.54959951,5.16193319 7.74788149,4.31801948 C6.94616347,3.47410578 5.85880049,3 4.725,3 L4.725,3 Z" id="Shape"></path>
                    </g>
                </g>
            </g>
        </g>
    </g>
</svg>