<?xml version="1.0" encoding="UTF-8"?>
<svg width="13px" height="18px" viewBox="0 0 13 18" version="1.1" xmlns="http://www.w3.org/2000/svg" xmlns:xlink="http://www.w3.org/1999/xlink">
    <!-- Generator: Sketch 40.1 (33804) - http://www.bohemiancoding.com/sketch -->
    <title>Fill 162</title>
    <desc>Created with Sketch.</desc>
    <defs></defs>
    <g id="Page-1" stroke="none" stroke-width="1" fill="none" fill-rule="evenodd">
        <g id="Desktop" transform="translate(-276.000000, -126.000000)" fill="#4990E2">
            <path d="M282.5,134.244486 C281.602458,134.244486 280.875,133.50633 280.875,132.595589 C280.875,131.684848 281.602458,130.946692 282.5,130.946692 C283.397542,130.946692 284.125,131.684848 284.125,132.595589 C284.125,133.50633 283.397542,134.244486 282.5,134.244486 L282.5,134.244486 Z M282.5,129.847427 C281.004458,129.847427 279.791667,131.077504 279.791667,132.595589 C279.791667,134.113673 281.004458,135.343751 282.5,135.343751 C283.995542,135.343751 285.208333,134.113673 285.208333,132.595589 C285.208333,131.077504 283.995542,129.847427 282.5,129.847427 L282.5,129.847427 Z M282.5,141.939339 C281.599208,141.944286 277.083333,134.893602 277.083333,132.595589 C277.083333,129.560519 279.508375,127.099265 282.5,127.099265 C285.491625,127.099265 287.916667,129.560519 287.916667,132.595589 C287.916667,134.862822 283.386708,141.944286 282.5,141.939339 L282.5,141.939339 Z M282.5,126 C278.910375,126 276,128.953175 276,132.595589 C276,135.353644 281.419375,143.594283 282.5,143.588237 C283.563833,143.594283 289,135.316269 289,132.595589 C289,128.953175 286.089625,126 282.5,126 L282.5,126 Z" id="Fill-162"></path>
        </g>
    </g>
</svg>