<?xml version="1.0" encoding="UTF-8"?>
<svg width="15px" height="15px" viewBox="0 0 15 15" version="1.1" xmlns="http://www.w3.org/2000/svg" xmlns:xlink="http://www.w3.org/1999/xlink">
    <!-- Generator: Sketch 40.3 (33839) - http://www.bohemiancoding.com/sketch -->
    <title>Shape</title>
    <desc>Created with Sketch.</desc>
    <defs></defs>
    <g id="Page-1" stroke="none" stroke-width="1" fill="none" fill-rule="evenodd">
        <g id="Search-Result" transform="translate(-408.000000, -40.000000)" fill="#9B9B9B">
            <g id="Magic-String">
                <g id="Init" transform="translate(27.000000, 38.000000)">
                    <path d="M391.714286,11.4285714 L391.028571,11.4285714 L390.771462,11.1714286 C391.628605,10.2285714 392.142891,8.94285714 392.142891,7.57142857 C392.142857,4.48571429 389.657143,2 386.571429,2 C383.485714,2 381,4.48571429 381,7.57142857 C381,10.6571429 383.485714,13.1428571 386.571429,13.1428571 C387.942857,13.1428571 389.228571,12.6285714 390.171429,11.7714286 L390.428571,12.0285378 L390.428571,12.7142521 L394.714286,17 L396,15.7142857 L391.714286,11.4285714 L391.714286,11.4285714 Z M386.571429,11.4285714 C384.428571,11.4285714 382.714286,9.71428571 382.714286,7.57142857 C382.714286,5.42857143 384.428571,3.71428571 386.571429,3.71428571 C388.714286,3.71428571 390.428571,5.42857143 390.428571,7.57142857 C390.428571,9.71428571 388.714286,11.4285714 386.571429,11.4285714 L386.571429,11.4285714 Z" id="Shape"></path>
                </g>
            </g>
        </g>
    </g>
</svg>