<?xml version="1.0" encoding="UTF-8"?>
<svg width="45px" height="34px" viewBox="0 0 45 34" version="1.1" xmlns="http://www.w3.org/2000/svg" xmlns:xlink="http://www.w3.org/1999/xlink">
    <!-- Generator: Sketch 40.3 (33839) - http://www.bohemiancoding.com/sketch -->
    <title>g9736</title>
    <desc>Created with Sketch.</desc>
    <defs></defs>
    <g id="Page-1" stroke="none" stroke-width="1" fill="none" fill-rule="evenodd">
        <g id="profile-screens" transform="translate(0.000000, -1.000000)" fill="#6EB8EC">
            <g id="layer1">
                <g id="g9736" transform="translate(0.709800, 0.775200)">
                    <path d="M42.8067599,0.920947583 C43.4977497,0.920947583 44.0648301,1.48802803 44.0648301,2.1790178 L44.0648301,32.9565279 C44.0648301,33.6475176 43.4977497,34.2145981 42.8067599,34.2145981 L42.5053589,34.2145981 L1.54161044,34.2145981 L1.24020941,34.2145981 C0.549219649,34.2134818 0,33.6464013 0,32.9554116 L0,2.1790178 C0,1.48802803 0.549219649,0.920947583 1.24020941,0.920947583 L1.54161044,0.920947583 L1.89547757,0.920947583 L2.55074573,0.920947583 L42.1682363,0.920947583 L42.5053589,0.920947583 L42.8067599,0.920947583 L42.8067599,0.920947583 Z M22.0234847,18.249274 L31.4495227,10.099167 L39.1564586,3.41922721 L39.120737,3.41922721 L38.5011904,3.41922721 L6.14746465,3.41922721 L5.5446626,3.41922721 L4.94186054,3.41922721 L4.89051074,3.41922721 L12.5974466,10.099167 L22.0234847,18.249274 L22.0234847,18.249274 Z M33.0793209,11.9767838 L22.8562445,20.8357414 C22.3952126,21.2431909 21.686362,21.2610517 21.2085856,20.8536022 L10.9676485,11.9767838 L2.49827962,4.64157582 L2.49827962,30.4928535 L10.9676485,23.1397848 L15.7163891,19.0463123 C16.2298872,18.5852804 17.0280417,18.6388628 17.4700966,19.1702216 C17.9311285,19.6837197 17.8596853,20.4818742 17.3461873,20.9239291 L12.5974466,25.034146 L4.89051074,31.696225 L39.1575749,31.696225 L31.450639,25.034146 L26.7018984,20.9239291 C26.1884003,20.4807579 26.1348179,19.6837197 26.5779891,19.1702216 C27.039021,18.6388628 27.8181985,18.5852804 28.3316965,19.0463123 L33.0804372,23.1397848 L41.5676668,30.4928535 L41.5676668,4.64157582 L33.0793209,11.9767838 L33.0793209,11.9767838 Z" id="path9698"></path>
                </g>
            </g>
        </g>
    </g>
</svg>