<?xml version="1.0" encoding="UTF-8"?>
<svg width="41px" height="31px" viewBox="0 0 41 31" version="1.1" xmlns="http://www.w3.org/2000/svg" xmlns:xlink="http://www.w3.org/1999/xlink">
    <!-- Generator: Sketch 40.1 (33804) - http://www.bohemiancoding.com/sketch -->
    <title>Combined-Shape</title>
    <desc>Created with Sketch.</desc>
    <defs></defs>
    <g id="Page-1" stroke="none" stroke-width="1" fill="none" fill-rule="evenodd">
        <g id="menu" fill="#FFFFFF">
            <g id="Page-1">
                <g id="Group">
                    <path d="M37.794686,0.5 L3.14090177,0.5 C1.65942029,0.5 0.5,1.65942029 0.5,3.14090177 C0.5,4.62238325 1.65942029,5.78180354 3.14090177,5.78180354 L37.8590982,5.78180354 C39.3405797,5.78180354 40.5,4.62238325 40.5,3.14090177 C40.4355878,1.65942029 39.2761675,0.5 37.794686,0.5 L37.794686,0.5 L37.794686,0.5 Z M37.794686,25.2181965 L3.14090177,25.2181965 C1.65942029,25.2181965 0.5,26.3776167 0.5,27.8590982 C0.5,29.3405797 1.65942029,30.5 3.14090177,30.5 L37.8590982,30.5 C39.3405797,30.5 40.5,29.3405797 40.5,27.8590982 C40.4355878,26.3776167 39.2761675,25.2181965 37.794686,25.2181965 L37.794686,25.2181965 L37.794686,25.2181965 Z M37.794686,12.8268921 L3.14090177,12.8268921 C1.65942029,12.8268921 0.5,13.9863124 0.5,15.4677939 C0.5,16.9492754 1.65942029,18.1086957 3.14090177,18.1086957 L37.8590982,18.1086957 C39.3405797,18.1086957 40.5,16.9492754 40.5,15.4677939 C40.4355878,13.9863124 39.2761675,12.8268921 37.794686,12.8268921 L37.794686,12.8268921 L37.794686,12.8268921 Z" id="Combined-Shape"></path>
                </g>
            </g>
        </g>
    </g>
</svg>