<?xml version="1.0" encoding="UTF-8"?>
<svg width="42px" height="52px" viewBox="0 0 42 52" version="1.1" xmlns="http://www.w3.org/2000/svg" xmlns:xlink="http://www.w3.org/1999/xlink">
    <!-- Generator: Sketch 40.3 (33839) - http://www.bohemiancoding.com/sketch -->
    <title>g9676</title>
    <desc>Created with Sketch.</desc>
    <defs></defs>
    <g id="Page-1" stroke="none" stroke-width="1" fill="none" fill-rule="evenodd">
        <g id="profile-screens" transform="translate(-2.000000, -384.000000)" fill="#6EB8EC">
            <g id="layer1">
                <g id="g9676" transform="translate(2.332164, 384.080300)">
                    <g id="g9678">
                        <path d="M4.39344003,3.55924256 C3.93274058,3.55924256 3.55924256,3.93274058 3.55924256,4.39344003 L3.55924256,47.1043508 C3.55924256,47.5650502 3.93274058,47.9385482 4.39344003,47.9385482 C4.85413949,47.9385482 5.22763751,47.5650502 5.22763751,47.1043508 L5.22763751,4.39344003 C5.22763751,3.93274058 4.85413949,3.55924256 4.39344003,3.55924256 L4.39344003,3.55924256 Z" id="path9680"></path>
                        <path d="M39.0404418,21.4927087 L39.0404418,3.50362939 C39.0404418,1.57173927 37.4687026,0 35.5368124,0 L3.50362939,0 C1.57173927,0 0,1.57173927 0,3.50362939 L0,47.9941614 C0,49.9260515 1.57173927,51.4977908 3.50362939,51.4977908 L35.5368124,51.4977908 C37.4687026,51.4977908 39.0404418,49.9260515 39.0404418,47.9941614 L39.0404418,30.0050821 C40.0737344,29.6560539 40.8200631,28.678152 40.8200631,27.5285167 L40.8200631,23.9692741 C40.8200631,22.8196388 40.0737344,21.8417369 39.0404418,21.4927087 L39.0404418,21.4927087 Z M24.8034716,1.66839495 L30.2535618,1.66839495 L30.2535618,12.4017358 C30.2535618,12.417085 30.2535618,12.4361047 30.2228633,12.451454 C30.1920536,12.4668032 30.1769268,12.4553469 30.1646919,12.4462263 L28.0290352,10.8445672 C27.7323945,10.6221145 27.3246388,10.6221145 27.0279982,10.8445672 L24.8924527,12.4462263 C24.8802178,12.4554581 24.8649798,12.4668032 24.8342813,12.451454 C24.8034716,12.4361047 24.8034716,12.417085 24.8034716,12.4017358 L24.8034716,1.66839495 L24.8034716,1.66839495 Z M35.5368124,49.8293958 L3.50362939,49.8293958 C2.49169224,49.8293958 1.66839495,49.0060985 1.66839495,47.9941614 L1.66839495,3.50362939 C1.66839495,2.49169224 2.49169224,1.66839495 3.50362939,1.66839495 L23.1350766,1.66839495 L23.1350766,12.4017358 C23.1350766,13.0589722 23.5002327,13.6498064 24.0880638,13.9437776 C24.3339853,14.0666827 24.5981478,14.1273011 24.8607531,14.1273011 C25.2256867,14.1273011 25.5876172,14.010291 25.8933784,13.7809423 L27.5284054,12.554672 L29.1634325,13.7809423 C29.6891994,14.1752396 30.3810271,14.2375264 30.9687471,13.9437776 C31.5565782,13.6498064 31.9217343,13.0589722 31.9217343,12.4017358 L31.9217343,1.66839495 L35.53659,1.66839495 C36.5485271,1.66839495 37.3718244,2.49169224 37.3718244,3.50362939 L37.3718244,21.3554554 L32.8671581,21.3554554 C30.4446486,21.3554554 28.473718,23.3263859 28.473718,25.7488954 C28.473718,28.1714049 30.4446486,30.1423354 32.8671581,30.1423354 L37.3720469,30.1423354 L37.3720469,47.9941614 C37.3720469,49.0060985 36.5487496,49.8293958 35.5368124,49.8293958 L35.5368124,49.8293958 Z M39.1516682,27.5285167 C39.1516682,28.0489447 38.7290081,28.4722721 38.2089138,28.4738293 C38.208024,28.4738293 38.2071342,28.473718 38.2062444,28.473718 C38.2044647,28.473718 38.2026851,28.4739405 38.2009055,28.4739405 L32.8673805,28.4739405 C31.364824,28.4739405 30.1423354,27.2514519 30.1423354,25.7488954 C30.1423354,24.2463389 31.364824,23.0238503 32.8673805,23.0238503 L38.2062444,23.0238503 C38.7275622,23.0238503 39.1516682,23.4479563 39.1516682,23.9692741 L39.1516682,27.5285167 L39.1516682,27.5285167 Z" id="path9682"></path>
                        <path d="M32.8673805,24.9146979 C32.6471524,24.9146979 32.4324856,25.003679 32.277881,25.1593958 C32.1221641,25.3140004 32.033183,25.5286673 32.033183,25.7488954 C32.033183,25.9680113 32.1221641,26.1837903 32.277881,26.3383949 C32.4324856,26.4941118 32.6482646,26.5830929 32.8673805,26.5830929 C33.0864964,26.5830929 33.3022755,26.4941118 33.4568801,26.3383949 C33.6125969,26.1837903 33.701578,25.9691235 33.701578,25.7488954 C33.701578,25.5286673 33.6125969,25.3140004 33.4568801,25.1593958 C33.3022755,25.003679 33.0876086,24.9146979 32.8673805,24.9146979 L32.8673805,24.9146979 Z" id="path9684"></path>
                    </g>
                </g>
            </g>
        </g>
    </g>
</svg>