<?xml version="1.0" encoding="UTF-8"?>
<svg width="12px" height="12px" viewBox="0 0 12 12" version="1.1" xmlns="http://www.w3.org/2000/svg" xmlns:xlink="http://www.w3.org/1999/xlink">
    <!-- Generator: Sketch 40.3 (33839) - http://www.bohemiancoding.com/sketch -->
    <title>Fill 59</title>
    <desc>Created with Sketch.</desc>
    <defs></defs>
    <g id="Page-1" stroke="none" stroke-width="1" fill="none" fill-rule="evenodd">
        <g id="Search-Result" transform="translate(-9.000000, -41.000000)" fill="#87AADE">
            <g id="Magic-String">
                <path d="M13.7142857,45.7142857 C13.7147143,45.4764286 13.5235714,45.2852857 13.2857143,45.2857143 C13.0478571,45.2861429 12.8575714,45.4764286 12.8571429,45.7142857 L12.8571429,48.7142857 C12.8571429,48.9521429 13.0478571,49.1432857 13.2857143,49.1428571 L16.2857143,49.1428571 C16.5235714,49.1424286 16.7138571,48.9525714 16.7142857,48.7142857 C16.7147143,48.476 16.5235714,48.2852857 16.2857143,48.2857143 L14.361,48.2857143 L20.697,41.9501429 C20.8645714,41.7825714 20.8645714,41.5108571 20.697,41.3437143 C20.5294286,41.1765714 20.2581429,41.1765714 20.091,41.3437143 L13.7142857,47.7204286 L13.7142857,45.7142857 L13.7142857,45.7142857 Z M20.1428571,46.5714286 L20.1428571,51.2857143 C20.1428571,51.7515714 19.7511429,52.1428571 19.2857143,52.1428571 L10.6864286,52.157 C10.2205714,52.157 9.843,51.7794286 9.843,51.3135714 L9.85714286,42.7142857 C9.85714286,42.2484286 10.2488571,41.8571429 10.7142857,41.8571429 L15.4285714,41.8571429 L15.4285714,41 L10.7142857,41 C9.783,41 9,41.9518571 9,42.8831429 L9,51.3135714 C9,52.2448571 9.75514286,53 10.6864286,53 L19.1168571,53 C20.0481429,53 21,52.217 21,51.2857143 L21,46.5714286 L20.1428571,46.5714286 L20.1428571,46.5714286 Z" id="Fill-59"></path>
            </g>
        </g>
    </g>
</svg>