<?xml version="1.0" encoding="UTF-8"?>
<svg width="10px" height="8px" viewBox="0 0 10 8" version="1.1" xmlns="http://www.w3.org/2000/svg" xmlns:xlink="http://www.w3.org/1999/xlink">
    <!-- Generator: Sketch 40.3 (33839) - http://www.bohemiancoding.com/sketch -->
    <title>Shape</title>
    <desc>Created with Sketch.</desc>
    <defs></defs>
    <g id="Page-1" stroke="none" stroke-width="1" fill="none" fill-rule="evenodd">
        <g id="Search-Result" transform="translate(-11.000000, -83.000000)" fill="#9B9B9B">
            <g id="Magic-Help" transform="translate(0.000000, 69.000000)">
                <g id="Search">
                    <g id="Title---History" transform="translate(11.000000, 10.000000)">
                        <path d="M2.20790021,4.25625 L9.07692308,4.25625 L9.07692308,5.28125 L2.20790021,5.28125 L2.20790021,4.25625 L2.20790021,4.25625 Z M2.20790021,8.35625 L2.20790021,7.33125 L9.07692308,7.33125 L9.07692308,8.35625 L2.20790021,8.35625 L2.20790021,8.35625 Z M0.735966736,4 C1.14242994,4 1.47193347,4.3441811 1.47193347,4.76875 C1.47193347,5.1933189 1.14242994,5.5375 0.735966736,5.5375 C0.329503531,5.5375 0,5.1933189 0,4.76875 C0,4.3441811 0.329503531,4 0.735966736,4 L0.735966736,4 Z M0.735966736,7.075 C1.14242994,7.075 1.47193347,7.4191811 1.47193347,7.84375 C1.47193347,8.2683189 1.14242994,8.6125 0.735966736,8.6125 C0.329503531,8.6125 0,8.2683189 0,7.84375 C0,7.4191811 0.329503531,7.075 0.735966736,7.075 L0.735966736,7.075 Z M2.20790021,11.43125 L2.20790021,10.40625 L9.07692308,10.40625 L9.07692308,11.43125 L2.20790021,11.43125 L2.20790021,11.43125 Z M0.735966736,10.15 C1.14242994,10.15 1.47193347,10.4941811 1.47193347,10.91875 C1.47193347,11.3433189 1.14242994,11.6875 0.735966736,11.6875 C0.329503531,11.6875 0,11.3433189 0,10.91875 C0,10.4941811 0.329503531,10.15 0.735966736,10.15 L0.735966736,10.15 Z" id="Shape"></path>
                    </g>
                </g>
            </g>
        </g>
    </g>
</svg>