<?xml version="1.0" encoding="UTF-8"?>
<svg width="21px" height="35px" viewBox="0 0 21 35" version="1.1" xmlns="http://www.w3.org/2000/svg" xmlns:xlink="http://www.w3.org/1999/xlink">
    <!-- Generator: Sketch 40.1 (33804) - http://www.bohemiancoding.com/sketch -->
    <title>Shape</title>
    <desc>Created with Sketch.</desc>
    <defs></defs>
    <g id="Page-1" stroke="none" stroke-width="1" fill="none" fill-rule="evenodd">
        <g id="smartphone-call" fill="#87AADE">
            <path d="M18.302,0 L2.698,0 C1.398,0 0.334,1.063 0.334,2.364 L0.334,32.635 C0.334,33.936 1.398,35 2.698,35 L18.302,35 C19.602,35 20.666,33.938 20.666,32.636 L20.666,2.364 C20.666,1.063 19.602,0 18.302,0 L18.302,0 Z M8.004,1.704 L12.996,1.704 C13.154,1.704 13.282,1.832 13.282,1.991 C13.282,2.149 13.154,2.277 12.996,2.277 L8.004,2.277 C7.846,2.277 7.718,2.149 7.718,1.991 C7.718,1.832 7.846,1.704 8.004,1.704 L8.004,1.704 Z M10.5,33.818 C9.847,33.818 9.318,33.289 9.318,32.635 C9.318,31.981 9.847,31.453 10.5,31.453 C11.153,31.453 11.682,31.981 11.682,32.635 C11.682,33.289 11.153,33.818 10.5,33.818 L10.5,33.818 Z M19.021,30.625 L1.979,30.625 L1.979,3.749 L19.021,3.749 L19.021,30.625 L19.021,30.625 Z" id="Shape"></path>
        </g>
    </g>
</svg>