<?xml version="1.0" encoding="UTF-8"?>
<svg width="12px" height="7px" viewBox="0 0 12 7" version="1.1" xmlns="http://www.w3.org/2000/svg" xmlns:xlink="http://www.w3.org/1999/xlink">
    <!-- Generator: Sketch 40.3 (33839) - http://www.bohemiancoding.com/sketch -->
    <title>Shape</title>
    <desc>Created with Sketch.</desc>
    <defs></defs>
    <g id="Page-1" stroke="none" stroke-width="1" fill="none" fill-rule="evenodd">
        <g id="sort-down" fill="#FFFFFF">
            <g id="Page-1">
                <g id="sort-down">
                    <path d="M11.7772487,0.269899575 C11.6289121,0.115944438 11.4530753,0.0390307167 11.2499025,0.0390307167 L0.750056435,0.0390307167 C0.546801568,0.0390307167 0.371087898,0.115944438 0.222628112,0.269899575 C0.0741683257,0.42402497 0,0.606242814 0,0.816893623 C0,1.02750187 0.0741683257,1.20971971 0.222628112,1.36371741 L5.47257168,6.80799157 C5.62119565,6.9619467 5.79690932,7.03903072 6.00000001,7.03903072 C6.20309069,7.03903072 6.37896856,6.9619467 6.5273052,6.80799157 L11.7772487,1.36367485 C11.9255444,1.20971971 12,1.02750187 12,0.816851059 C12,0.606242814 11.9255444,0.42402497 11.7772487,0.269899575 L11.7772487,0.269899575 L11.7772487,0.269899575 Z" id="Shape"></path>
                </g>
            </g>
        </g>
    </g>
</svg>