<?xml version="1.0" encoding="utf-8"?>
<!-- Generator: Adobe Illustrator 19.2.1, SVG Export Plug-In . SVG Version: 6.00 Build 0)  -->
<svg version="1.1"
	 id="Слой_1" text-rendering="geometricPrecision" image-rendering="optimizeQuality" shape-rendering="geometricPrecision"
	 xmlns="http://www.w3.org/2000/svg" xmlns:xlink="http://www.w3.org/1999/xlink" x="0px" y="0px" viewBox="0 0 500 500"
	 style="enable-background:new 0 0 500 500;" xml:space="preserve">
<style type="text/css">
	.st0{fill:none;stroke:#FFFFFF;stroke-width:30;}
</style>
<path class="st0" d="M222,397l-79,35c-14,6-16,4-14-11c2-29,5-57,8-86c3-23-1-36-17-53l-57-64c-11-12-10-14,5-17c28-7,56-13,85-19
	c23-4,33-12,44-32l44-75c8-13,10-13,18,0l44,75c11,20,21,28,44,32c29,6,57,12,85,19c15,3,16,5,5,17l-57,64c-16,17-20,30-17,53
	c3,29,6,57,8,86c2,15,0,17-14,11l-79-35C257,387,243,387,222,397z"/>
</svg>
