<?xml version="1.0" encoding="utf-8"?>
<!-- Generator: Adobe Illustrator 19.2.1, SVG Export Plug-In . SVG Version: 6.00 Build 0)  -->
<svg version="1.1" id="Capa_1" xmlns="http://www.w3.org/2000/svg" xmlns:xlink="http://www.w3.org/1999/xlink" x="0px" y="0px"
	 viewBox="0 0 17 16.7" style="enable-background:new 0 0 17 16.7;" xml:space="preserve">
<style type="text/css">
	.st0{fill:#FFFFFF;}
</style>
<g>
	<path class="st0" d="M5.6,16c2,0.8,4.3,0.8,6.3,0c2-0.9,3.6-2.4,4.4-4.5c0.2-0.6,0.4-1.2,0.5-1.8c0.2-1.5,0.1-3.1-0.5-4.5
		c-0.9-2-2.4-3.6-4.5-4.4c-2-0.8-4.3-0.8-6.3,0C3.6,1.6,2,3.2,1.2,5.2L0.3,5C0,4.9-0.1,5,0,5.3l1,2c0.1,0.2,0.4,0.3,0.6,0.2l1.8-1.3
		C3.6,6,3.6,5.8,3.3,5.8L2.4,5.5c0.7-1.6,2-2.9,3.6-3.5c1.7-0.7,3.6-0.7,5.3,0c1.7,0.7,3,2,3.8,3.7c0.5,1.2,0.7,2.5,0.5,3.8
		c-0.1,0.5-0.2,1-0.4,1.5c-0.7,1.7-2,3-3.7,3.8c-1.7,0.7-3.6,0.7-5.3,0c-1.7-0.7-3-2-3.7-3.6c-0.1-0.3-0.5-0.5-0.9-0.3
		c-0.3,0.1-0.5,0.5-0.3,0.9C2.1,13.7,3.7,15.2,5.6,16z"/>
	<path class="st0" d="M8.4,3.1c-0.3,0-0.5,0.2-0.5,0.5V9l4.9,2.5c0.1,0,0.2,0.1,0.2,0.1c0.2,0,0.4-0.1,0.5-0.3
		c0.1-0.3,0-0.6-0.2-0.7L8.9,8.3V3.6C8.9,3.4,8.7,3.1,8.4,3.1z"/>
</g>
</svg>
