<?xml version="1.0" encoding="utf-8"?>
<!-- Generator: Adobe Illustrator 19.2.1, SVG Export Plug-In . SVG Version: 6.00 Build 0)  -->
<svg version="1.1" id="Capa_1" xmlns="http://www.w3.org/2000/svg" xmlns:xlink="http://www.w3.org/1999/xlink" x="0px" y="0px"
	 viewBox="0 0 480.3 472.6" style="enable-background:new 0 0 480.3 472.6;" xml:space="preserve">
<style type="text/css">
	.st0{fill:#FFFFFF;}
	.st1{fill:#6EB8EC;}
</style>
<rect class="st0" width="480.3" height="471.5"/>
<g>
	<path class="st1" d="M160,454.1c57.5,23.5,120.6,23.2,177.8-0.9c57.2-24,101.7-68.9,125.1-126.4c6.8-16.7,11.6-33.8,14.4-51.1
		c6.9-42.5,1.8-86.1-15.3-126.7c-24-57.2-68.9-101.7-126.4-125.1C278.3,0.5,215.1,0.8,157.9,24.8c-56.7,23.8-100.8,68-124.4,124.7
		l-24.2-6.4c-6.9-1.8-10.1,2-7.1,8.4l26.9,57.8c3,6.5,10.3,8.4,16.1,4.2l51.9-36.9c5.8-4.1,4.9-9-2-10.8L70,159.2
		c20.3-45.3,56.4-80.6,102.3-99.9c48-20.2,101-20.4,149.2-0.7c48.2,19.7,85.9,57,106,105c14.3,34.1,18.6,70.7,12.8,106.4
		c-2.4,14.5-6.4,28.9-12.1,42.9c-19.7,48.2-57,85.9-105,106c-48,20.2-101,20.4-149.2,0.7c-47-19.2-84.1-55.3-104.6-101.7
		c-4.2-9.4-15.2-13.7-24.6-9.5c-9.4,4.2-13.7,15.2-9.5,24.6C59.7,388.2,104,431.3,160,454.1z"/>
	<path class="st1" d="M237,90.9c-8.4,0-15.1,6.8-15.1,15.1v150.7l137.9,71.3c2.2,1.1,4.6,1.7,6.9,1.7c5.5,0,10.8-3,13.5-8.2
		c3.8-7.4,0.9-16.5-6.5-20.4l-121.5-62.8V106C252.1,97.7,245.3,90.9,237,90.9z"/>
</g>
</svg>
