<?xml version="1.0" encoding="UTF-8" standalone="no"?>
<svg width="16px" height="12px" viewBox="0 0 16 12" version="1.1" xmlns="http://www.w3.org/2000/svg" xmlns:xlink="http://www.w3.org/1999/xlink">
    <!-- Generator: Sketch 40 (33762) - http://www.bohemiancoding.com/sketch -->
    <title>Insta Lunch</title>
    <desc>Created with Sketch.</desc>
    <defs></defs>
    <g id="Page-1" stroke="none" stroke-width="1" fill="none" fill-rule="evenodd">
        <g id="Desktop" transform="translate(-259.000000, -263.000000)" fill="#FFFFFF">
            <g id="Icons" transform="translate(2.000000, 4.000000)">
                <g id="Insta" transform="translate(7.000000, 256.000000)">
                    <g id="Insta-Lunch" transform="translate(250.000000, 3.000000)">
                        <g id="Layer_1">
                            <path d="M15.588875,6.02915625 C15.7565,5.90134375 15.8649687,5.6996875 15.8649687,5.4730625 C15.8649687,5.16846875 15.6690312,4.908875 15.396625,4.81334375 C15.292125,2.1565 13.0985,0.0271875 10.4165,0.0271875 L5.5835,0.0271875 C2.90090625,0.0271875 0.70690625,2.1574375 0.60325,4.81515625 C0.333625,4.9121875 0.14025,5.17040625 0.14025,5.4730625 C0.14025,5.6983125 0.2474375,5.898875 0.41340625,6.0268125 C0.15709375,6.26075 0,6.59725 0,6.96859375 C0,7.42446875 0.24078125,7.82490625 0.60165625,8.050125 L0.60165625,9.50840625 C0.60165625,10.557125 1.45484375,11.4102813 2.5035625,11.4102813 L13.496375,11.4102813 C14.5450937,11.4102813 15.3982813,10.5570938 15.3982813,9.50840625 L15.3982813,8.050125 C15.7592188,7.824875 16,7.4244375 16,6.96859375 C16,6.598625 15.8438125,6.2630625 15.588875,6.02915625 L15.588875,6.02915625 Z M0.83928125,5.24928125 L2.76834375,5.24928125 L2.768375,5.24928125 L2.768375,4.77403125 L2.76834375,4.77403125 L1.0805,4.77403125 C1.20440625,2.39765625 3.17678125,0.5024375 5.5835,0.5024375 L10.4165,0.5024375 C12.8231875,0.5024375 14.7955937,2.397625 14.9195,4.77403125 L3.4586875,4.77403125 L3.45865625,4.77403125 L3.45865625,5.24928125 L3.4586875,5.24928125 L15.1659687,5.24928125 C15.289375,5.24928125 15.38975,5.34965625 15.38975,5.47303125 C15.38975,5.5964375 15.289375,5.69684375 15.1659687,5.69684375 C15.0723125,5.69684375 14.98525,5.700375 14.9035625,5.706625 L14.9033125,5.7065625 L14.897875,5.70703125 C14.4152813,5.74496875 14.12775,5.8828125 13.86975,6.00665625 C13.5757188,6.14778125 13.3218125,6.26965625 12.77925,6.26965625 C12.7114063,6.26965625 12.648125,6.26775 12.5886875,6.26415625 C12.1725625,6.23890625 11.946,6.130125 11.68875,6.00665625 C11.3862188,5.8614375 11.0432812,5.6968125 10.3925312,5.6968125 C10.2705,5.6968125 10.1593125,5.70259375 10.0571563,5.71296875 C9.61453125,5.757875 9.34209375,5.888625 9.09625,6.00665625 C9.02509375,6.0408125 8.95625,6.07378125 8.88509375,6.10425 C8.66553125,6.19821875 8.42353125,6.2674375 8.02284375,6.2694375 C8.01725,6.26946875 8.01203125,6.26965625 8.006375,6.26965625 L8.00265625,6.26959375 L7.99646875,6.26965625 C7.9814375,6.269625 7.96746875,6.2691875 7.952875,6.269 C7.93465625,6.26875 7.916,6.26871875 7.89840625,6.2681875 C7.8935,6.26803125 7.88903125,6.26771875 7.8841875,6.26753125 C7.66996875,6.2600625 7.5035625,6.23190625 7.36015625,6.19078125 C7.19253125,6.1426875 7.0558125,6.0770625 6.90909375,6.00665625 C6.6065625,5.8614375 6.26365625,5.6968125 5.6128125,5.6968125 C4.96203125,5.6968125 4.619125,5.86140625 4.31659375,6.00665625 C4.0593125,6.130125 3.83275,6.23890625 3.41665625,6.26415625 C3.35721875,6.26778125 3.29390625,6.26965625 3.22609375,6.26965625 C2.68346875,6.26965625 2.4295625,6.14778125 2.13559375,6.00665625 C1.87703125,5.8825625 1.5888125,5.744375 1.1043125,5.7068125 L1.0984375,5.7063125 L1.09821875,5.70634375 C1.0175625,5.70025 0.9316875,5.69684375 0.83940625,5.69684375 C0.716,5.69684375 0.615625,5.5964375 0.615625,5.47303125 C0.6155,5.34965625 0.715875,5.24928125 0.83928125,5.24928125 L0.83928125,5.24928125 Z M14.9230937,8.802875 L9.85475,8.802875 L9.85475,9.278125 L14.9230625,9.278125 L14.9230625,9.50840625 C14.9230625,10.2950625 14.2830625,10.9350313 13.4964062,10.9350313 L2.50359375,10.9350313 C1.7169375,10.9350313 1.0769375,10.2950313 1.0769375,9.50840625 L1.0769375,8.2426875 L1.274125,8.2426875 L1.8146875,8.2426875 L5.19796875,10.0707813 L8.58121875,8.2426875 L14.725875,8.2426875 L14.9230625,8.2426875 L14.9230625,8.802875 L14.9230937,8.802875 Z M2.8144375,8.24271875 L7.5814375,8.24271875 L5.198,9.530625 L2.8144375,8.24271875 L2.8144375,8.24271875 Z M14.725875,7.7674375 L9.46075,7.7674375 L9.4608125,7.76740625 L1.27290625,7.76740625 C0.8329375,7.76675 0.47525,7.40865625 0.47525,6.9685625 C0.47525,6.58390625 0.7438125,6.25878125 1.11778125,6.1850625 C1.48090625,6.22021875 1.69896875,6.32478125 1.92946875,6.4353125 C2.2130625,6.5713125 2.53215625,6.72421875 3.1064375,6.743 C3.145125,6.74428125 3.1849375,6.7449375 3.226,6.7449375 C3.87675,6.7449375 4.21965625,6.58034375 4.5221875,6.435125 C4.81621875,6.29396875 5.070125,6.17209375 5.61275,6.17209375 C5.74840625,6.17209375 5.86603125,6.17971875 5.97075,6.19334375 C6.023125,6.20015625 6.07221875,6.2085 6.11878125,6.21809375 C6.14203125,6.22290625 6.1646875,6.22803125 6.18675,6.2335 C6.38528125,6.28240625 6.538,6.35571875 6.703375,6.435125 C6.9019375,6.5304375 7.11784375,6.6340625 7.42678125,6.69403125 C7.47090625,6.702625 7.5169375,6.71028125 7.56509375,6.7169375 C7.5971875,6.721375 7.63025,6.72534375 7.66425,6.72878125 C7.76640625,6.739125 7.87759375,6.7449375 7.999625,6.7449375 L8.00559375,6.7449375 C8.1479375,6.7449375 8.27559375,6.7370625 8.39128125,6.72325 C8.788,6.67584375 9.044375,6.5585 9.273375,6.44878125 C9.28290625,6.44421875 9.29240625,6.43965625 9.30184375,6.435125 C9.595875,6.294 9.8498125,6.172125 10.3924375,6.172125 C10.5280937,6.172125 10.6457187,6.17975 10.7504062,6.193375 C10.80275,6.2001875 10.851875,6.20853125 10.8984375,6.218125 C10.9216875,6.2229375 10.9443437,6.2280625 10.9664062,6.23353125 C11.1649375,6.2824375 11.317625,6.35575 11.483,6.43515625 C11.6815625,6.53046875 11.8974687,6.63409375 12.206375,6.6940625 C12.2505,6.70265625 12.2965312,6.7103125 12.3446562,6.71696875 C12.37675,6.72140625 12.4098125,6.725375 12.4438125,6.7288125 C12.5459687,6.7391875 12.657125,6.74496875 12.7791562,6.74496875 C12.8198437,6.74496875 12.8592812,6.74434375 12.897625,6.7430625 C13.472625,6.72446875 13.791875,6.571375 14.0756875,6.4353125 C14.3054687,6.32515625 14.5228125,6.2209375 14.88375,6.1854375 C15.2568125,6.25975 15.5246875,6.5846875 15.5246875,6.9685625 C15.52475,7.4090625 15.166375,7.7674375 14.725875,7.7674375 L14.725875,7.7674375 Z" id="Shape"></path>
                            <rect id="Rectangle-path" x="5.27496875" y="1.062625" width="0.74215625" height="0.47525"></rect>
                            <rect id="Rectangle-path" x="6.452" y="2.09803125" width="0.74215625" height="0.47525"></rect>
                            <rect id="Rectangle-path" x="4.09759375" y="2.09803125" width="0.74215625" height="0.47525"></rect>
                            <rect id="Rectangle-path" x="11.1601562" y="2.09803125" width="0.74215625" height="0.47525"></rect>
                            <rect id="Rectangle-path" x="8.8060625" y="2.09803125" width="0.74215625" height="0.47525"></rect>
                            <rect id="Rectangle-path" x="7.62903125" y="1.062625" width="0.7421875" height="0.47525"></rect>
                            <rect id="Rectangle-path" x="9.98309375" y="1.062625" width="0.74215625" height="0.47525"></rect>
                        </g>
                    </g>
                </g>
            </g>
        </g>
    </g>
</svg>