<?xml version="1.0" encoding="UTF-8" standalone="no"?>
<svg width="12px" height="12px" viewBox="0 0 12 12" version="1.1" xmlns="http://www.w3.org/2000/svg" xmlns:xlink="http://www.w3.org/1999/xlink">
    <!-- Generator: Sketch 40 (33762) - http://www.bohemiancoding.com/sketch -->
    <title>Insta Call</title>
    <desc>Created with Sketch.</desc>
    <defs></defs>
    <g id="Page-1" stroke="none" stroke-width="1" fill="none" fill-rule="evenodd">
        <g id="Desktop" transform="translate(-9.000000, -262.000000)" fill="#FFFFFF">
            <g id="Icons" transform="translate(2.000000, 4.000000)">
                <g id="Insta" transform="translate(7.000000, 256.000000)">
                    <path d="M11.8248903,11.2172172 C11.8499591,11.4068648 11.7914312,11.5717582 11.6495522,11.7118973 L9.98383945,13.3442813 C9.90869452,13.426728 9.81060909,13.4968683 9.68954226,13.5545203 C9.56847542,13.6122532 9.4495164,13.6493542 9.33266521,13.6658234 C9.32431577,13.6658234 9.29920607,13.6679452 9.25743842,13.6720675 C9.21575263,13.6761696 9.16148129,13.6782712 9.09468579,13.6782712 C8.93600556,13.6782712 8.6792399,13.651476 8.32438882,13.5978655 C7.96953774,13.5442549 7.53538748,13.41232 7.02193802,13.2021213 C6.50836578,12.9918823 5.926013,12.6764832 5.27477737,12.2560455 C4.62354174,11.835628 3.93051799,11.2584607 3.19576753,10.5246649 C2.61130693,9.95578273 2.12703957,9.41163454 1.74296547,8.89224057 C1.35889136,8.37280619 1.04996218,7.89255419 0.816177944,7.45146437 C0.58237324,7.01037456 0.40703506,6.61050809 0.29014294,6.25186496 C0.17325082,5.89322184 0.0939311677,5.58404674 0.0521839821,5.32433965 C0.0104367964,5.06463256 -0.00626207785,4.86057699 0.00208735928,4.71217294 C0.0104367964,4.56376889 0.014611515,4.48132219 0.014611515,4.46483285 C0.0313103892,4.34940748 0.0688828563,4.23192094 0.127328916,4.11237323 C0.185774976,3.99282553 0.256745192,3.89595066 0.340239563,3.82174863 L2.00595227,2.17693707 C2.12284439,2.0615117 2.25643538,2.00379901 2.40672525,2.00379901 C2.51526794,2.00379901 2.61128646,2.03471652 2.69478083,2.09655155 C2.77827521,2.15838657 2.84924542,2.23464976 2.90769148,2.32534112 L4.24777614,4.83584298 C4.32292108,4.96775769 4.34379467,5.11203941 4.31039692,5.26868813 C4.27699917,5.42533685 4.20602896,5.55725156 4.09748627,5.66443226 L3.48380264,6.27041547 C3.46710377,6.28690481 3.45249225,6.31369998 3.4399681,6.350801 C3.42744394,6.38790201 3.42118186,6.41881952 3.42118186,6.44355353 C3.45457961,6.61669159 3.52972455,6.81456366 3.64661667,7.03716973 C3.74680991,7.2350418 3.9012745,7.47619838 4.11001043,7.76063948 C4.31874636,8.04508058 4.61515137,8.37278598 4.99922548,8.74379611 C5.37495015,9.12309132 5.70892764,9.41779784 6.00115794,9.62807732 C6.29332685,9.83823556 6.53762974,9.99288374 6.73384151,10.0918198 C6.93005328,10.1907558 7.08034315,10.2505297 7.18469065,10.2710807 L7.34120167,10.3020184 C7.35790054,10.3020184 7.38509761,10.2958147 7.42262915,10.2834679 C7.46020161,10.2710807 7.48733728,10.2566727 7.50405662,10.2401632 L8.21791303,9.52287696 C8.36828476,9.39098245 8.54354108,9.3250251 8.74394804,9.3250251 C8.8859294,9.3250251 8.9985854,9.3497389 9.08207978,9.39922712 L9.09458347,9.39922712 L11.5117251,10.8090656 C11.6871246,10.9163271 11.7914721,11.0523238 11.8248903,11.2172172 L11.8248903,11.2172172 Z" id="Insta-Call"></path>
                </g>
            </g>
        </g>
    </g>
</svg>