<?xml version="1.0" encoding="UTF-8" standalone="no"?>
<svg width="15px" height="13px" viewBox="0 0 15 13" version="1.1" xmlns="http://www.w3.org/2000/svg" xmlns:xlink="http://www.w3.org/1999/xlink">
    <!-- Generator: Sketch 40 (33762) - http://www.bohemiancoding.com/sketch -->
    <title>Insta Dinner</title>
    <desc>Created with Sketch.</desc>
    <defs></defs>
    <g id="Page-1" stroke="none" stroke-width="1" fill="none" fill-rule="evenodd">
        <g id="Desktop" transform="translate(-135.000000, -261.000000)" fill="#FFFFFF">
            <g id="Icons" transform="translate(2.000000, 4.000000)">
                <g id="Insta" transform="translate(7.000000, 256.000000)">
                    <g id="Insta-Dinner" transform="translate(126.000000, 1.000000)">
                        <path d="M13.9973438,9.17848214 C13.6345313,6.25255952 11.619375,3.89380952 8.9971875,3.23 C9.23109375,2.89202381 9.37453125,2.47764881 9.375,2.02380952 C9.3740625,0.906666667 8.535,0.00101190476 7.5,0 C6.46453125,0.00101190476 5.6259375,0.906160714 5.625,2.02380952 C5.62546875,2.47764881 5.76890625,2.89202381 6.0028125,3.22949405 C3.380625,3.89380952 1.36546875,6.25255952 1.00265625,9.17848214 C0.42421875,9.36669643 0,9.93892857 0,10.625 C0.00046875,11.4633631 0.62953125,12.1428571 1.40625,12.1428571 L13.59375,12.1428571 C14.3704688,12.1428571 14.9995313,11.4633631 15,10.625 C14.9995313,9.93892857 14.5757813,9.36669643 13.9973438,9.17848214 L13.9973438,9.17848214 Z M7.5,1.01190476 C8.015625,1.01291667 8.4365625,1.4672619 8.4375,2.02380952 C8.4365625,2.58035714 8.015625,3.03470238 7.5,3.03571429 C6.984375,3.03470238 6.5634375,2.58035714 6.5625,2.02380952 C6.5634375,1.4672619 6.984375,1.01291667 7.5,1.01190476 L7.5,1.01190476 Z M7.5,4.04761905 C10.2810937,4.04610119 12.598125,6.24092262 13.0453125,9.10714286 L1.9546875,9.10714286 C2.401875,6.24092262 4.71890625,4.04610119 7.5,4.04761905 L7.5,4.04761905 Z M13.59375,11.1309524 L1.40625,11.1309524 C1.1475,11.1304464 0.93796875,10.9042857 0.9375,10.625 C0.93796875,10.3457143 1.1475,10.1190476 1.40625,10.1190476 L1.4240625,10.1190476 L13.5759375,10.1190476 L13.59375,10.1190476 C13.8525,10.1190476 14.0620313,10.3457143 14.0625,10.625 C14.0620313,10.9042857 13.8525,11.1304464 13.59375,11.1309524 L13.59375,11.1309524 Z" id="Shape"></path>
                        <path d="M7.5,5.05952381 C7.24125,5.05952381 7.03125,5.28619048 7.03125,5.56547619 C7.03125,5.8447619 7.24125,6.07142857 7.5,6.07142857 C8.7815625,6.07092262 9.9346875,6.78380952 10.6139063,7.8721131 C10.75875,8.10383929 11.0498438,8.16505952 11.2645313,8.00922619 C11.4792188,7.8528869 11.5359375,7.53869048 11.3915625,7.30696429 C10.5454688,5.9510119 9.1078125,5.06002976 7.5,5.05952381 L7.5,5.05952381 Z" id="Shape"></path>
                    </g>
                </g>
            </g>
        </g>
    </g>
</svg>