<?xml version="1.0" encoding="UTF-8" standalone="no"?>
<svg width="14px" height="14px" viewBox="0 0 14 14" version="1.1" xmlns="http://www.w3.org/2000/svg" xmlns:xlink="http://www.w3.org/1999/xlink">
    <!-- Generator: Sketch 40 (33762) - http://www.bohemiancoding.com/sketch -->
    <title>Insta Custom</title>
    <desc>Created with Sketch.</desc>
    <defs></defs>
    <g id="Page-1" stroke="none" stroke-width="1" fill="none" fill-rule="evenodd">
        <g id="Desktop" transform="translate(-345.000000, -261.000000)" fill="#FFFFFF">
            <g id="Icons" transform="translate(2.000000, 4.000000)">
                <g id="Insta" transform="translate(7.000000, 256.000000)">
                    <g id="Insta-Custom" transform="translate(336.000000, 1.000000)">
                        <path d="M0.39718852,6.74241772 C0.39718852,6.47747263 0.607774923,6.26688623 0.872720011,6.26688623 L6.64030492,6.26688623 L6.64030492,0.498873304 C6.64073294,0.233928216 6.85816768,0.0164934755 7.12311277,0.0164934755 C7.38805785,0.0164934755 7.59864426,0.233928216 7.59864426,0.498873304 L7.59864426,6.26688623 L13.3662292,6.26688623 C13.6311743,6.26688623 13.848609,6.47747263 13.848609,6.74241772 C13.848609,7.00736281 13.6311743,7.22479755 13.3662292,7.22479755 L7.59864426,7.22479755 L7.59864426,12.9928105 C7.59864426,13.2577556 7.38805785,13.4751903 7.12311277,13.4751903 C6.85816768,13.4751903 6.64073294,13.2577556 6.64073294,12.9928105 L6.64073294,7.22479755 L0.872720011,7.22479755 C0.607774923,7.22479755 0.39718852,7.00736281 0.39718852,6.74241772 Z" id="Shape"></path>
                    </g>
                </g>
            </g>
        </g>
    </g>
</svg>