<?xml version="1.0" encoding="UTF-8" standalone="no"?>
<svg width="17px" height="14px" viewBox="0 0 17 14" version="1.1" xmlns="http://www.w3.org/2000/svg" xmlns:xlink="http://www.w3.org/1999/xlink">
    <!-- Generator: Sketch 40 (33762) - http://www.bohemiancoding.com/sketch -->
    <title>Insta Meeting</title>
    <desc>Created with Sketch.</desc>
    <defs></defs>
    <g id="Page-1" stroke="none" stroke-width="1" fill="none" fill-rule="evenodd">
        <g id="Desktop" transform="translate(-93.000000, -262.000000)" fill="#FFFFFF">
            <g id="Icons" transform="translate(2.000000, 4.000000)">
                <g id="Insta" transform="translate(7.000000, 256.000000)">
                    <g id="Insta-Meeting" transform="translate(84.000000, 2.000000)">
                        <path d="M1.35090349,5.0877965 C1.25522889,5.19723868 1.25529291,5.374766 1.35090349,5.48424485 C1.44651406,5.59368703 1.60146913,5.59368703 1.69698368,5.48424485 C1.79259426,5.37469267 1.79259426,5.19720202 1.69698368,5.08772317 C1.60143712,4.97831766 1.44651406,4.97828099 1.35090349,5.0877965 L1.35090349,5.0877965 Z" id="Shape"></path>
                        <ellipse id="Oval" cx="14.8645476" cy="5.28600234" rx="0.244772035" ry="0.280369969"></ellipse>
                        <path d="M16.3133343,4.76441961 L12.2366492,0.0949232182 C12.1884758,0.0397438272 12.1231457,0.00876270728 12.0550307,0.00876270728 C11.9869158,0.00876270728 11.9215856,0.0397438272 11.8734122,0.0949232182 L10.3325039,1.86000378 L10.105881,2.1196219 C9.53064906,1.65809487 8.7299145,1.72145034 8.21658782,2.309505 L8.19427762,2.33513317 L8.17193541,2.30954166 C7.89323394,1.9903078 7.52273096,1.8145037 7.12860541,1.81446703 C7.1285734,1.81446703 7.12860541,1.81446703 7.1285734,1.81446703 C6.82144804,1.81446703 6.52866266,1.92123274 6.28248223,2.11940191 L6.05637138,1.86040708 L6.05605129,1.86000378 L4.51511098,0.0948865542 C4.46693759,0.0397071631 4.40163945,0.00872604324 4.3334925,0.00872604324 C4.26537757,0.00872604324 4.20011143,0.0397071631 4.15187402,0.0948865542 L0.0751888989,4.76445627 C0.0270475179,4.81963566 0,4.89443032 0,4.97245141 C0,5.0504725 0.0270475179,5.12530382 0.0751888989,5.18044655 L1.61616122,6.94552711 C1.66631916,7.00294301 1.73206543,7.03168762 1.7977797,7.03168762 C1.86352597,7.03168762 1.92924024,7.00297967 1.97939818,6.94552711 L2.42745872,6.43230378 L4.41290658,8.7065013 C4.35055325,8.84344151 4.31508739,8.99886041 4.31508739,9.16370197 C4.31518341,9.70907967 4.70143477,10.1529346 5.17699096,10.1556111 C5.17935961,10.6987156 5.56452267,11.1399674 6.03870247,11.1426806 C6.03979077,11.4058184 6.12967176,11.6530441 6.29227695,11.8392975 C6.45485014,12.0255508 6.67075015,12.1285401 6.90054202,12.1297867 C6.90159831,12.3929613 6.9914793,12.6402236 7.15408449,12.8264403 C7.31768197,13.0137936 7.53521443,13.1170029 7.76654273,13.1170029 C7.92197793,13.1170029 8.06784247,13.0696329 8.19408556,12.9871388 C8.32631432,13.0731893 8.47419542,13.1164896 8.62214054,13.1164896 C8.8439622,13.1164896 9.06581586,13.0197698 9.2346948,12.8263303 C9.40248544,12.634064 9.4868929,12.3818887 9.48788518,12.1293834 C9.70836246,12.1282102 9.92855166,12.0314904 10.0963743,11.8392975 C10.2641009,11.6471779 10.3484764,11.3951859 10.3496287,11.1427906 C10.5794846,11.1416173 10.7954486,11.0385547 10.9580218,10.8523013 C11.120723,10.6659746 11.210732,10.4185656 11.2117563,10.1552811 C11.4321056,10.1539979 11.6521027,10.0573148 11.8198934,9.86519518 C12.0961942,9.54867446 12.1504492,9.07365507 11.9809621,8.70056172 L13.9611285,6.43237711 L14.4092211,6.9456371 C14.4573945,7.00081649 14.5226926,7.03179761 14.5908396,7.03179761 C14.6589545,7.03179761 14.7242846,7.00081649 14.772458,6.9456371 L16.3134304,5.18048321 C16.4136182,5.06554143 16.4136182,4.87928807 16.3133343,4.76441961 L16.3133343,4.76441961 Z M1.7977797,6.32154169 L0.619980325,4.97241475 L4.33346049,0.718871974 L5.51122786,2.06799892 L1.7977797,6.32154169 L1.7977797,6.32154169 Z M5.18118412,9.56740979 C4.98679409,9.56740979 4.82860612,9.38625273 4.82857411,9.16362864 C4.82860612,8.94093122 4.98676208,8.75973749 5.18118412,8.75973749 C5.37557415,8.75973749 5.53366609,8.94093122 5.5336981,9.16351865 C5.5336981,9.38621607 5.37557415,9.56737313 5.18118412,9.56740979 L5.18118412,9.56740979 Z M6.04295965,10.5544793 C5.84853761,10.5544793 5.69041366,10.3732855 5.69041366,10.1505881 C5.69041366,9.92792737 5.84856962,9.74680697 6.04292764,9.74680697 C6.23734968,9.74680697 6.39550564,9.92800069 6.39550564,10.1506981 C6.39550564,10.3733222 6.23734968,10.5544793 6.04295965,10.5544793 L6.04295965,10.5544793 Z M7.15392445,11.4233072 C7.08737795,11.4996051 6.99887335,11.5415854 6.9047992,11.5415854 L6.90467117,11.5415854 C6.81050099,11.5415854 6.72196438,11.4995684 6.65538588,11.4233072 C6.58877536,11.3470093 6.55212518,11.2455966 6.55212518,11.1377309 C6.55212518,11.0298653 6.58877536,10.9285259 6.65538588,10.8522647 C6.72193238,10.7759668 6.81050099,10.7339864 6.90463916,10.7339864 C7.09902919,10.7339864 7.25715314,10.9151802 7.25715314,11.1379143 C7.25715314,11.2456332 7.22053496,11.3470093 7.15392445,11.4233072 L7.15392445,11.4233072 Z M7.76647871,12.5286916 C7.67227653,12.5286916 7.58377193,12.4866746 7.51719342,12.4104133 C7.45064692,12.3341888 7.41396473,12.2327394 7.41396473,12.1248737 C7.41396473,11.902213 7.57208868,11.7210926 7.76641469,11.7210926 C7.96086874,11.7210926 8.1190247,11.9022863 8.1190247,12.1249104 C8.11899269,12.3475345 7.96083673,12.5286916 7.76647871,12.5286916 L7.76647871,12.5286916 Z M11.4566884,9.44913157 C11.3192102,9.60660366 11.095532,9.60660366 10.9580538,9.44913157 L9.5329217,7.8167382 C9.43260581,7.70186974 9.27003263,7.70186974 9.16971674,7.8167382 C9.06943287,7.93160666 9.06943287,8.11786002 9.16971674,8.23269182 L10.5948489,9.86508519 C10.6614594,9.94138307 10.6981416,10.0427958 10.6981096,10.1506248 C10.6981096,10.2585271 10.6614274,10.3599032 10.5947848,10.4362011 C10.5282704,10.5124256 10.4397978,10.5544059 10.3456276,10.5544059 C10.2514894,10.5544059 10.1630168,10.5124256 10.0964703,10.4362377 C10.0964703,10.4362377 10.0964383,10.4362011 10.0964063,10.4361644 L8.6712742,8.80377102 C8.57095832,8.68890256 8.40838513,8.68890256 8.30810125,8.80377102 C8.20781738,8.91863948 8.20781738,9.10489284 8.30810125,9.2197613 L9.73323337,10.8521547 C9.73323337,10.8521547 9.73329739,10.8521913 9.73329739,10.8522647 C9.87067958,11.0097001 9.87058355,11.2658351 9.73320136,11.4231972 C9.59572315,11.5806693 9.372109,11.5806693 9.23466279,11.4233072 C9.23466279,11.4233072 9.23463079,11.4232705 9.23459878,11.4232339 L7.80946666,9.79084049 C7.70915078,9.67597203 7.54657759,9.67597203 7.44629371,9.79084049 C7.34600984,9.90570895 7.34600984,10.0919623 7.44629371,10.2068308 L8.87142583,11.8392241 C8.87142583,11.8392241 8.87148985,11.8392608 8.87148985,11.8392975 C9.00890404,11.9967696 9.00887204,12.2528679 8.87142583,12.4103033 C8.78682632,12.5071698 8.66964175,12.5442371 8.55994726,12.5219087 C8.6065202,12.4002207 8.63257544,12.265957 8.63257544,12.1248737 C8.63257544,11.579496 8.24632408,11.1355311 7.77063987,11.1328546 C7.76830322,10.5897134 7.38310815,10.1484616 6.90896036,10.1457485 C6.90665572,9.60257061 6.52139664,9.16128214 6.04718483,9.15860566 C6.04481617,8.61381459 5.65725245,8.17142619 5.18118412,8.17142619 C5.03410324,8.17142619 4.89550472,8.21377317 4.77399894,8.28823785 L2.79053564,6.01635016 L5.87433678,2.48406253 L6.08511537,2.72553194 C6.18543125,2.8404004 6.34800444,2.8404004 6.44828832,2.72553194 C6.62997081,2.51742681 6.87147794,2.40285166 7.12844537,2.40285166 C7.38538078,2.40285166 7.62695193,2.51750014 7.80857041,2.72556861 L7.83091262,2.75123344 L6.40405202,4.38553334 C6.06642218,4.77230238 6.06648619,5.40175074 6.40418006,5.78862977 C6.573059,5.98203261 6.79475262,6.07867904 7.01657427,6.07867904 C7.23833191,6.07864238 7.46018557,5.98192262 7.6290005,5.78851977 L8.19603811,5.13905284 L11.4649467,8.8781257 C11.6002483,9.03281132 11.5964393,9.28905634 11.4566884,9.44913157 L11.4566884,9.44913157 Z M11.6453488,8.25285704 L8.93489947,5.15247188 C9.41212012,5.27507646 9.93255277,5.12416724 10.3032478,4.69959757 C10.4035317,4.58472911 10.4035317,4.39847575 10.3032478,4.28364396 C10.2029319,4.1687755 10.0403587,4.1687755 9.94007487,4.28364396 C9.56515466,4.71319993 8.95493704,4.7132366 8.57982478,4.28364396 C8.47957292,4.1687755 8.31693571,4.16881216 8.21671585,4.28368062 L7.26608362,5.37249283 C7.1285734,5.52996491 6.90499126,5.52992825 6.76760907,5.37256616 C6.63009885,5.21505741 6.63006684,4.95881238 6.76748104,4.80137697 L8.5798888,2.72549528 C8.95490504,2.29590264 9.56518666,2.29586597 9.9402029,2.72545861 C10.0405188,2.84032707 10.203092,2.84032707 10.3034079,2.72545861 L10.5142184,2.4839892 L13.5979876,6.0163135 L11.6453488,8.25285704 L11.6453488,8.25285704 Z M14.5907755,6.32154169 L10.8773274,2.06799892 L12.0550627,0.718908638 L15.7686069,4.97241475 L14.5907755,6.32154169 L14.5907755,6.32154169 Z" id="Shape"></path>
                    </g>
                </g>
            </g>
        </g>
    </g>
</svg>