<?xml version="1.0" encoding="UTF-8" standalone="no"?>
<svg width="13px" height="15px" viewBox="0 0 13 15" version="1.1" xmlns="http://www.w3.org/2000/svg" xmlns:xlink="http://www.w3.org/1999/xlink">
    <!-- Generator: Sketch 40 (33762) - http://www.bohemiancoding.com/sketch -->
    <title>Insta Conference</title>
    <desc>Created with Sketch.</desc>
    <defs></defs>
    <g id="Page-1" stroke="none" stroke-width="1" fill="none" fill-rule="evenodd">
        <g id="Desktop" transform="translate(-178.000000, -261.000000)" fill="#FFFFFF">
            <g id="Icons" transform="translate(2.000000, 4.000000)">
                <g id="Insta" transform="translate(7.000000, 256.000000)">
                    <g id="Insta-Conference" transform="translate(169.000000, 1.000000)">
                        <g id="Group">
                            <path d="M1.83956346,2.9933243 C1.98639252,3.11460925 2.19613556,3.0840824 2.30820107,2.92520734 C3.29440441,1.52624561 4.79017518,0.723984583 6.412042,0.723984583 C8.03390882,0.723984583 9.52967959,1.52629399 10.5158829,2.92520734 C10.5817013,3.01852951 10.6812108,3.06753695 10.7819268,3.06753695 C10.8526157,3.06753695 10.9239748,3.04334769 10.9845205,2.9933243 C11.1312602,2.87199096 11.1594107,2.6448538 11.0474345,2.48593036 C9.9336159,0.90608134 8.24409868,0 6.412042,0 C4.57998532,0 2.8904681,0.90608134 1.77669417,2.48593036 C1.66467334,2.6448538 1.69282377,2.87199096 1.83956346,2.9933243 L1.83956346,2.9933243 Z" id="Shape"></path>
                            <path d="M9.96601123,4.92425625 C9.96601123,5.5476135 10.4344701,6.05481393 11.0102134,6.05481393 C11.5859567,6.05481393 12.0544155,5.5476135 12.0544155,4.92425625 C12.0544155,4.30089899 11.5859567,3.79369856 11.0102134,3.79369856 C10.4344701,3.79369856 9.96601123,4.30085061 9.96601123,4.92425625 L9.96601123,4.92425625 Z" id="Shape"></path>
                            <path d="M12.0788573,6.42998937 C12.0764444,6.42911855 11.8133496,6.34169856 11.8133496,6.34169856 C11.718085,6.31020415 11.6145986,6.32960393 11.5348391,6.39423764 L11.0102134,6.81953323 L10.4855877,6.39423764 C10.4057835,6.32955556 10.3022525,6.31015577 10.2070772,6.34169856 C10.2070772,6.34169856 9.9439824,6.42911855 9.94156951,6.42998937 C9.51824069,6.58281712 9.233832,7.01004785 9.233832,7.49315577 L9.233832,9.20232057 C9.233832,9.2682605 9.25161592,9.33274907 9.28512833,9.38780383 L9.81453512,10.260117 L9.81453512,12.5509367 C9.81453512,12.7375327 9.95421486,12.888764 10.126558,12.888764 L11.8939134,12.888764 C12.0662566,12.888764 12.2059363,12.7375327 12.2059363,12.5509367 L12.2059363,10.260117 L12.7353431,9.38780383 C12.7688109,9.33270069 12.7866395,9.26821212 12.7866395,9.20232057 L12.7866395,7.49315577 C12.7866395,7.01004785 12.5021861,6.58281712 12.0788573,6.42998937 L12.0788573,6.42998937 Z" id="Shape"></path>
                            <path d="M1.81387061,6.05481393 C2.3896139,6.05481393 2.85807277,5.5476135 2.85807277,4.92425625 C2.85807277,4.30089899 2.3896139,3.79369856 1.81387061,3.79369856 C1.23812733,3.79369856 0.769623773,4.30085061 0.769623773,4.92425625 C0.769623773,5.54766188 1.23808265,6.05481393 1.81387061,6.05481393 L1.81387061,6.05481393 Z" id="Shape"></path>
                            <path d="M2.88251449,6.42998937 C2.8801016,6.42911855 2.6170068,6.34169856 2.6170068,6.34169856 C2.52169749,6.31020415 2.41830052,6.32960393 2.33849629,6.39423764 L1.81387061,6.81953323 L1.28924493,6.39423764 C1.20948539,6.32955556 1.10590968,6.31015577 1.01073443,6.34169856 C1.01073443,6.34169856 0.747639629,6.42911855 0.745226735,6.42998937 C0.321897913,6.58281712 0.0374892212,7.01004785 0.0374892212,7.49315577 L0.0374892212,9.20232057 C0.0374892212,9.2682605 0.0552731425,9.33274907 0.0887855572,9.38780383 L0.618192342,10.260117 L0.618192342,12.5509367 C0.618192342,12.7375327 0.757872086,12.888764 0.930215264,12.888764 L2.69752596,12.888764 C2.86986914,12.888764 3.00954888,12.7375327 3.00954888,12.5509367 L3.00954888,10.260117 L3.53895567,9.38780383 C3.5724234,9.33270069 3.590252,9.26821212 3.590252,9.20232057 L3.590252,7.49315577 C3.590252,7.01004785 3.30579863,6.58281712 2.88251449,6.42998937 L2.88251449,6.42998937 Z" id="Shape"></path>
                            <path d="M7.7588836,3.33090962 C7.7588836,2.52685859 7.15467711,1.87268421 6.412042,1.87268421 C5.66940689,1.87268421 5.0652004,2.52685859 5.0652004,3.33090962 C5.0652004,4.13500904 5.66940689,4.78913503 6.412042,4.78913503 C7.15467711,4.78913503 7.7588836,4.13500904 7.7588836,3.33090962 L7.7588836,3.33090962 Z" id="Shape"></path>
                            <path d="M7.89136935,5.49584848 L7.88913519,5.49507443 L7.50472545,5.36735513 C7.44409032,5.34718129 7.37929965,5.38191707 7.35749424,5.44669591 L6.5491748,7.84796385 C6.50252552,7.98647156 6.32160316,7.98647156 6.27495388,7.84796385 L5.46663444,5.44669591 C5.44902925,5.39439872 5.40345237,5.36159809 5.35456893,5.36159809 C5.34299597,5.36159809 4.93544033,5.49488091 4.93544033,5.49488091 C4.44437175,5.67204306 4.11630755,6.16492344 4.11630755,6.72224402 L4.11630755,9.2624067 C4.11630755,9.28761191 4.12314408,9.31228495 4.13592348,9.33337799 L4.97936393,10.7230027 L4.97936393,14.2391536 C4.97936393,14.3105603 5.03280506,14.3684211 5.0987575,14.3684211 L7.72537119,14.3684211 C7.79132362,14.3684211 7.84476475,14.3105603 7.84476475,14.2391536 L7.84476475,10.7230027 L8.6882052,9.33337799 C8.7009846,9.31228495 8.70782114,9.28761191 8.70782114,9.2624067 L8.70782114,6.71556778 C8.70777645,6.16066614 8.37841644,5.66860819 7.89136935,5.49584848 L7.89136935,5.49584848 Z" id="Shape"></path>
                            <path d="M6.727863,5.44529293 C6.69448463,5.40591281 6.64564587,5.38607762 6.59622623,5.38607762 L6.22781309,5.38607762 C6.17843813,5.38607762 6.12959937,5.40591281 6.09617632,5.44529293 C6.04447784,5.50629825 6.03697106,5.59439553 6.07365598,5.66323817 L6.27057493,5.98466507 L6.17839345,6.82669325 L6.35994137,7.34956831 C6.37763592,7.40215577 6.44631403,7.40215577 6.46405327,7.34956831 L6.64560119,6.82669325 L6.55341971,5.98466507 L6.75033866,5.66323817 C6.78706826,5.59439553 6.77956148,5.50629825 6.727863,5.44529293 L6.727863,5.44529293 Z" id="Shape"></path>
                        </g>
                    </g>
                </g>
            </g>
        </g>
    </g>
</svg>