<?xml version="1.0" encoding="UTF-8" standalone="no"?>
<svg width="12px" height="15px" viewBox="0 0 12 15" version="1.1" xmlns="http://www.w3.org/2000/svg" xmlns:xlink="http://www.w3.org/1999/xlink">
    <!-- Generator: Sketch 40 (33762) - http://www.bohemiancoding.com/sketch -->
    <title>Insta Location</title>
    <desc>Created with Sketch.</desc>
    <defs></defs>
    <g id="Page-1" stroke="none" stroke-width="1" fill="none" fill-rule="evenodd">
        <g id="Desktop" transform="translate(-220.000000, -260.000000)" fill="#FFFFFF">
            <g id="Icons" transform="translate(2.000000, 4.000000)">
                <g id="Insta" transform="translate(7.000000, 256.000000)">
                    <g id="Insta-Location" transform="translate(211.000000, 0.000000)">
                        <path d="M5.99686684,0 C2.69451697,0 0.00626631854,2.69811321 0.00626631854,6.01257862 C0.00626631854,6.38993711 0.0407310705,6.77044025 0.112793734,7.14150943 C0.115926893,7.16352201 0.12845953,7.22955975 0.153524804,7.3427673 C0.244386423,7.74842767 0.379112272,8.14779874 0.554569191,8.52830189 C1.2,10.0534591 2.61932115,12.3962264 5.73368146,14.9056604 C5.81201044,14.9685535 5.90600522,15 6,15 C6.09399478,15 6.18798956,14.9685535 6.26631854,14.9056604 C9.37754569,12.3962264 10.8,10.0534591 11.4454308,8.52830189 C11.6208877,8.14779874 11.7556136,7.75157233 11.8464752,7.3427673 C11.8715405,7.22955975 11.8840731,7.16352201 11.8872063,7.14150943 C11.9561358,6.77044025 11.9937337,6.38993711 11.9937337,6.01257862 C11.9874674,2.69811321 9.29921671,0 5.99686684,0 L5.99686684,0 Z M11.0475196,6.99371069 C11.0475196,7 11.0443864,7.00628931 11.0443864,7.01257862 C11.0412533,7.02830189 11.0318538,7.0754717 11.016188,7.14779874 L11.016188,7.15408805 C10.937859,7.50628931 10.8219321,7.8490566 10.6684073,8.17924528 C10.6652742,8.18238994 10.6652742,8.18867925 10.662141,8.1918239 C10.0762402,9.58490566 8.79164491,11.7106918 5.99686684,14.0283019 C3.20208877,11.7106918 1.91749347,9.58490566 1.33159269,8.1918239 C1.32845953,8.18867925 1.32845953,8.18238994 1.32532637,8.17924528 C1.17493473,7.85220126 1.05900783,7.50628931 0.977545692,7.15408805 L0.977545692,7.14779874 C0.958746736,7.0754717 0.952480418,7.02830189 0.949347258,7.01257862 C0.949347258,7.00628931 0.946214099,7 0.946214099,6.99056604 C0.883550914,6.66666667 0.852219321,6.33962264 0.852219321,6.00943396 C0.852219321,3.16352201 3.1613577,0.84591195 5.99686684,0.84591195 C8.83237598,0.84591195 11.1415144,3.16352201 11.1415144,6.00943396 C11.1415144,6.3427673 11.1101828,6.67295597 11.0475196,6.99371069 L11.0475196,6.99371069 Z" id="Shape"></path>
                        <path d="M5.99686684,2.26100629 C3.90078329,2.26100629 2.19321149,3.97484277 2.19321149,6.07861635 C2.19321149,8.18238994 3.90078329,9.89622642 5.99686684,9.89622642 C8.09295039,9.89622642 9.80052219,8.18238994 9.80052219,6.07861635 C9.80052219,3.97484277 8.09295039,2.26100629 5.99686684,2.26100629 L5.99686684,2.26100629 Z M5.99686684,9.04716981 C4.36449086,9.04716981 3.03916449,7.71383648 3.03916449,6.07861635 C3.03916449,4.44339623 4.36762402,3.11006289 5.99686684,3.11006289 C7.62610966,3.11006289 8.95456919,4.44339623 8.95456919,6.07861635 C8.95456919,7.71383648 7.62924282,9.04716981 5.99686684,9.04716981 L5.99686684,9.04716981 Z" id="Shape"></path>
                    </g>
                </g>
            </g>
        </g>
    </g>
</svg>