<?xml version="1.0" encoding="UTF-8" standalone="no"?>
<svg width="16px" height="15px" viewBox="0 0 16 15" version="1.1" xmlns="http://www.w3.org/2000/svg" xmlns:xlink="http://www.w3.org/1999/xlink">
    <!-- Generator: Sketch 40 (33762) - http://www.bohemiancoding.com/sketch -->
    <title>Insta Party</title>
    <desc>Created with Sketch.</desc>
    <defs></defs>
    <g id="Page-1" stroke="none" stroke-width="1" fill="none" fill-rule="evenodd">
        <g id="Desktop" transform="translate(-302.000000, -261.000000)" fill="#FFFFFF">
            <g id="Icons" transform="translate(2.000000, 4.000000)">
                <g id="Insta" transform="translate(7.000000, 256.000000)">
                    <g id="Insta-Party" transform="translate(293.000000, 1.000000)">
                        <path d="M11.5099301,6.87727283 C11.3391349,6.63942583 11.2669483,6.34100787 11.3184959,6.04044624 L11.4212422,5.44131709 L10.9860286,5.01707103 C10.9793982,5.01064004 10.9734159,5.00376037 10.9669849,4.99717982 C7.63637914,7.77561759 7.25754885,12.2293537 7.29384158,14.4157912 C7.2951876,14.4954558 7.3563568,14.5613111 7.43572222,14.5686893 C7.51503779,14.5760675 7.58722442,14.5225756 7.60327698,14.4445063 C8.52201147,9.97003156 10.2595259,7.85523227 11.5099301,6.87727283 L11.5099301,6.87727283 Z" id="Shape"></path>
                        <path d="M4.97833552,3.88940408 L3.97325624,4.11438909 L3.5887926,5.06991484 C3.58181323,5.08726356 3.57393651,5.10406391 3.56615949,5.1209141 C5.13482299,7.34010484 5.95180823,11.870963 6.27839294,14.1532672 C6.28607025,14.2068089 6.33377924,14.2452952 6.3877198,14.2416559 C6.44166037,14.2380167 6.48368615,14.1933985 6.48413483,14.1393583 C6.52386739,9.21660845 5.77079325,5.93206658 5.01073975,3.88102883 C4.99992172,3.88372088 4.98930311,3.8869613 4.97833552,3.88940408 L4.97833552,3.88940408 Z" id="Shape"></path>
                        <path d="M11.8520688,11.8601449 L11.7096398,11.664224 C11.5943805,11.5056926 11.5256835,11.3251762 11.5035988,11.1397741 C10.4072393,11.4321599 8.75801392,12.1803485 8.2310714,14.0727551 C8.20260554,14.1749531 8.25215908,14.2827843 8.34822513,14.3277514 C8.44434104,14.3727185 8.55890243,14.3417102 8.61912444,14.2543683 C9.19412491,13.420483 10.2277199,12.3192879 11.7691639,12.0956987 C11.7700114,12.0933058 11.7706096,12.090863 11.7714571,12.0884202 L11.8520688,11.8601449 L11.8520688,11.8601449 Z" id="Shape"></path>
                        <path d="M4.01209145,9.94909344 C3.91183777,10.0893289 3.77848193,10.2071806 3.6180561,10.290634 L3.40324103,10.4023537 L3.373479,10.6426435 C3.36450552,10.7150296 3.34835327,10.7850725 3.32646795,10.8525232 C4.24699714,11.8922999 4.92534216,13.3205783 5.3352805,14.3460972 C5.36274931,14.414844 5.43777755,14.4516851 5.50906684,14.4316444 C5.58030628,14.4115537 5.6250241,14.3410122 5.61261079,14.2679781 C5.24963365,12.1246631 4.61476014,10.7823805 4.01209145,9.94909344 L4.01209145,9.94909344 Z" id="Shape"></path>
                        <path d="M12.4925757,5.09324588 L12.3011913,6.20899805 C12.2935639,6.25336691 12.31181,6.2982343 12.3482522,6.32470605 C12.3688414,6.33966185 12.3932692,6.3472893 12.4177967,6.3472893 C12.436641,6.3472893 12.4555351,6.34280256 12.472834,6.33367953 L13.4748723,5.80688657 L14.4768607,6.33367953 C14.4941596,6.34280256 14.5130537,6.3472893 14.531898,6.3472893 C14.5564255,6.3472893 14.5808533,6.33966185 14.6014425,6.32470605 C14.6378848,6.2982343 14.6561308,6.25336691 14.6485034,6.20899805 L14.4571191,5.09324588 L15.267773,4.30303152 C15.3000277,4.2715745 15.3116433,4.22456345 15.2977345,4.18174002 C15.2838256,4.1389166 15.246785,4.10770884 15.2022168,4.10122799 L14.081928,3.93845909 L13.5809089,2.92330957 C13.5609678,2.88292892 13.5198394,2.85735451 13.4748224,2.85735451 C13.4298055,2.85735451 13.3886771,2.88292892 13.368736,2.92330957 L12.8677169,3.93845909 L11.7474281,4.10122799 C11.7028598,4.10770884 11.6658193,4.1389166 11.6519104,4.18174002 C11.6380015,4.22456345 11.6496172,4.2715745 11.681822,4.30303152 L12.4925757,5.09324588 L12.4925757,5.09324588 Z" id="Shape"></path>
                        <path d="M4.76057915,2.9164299 C4.80454918,2.90660893 4.83909707,2.87265927 4.84971568,2.82888865 C4.8603343,2.78511802 4.84522895,2.73915388 4.81068106,2.71023934 L3.61870419,1.71293707 L3.76452319,0.165660357 C3.76876067,0.120842825 3.74712462,0.0774710187 3.70883778,0.0538408624 C3.68979407,0.0421254896 3.66825772,0.0362428769 3.64677123,0.0362428769 C3.62493577,0.0362428769 3.60315016,0.0422750476 3.58395689,0.0542895363 L2.26709913,0.879749722 L0.840565539,0.262972731 C0.825460186,0.256442034 0.809507337,0.253251464 0.793654195,0.253251464 C0.766085679,0.253251464 0.738816279,0.262873026 0.717030671,0.281368359 C0.682682195,0.310532159 0.66792581,0.356645861 0.678893393,0.400316783 L1.05702575,1.90776123 L0.0295626217,3.07381472 C-0.000199410602,3.10761482 -0.00822568732,3.15537366 0.00892362442,3.19700062 C0.0260729362,3.23867743 0.0653568247,3.26699374 0.110274063,3.27003475 L1.6607912,3.37627075 L2.45230173,4.71376751 C2.47368851,4.74991068 2.51252373,4.77184584 2.55410084,4.77184584 C2.557092,4.77184584 2.56008316,4.77174614 2.56312417,4.77149688 C2.60804141,4.7681069 2.64707603,4.73949147 2.66392623,4.69771495 L3.24406152,3.25592645 L4.76057915,2.9164299 L4.76057915,2.9164299 Z" id="Shape"></path>
                        <path d="M15.0680134,11.3918291 C15.0615326,11.3472609 15.030275,11.3102702 14.9874516,11.2963613 L14.2586058,11.0598105 L14.0403011,10.3252815 C14.0274889,10.2821091 13.991246,10.2499542 13.9468772,10.2423766 C13.9401969,10.24123 13.9335167,10.2406816 13.9268863,10.2406816 C13.8893971,10.2406816 13.8536527,10.2585288 13.8311692,10.2894873 L13.3809499,10.9096045 L12.6149141,10.8902616 C12.613917,10.8902616 12.61292,10.8902118 12.6119229,10.8902118 C12.5680526,10.8902118 12.5276719,10.9145399 12.5072323,10.9534748 C12.4862942,10.9933569 12.4897839,11.0416641 12.5162557,11.0780566 L12.9668738,11.6978746 L12.7117279,12.4204887 C12.6967223,12.4629632 12.7071415,12.5102235 12.7385985,12.5424782 C12.7612316,12.5656597 12.791891,12.5781727 12.8232981,12.5781727 C12.835512,12.5781727 12.8478755,12.5762783 12.85989,12.5723898 L13.588636,12.3353404 L14.1970378,12.8012633 C14.2180756,12.8173657 14.2434506,12.8256412 14.2689752,12.8256412 C14.2868224,12.8256412 14.3047195,12.8216032 14.3213703,12.8134273 C14.3617509,12.7934863 14.3873254,12.7523578 14.3872755,12.707291 L14.3870262,11.9410059 L15.0181608,11.5063905 C15.0551515,11.4808161 15.0744943,11.4363974 15.0680134,11.3918291 L15.0680134,11.3918291 Z" id="Shape"></path>
                        <path d="M3.15801585,9.40609837 C3.19794782,9.38530982 3.22267473,9.34368286 3.22172753,9.29861606 C3.22078033,9.25359912 3.19435843,9.21301906 3.15352911,9.19392549 L2.45933095,8.86938474 L2.33315389,8.11356871 C2.32572585,8.06915 2.2937703,8.03280741 2.25064776,8.01979587 C2.23938106,8.01640589 2.22786509,8.01476075 2.21649869,8.01476075 C2.18424403,8.01476075 2.15273715,8.02797171 2.13005419,8.0522998 L1.60690048,8.61224477 L0.849040489,8.49868043 C0.843157876,8.49778308 0.837325116,8.49738426 0.831492356,8.49738426 C0.793105815,8.49738426 0.756663528,8.51607901 0.734379393,8.54818411 C0.708655426,8.58517478 0.706212646,8.63353185 0.727998254,8.6729653 L1.09885212,9.34358315 L0.756663528,10.0292565 C0.73657291,10.0695374 0.741059648,10.117745 0.768279196,10.1536389 C0.790912299,10.1834508 0.825908859,10.2004007 0.862500705,10.2004007 C0.869978602,10.2004007 0.877506353,10.1997027 0.88498425,10.198257 L1.63736045,10.052787 L2.1837455,10.5900988 C2.20622904,10.6122334 2.23619049,10.6240485 2.26675016,10.6240485 C2.27981156,10.6240485 2.2929228,10.6219048 2.30563523,10.6174679 C2.34815954,10.6026617 2.37856966,10.5649731 2.3841033,10.5203051 L2.47827496,9.75980293 L3.15801585,9.40609837 L3.15801585,9.40609837 Z" id="Shape"></path>
                        <path d="M8.18700166,2.99240534 L8.09502352,2.76841738 L7.85832314,2.71721871 C7.68159549,2.67898173 7.5219673,2.60041395 7.3883622,2.49158562 C7.00693957,3.50608705 6.73987893,5.07529893 7.02074876,7.43557266 C7.03585411,7.56259722 7.22115641,7.56110164 7.23322075,7.43377797 C7.33706382,6.33891406 7.60467285,4.56854674 8.28790343,3.18284247 C8.2488688,3.12346796 8.21476959,3.06000554 8.18700166,2.99240534 L8.18700166,2.99240534 Z" id="Shape"></path>
                        <path d="M8.52445425,0.278576611 L8.60182557,1.04097319 L8.01765221,1.53690736 C7.98330373,1.56607116 7.96849749,1.61213501 7.97946508,1.65585578 C7.99038281,1.69952671 8.02517996,1.7332271 8.06919985,1.74274895 L8.81818607,1.90477007 L9.10932555,2.6136249 C9.12642501,2.65530172 9.16570889,2.68361802 9.21062613,2.68670889 C9.21336803,2.6869083 9.21606007,2.687008 9.21875211,2.687008 C9.26062834,2.687008 9.29971282,2.66477372 9.3209999,2.62823173 L9.7065603,1.96598912 L10.4707017,1.90816005 C10.515619,1.90477007 10.5547034,1.87615465 10.5715038,1.83437812 C10.5883041,1.7926016 10.5799787,1.74489262 10.5499674,1.71134178 L10.0392769,1.14003041 L10.2203916,0.395431223 C10.23106,0.351660596 10.2159048,0.3056466 10.1813569,0.276732062 C10.159671,0.258585698 10.1326509,0.249113694 10.1053815,0.249113694 C10.0892292,0.249113694 10.0729773,0.252403969 10.0576725,0.259183929 L9.35649499,0.568320215 L8.70427276,0.165959473 C8.68522905,0.154194248 8.6636927,0.148361488 8.64215636,0.148361488 C8.62037075,0.148361488 8.59853529,0.154393658 8.57934202,0.166408147 C8.54120474,0.190287567 8.51991766,0.233759078 8.52445425,0.278576611 L8.52445425,0.278576611 Z" id="Shape"></path>
                    </g>
                </g>
            </g>
        </g>
    </g>
</svg>