<?xml version="1.0" encoding="UTF-8" standalone="no"?>
<svg width="13px" height="10px" viewBox="0 0 13 10" version="1.1" xmlns="http://www.w3.org/2000/svg" xmlns:xlink="http://www.w3.org/1999/xlink">
    <!-- Generator: Sketch 40 (33762) - http://www.bohemiancoding.com/sketch -->
    <title>Insta Message</title>
    <desc>Created with Sketch.</desc>
    <defs></defs>
    <g id="Page-1" stroke="none" stroke-width="1" fill="none" fill-rule="evenodd">
        <g id="Desktop" transform="translate(-52.000000, -264.000000)" fill="#FFFFFF">
            <g id="Icons" transform="translate(2.000000, 4.000000)">
                <g id="Insta" transform="translate(7.000000, 256.000000)">
                    <g id="Insta-Message" transform="translate(43.000000, 4.000000)">
                        <path d="M11.1685579,0.018873403 L1.55564876,0.018873403 C0.697541322,0.018873403 0,0.685733643 0,1.50609756 L0,7.78716609 C0,8.60753 0.697541322,9.27439024 1.55564876,9.27439024 L11.1659256,9.27439024 C12.0240331,9.27439024 12.7215744,8.60753 12.7215744,7.78716609 L12.7215744,1.50861401 C12.7242066,0.688250097 12.0266653,0.018873403 11.1685579,0.018873403 L11.1685579,0.018873403 Z M12.0135041,7.78716609 C12.0135041,8.2325784 11.6344628,8.59494774 11.1685579,8.59494774 L1.55564876,8.59494774 C1.0897438,8.59494774 0.710702479,8.2325784 0.710702479,7.78716609 L0.710702479,1.50861401 C0.710702479,1.0632017 1.0897438,0.700832365 1.55564876,0.700832365 L11.1659256,0.700832365 C11.6318306,0.700832365 12.0108719,1.0632017 12.0108719,1.50861401 L12.0108719,7.78716609 L12.0135041,7.78716609 L12.0135041,7.78716609 Z" id="Shape"></path>
                        <path d="M8.02304132,4.56862176 L11.1343388,1.9011808 C11.2791116,1.77535811 11.2922727,1.56145954 11.1606612,1.42053813 C11.0290496,1.28213318 10.8053099,1.26955091 10.657905,1.3953736 L6.36736777,5.07694541 L5.53031818,4.36227255 C5.52768595,4.3597561 5.52505372,4.35723964 5.52505372,4.35472319 C5.5066281,4.33710801 5.48820248,4.32200929 5.46714463,4.30691057 L2.06103719,1.39285714 C1.91363223,1.26703446 1.68989256,1.27961672 1.55828099,1.42053813 C1.42666942,1.56145954 1.43983058,1.77535811 1.58723554,1.9011808 L4.7353843,4.59126984 L1.60039669,7.39711576 C1.4582562,7.5254549 1.4503595,7.73935346 1.58460331,7.87775842 C1.65567355,7.94821913 1.75043388,7.98596593 1.84519421,7.98596593 C1.93205785,7.98596593 2.01892149,7.95576849 2.0873595,7.8953736 L5.26972727,5.04926442 L6.13309917,5.78658537 C6.20153719,5.8444638 6.2857686,5.87214479 6.37,5.87214479 C6.4542314,5.87214479 6.54109504,5.84194735 6.60690083,5.78406891 L7.49396281,5.02409988 L10.657905,7.89789005 C10.726343,7.96080139 10.8158388,7.99099884 10.9027025,7.99099884 C10.9974628,7.99099884 11.0895909,7.95576849 11.1606612,7.88530778 C11.294905,7.74941928 11.2896405,7.53300426 11.1475,7.40466512 L8.02304132,4.56862176 L8.02304132,4.56862176 Z" id="Shape"></path>
                    </g>
                </g>
            </g>
        </g>
    </g>
</svg>