<?xml version="1.0" encoding="UTF-8" standalone="no"?>
<svg width="15px" height="15px" viewBox="0 0 15 15" version="1.1" xmlns="http://www.w3.org/2000/svg" xmlns:xlink="http://www.w3.org/1999/xlink">
    <!-- Generator: Sketch 40 (33762) - http://www.bohemiancoding.com/sketch -->
    <title>Insta Breakfast</title>
    <desc>Created with Sketch.</desc>
    <defs></defs>
    <g id="Page-1" stroke="none" stroke-width="1" fill="none" fill-rule="evenodd">
        <g id="Desktop" transform="translate(-387.000000, -261.000000)" fill="#FFFFFF">
            <g id="Icons" transform="translate(2.000000, 4.000000)">
                <g id="Insta" transform="translate(7.000000, 256.000000)">
                    <g id="Insta-Breakfast" transform="translate(378.000000, 1.000000)">
                        <g id="Capa_1">
                            <g id="Group">
                                <path d="M6.5858544,3.59017261 C6.5299441,3.55766534 6.46630264,3.54048901 6.40178264,3.54048901 C6.27038815,3.54048901 6.14795477,3.61185596 6.08195882,3.72722838 C5.98061042,3.90506019 6.04129998,4.1331789 6.21767573,4.23605945 C6.27358604,4.26856672 6.3372275,4.28574305 6.4017475,4.28574305 C6.53314198,4.28574305 6.6556105,4.2143761 6.72157131,4.09900368 C6.82291972,3.92120736 6.76223015,3.69305316 6.5858544,3.59017261 L6.5858544,3.59017261 Z" id="Shape"></path>
                                <path d="M3.87460874,6.0923453 C3.81012388,6.0923453 3.74648242,6.10952164 3.68983414,6.14245477 C3.51388009,6.24529982 3.45343651,6.47356049 3.55485521,6.65089546 C3.62049974,6.76605496 3.7430034,6.83759934 3.87464388,6.83763483 L3.87467902,6.83763483 C3.93916388,6.83763483 4.00280534,6.8204585 4.05917248,6.78770281 C4.14449632,6.73794823 4.20550216,6.65763824 4.23105011,6.56153595 C4.25659806,6.46536269 4.24349024,6.36485986 4.19418656,6.27865881 C4.1284366,6.16371225 4.00600323,6.0923453 3.87460874,6.0923453 L3.87460874,6.0923453 Z" id="Shape"></path>
                                <path d="M4.79943055,9.57843077 C4.59596061,9.57843077 4.43044362,9.7455806 4.43044362,9.95105779 C4.43044362,10.1564995 4.59599575,10.3236848 4.79943055,10.3236848 C5.00290048,10.3236848 5.16841747,10.1564995 5.16841747,9.95105779 C5.16841747,9.74561609 5.00290048,9.57843077 4.79943055,9.57843077 L4.79943055,9.57843077 Z" id="Shape"></path>
                                <path d="M8.43648198,10.5629823 C8.38029055,10.5300847 8.31629767,10.5126954 8.25139111,10.5126954 C8.12034804,10.5126954 7.99809037,10.5837785 7.9315673,10.6994348 C7.83021889,10.8772311 7.89090845,11.1053853 8.06630024,11.2076981 C8.12245654,11.2405602 8.18644941,11.2579495 8.25135597,11.2579495 C8.38250447,11.2579495 8.50486756,11.18676 8.57117978,11.0712101 C8.62030776,10.985009 8.63331015,10.8846482 8.60772706,10.7886169 C8.58214397,10.6923726 8.52092728,10.6120626 8.43648198,10.5629823 L8.43648198,10.5629823 Z" id="Shape"></path>
                                <path d="M10.778565,7.96083913 C10.714045,7.96083913 10.6504036,7.97801546 10.5940364,8.01077115 C10.508572,8.06059671 10.4474959,8.14108415 10.4220534,8.23732838 C10.3965757,8.33357262 10.4098241,8.43407545 10.4587763,8.5193538 C10.5244209,8.6345133 10.6469597,8.70605768 10.778565,8.70609317 C10.843085,8.70609317 10.9067265,8.68891684 10.9630936,8.65616115 C11.048558,8.6063356 11.1096341,8.52584816 11.1350415,8.42960392 C11.1605192,8.33335969 11.1472708,8.23285686 11.0983185,8.1475785 C11.032674,8.03238352 10.9101704,7.96083913 10.778565,7.96083913 L10.778565,7.96083913 Z" id="Shape"></path>
                                <path d="M14.652998,7.33173826 L14.6525412,7.30224749 C14.6502921,7.11490482 14.5041733,6.96163091 14.3189067,6.95219102 C13.7961753,6.92553932 13.3346956,6.61011942 13.1146037,6.12911117 C13.0708524,6.03350572 12.9872856,5.96245817 12.8865698,5.93516768 C12.7858188,5.90787719 12.6783206,5.9272183 12.5930319,5.98793876 C12.3573722,6.15579836 12.068473,6.24824535 11.7796441,6.24828084 C11.5349179,6.24828084 11.2926517,6.18248555 11.0790961,6.05795715 C10.6061603,5.78221316 10.332618,5.24868224 10.3822379,4.69879123 C10.391691,4.59388785 10.3545112,4.49015558 10.2807489,4.41570116 C10.2069867,4.34121124 10.1039163,4.30384208 10.0004243,4.31317549 C9.95843007,4.31704372 9.91569787,4.31899557 9.87342251,4.31899557 C9.37191656,4.31899557 8.90488453,4.04708431 8.65460597,3.60937178 C8.38155564,3.1317704 8.40882554,2.53162797 8.7240458,2.08039439 C8.7841731,1.9943353 8.80336042,1.88574114 8.77633652,1.78399622 C8.74934776,1.6822513 8.67899425,1.59786015 8.58432275,1.55367723 C8.10822418,1.33144957 7.79595582,0.865665799 7.76945904,0.338061427 C7.76004109,0.15107364 7.60840503,0.00361980533 7.42303303,0.00120660178 L7.39435747,0.000745254039 C7.37190198,0.000354882876 7.34944649,0 7.32688558,0 C3.28683013,0 0,3.31925502 0,7.39916601 C0,11.479077 3.28683013,14.798332 7.32688558,14.798332 C11.366941,14.798332 14.653736,11.479077 14.653736,7.39916601 C14.653736,7.37663094 14.6533846,7.35420234 14.652998,7.33173826 L14.652998,7.33173826 Z M7.32688558,14.0885308 C3.67437183,14.0885308 0.702832244,11.0877122 0.702832244,7.39916601 C0.702832244,3.78333536 3.55836937,0.828367608 7.11167835,0.713243604 C7.22265556,1.23715719 7.52508427,1.69790163 7.95883719,2.00565606 C7.67549037,2.62652365 7.70086262,3.36056339 8.04598839,3.96425465 C8.38935708,4.56489392 9.00458129,4.95739438 9.68242785,5.01996023 C9.74431222,5.70090949 10.1297454,6.32401285 10.72768,6.67264978 C11.0479606,6.85938915 11.4117466,6.95808208 11.7796793,6.95804659 C12.0896283,6.9580111 12.3908622,6.89072531 12.6672861,6.76129952 C12.9721747,7.19933146 13.4284886,7.50467268 13.9473896,7.61663823 C13.8334605,11.2049655 10.9073942,14.0885308 7.32688558,14.0885308 L7.32688558,14.0885308 Z" id="Shape"></path>
                            </g>
                        </g>
                    </g>
                </g>
            </g>
        </g>
    </g>
</svg>