<?xml version="1.0" encoding="UTF-8"?>
<svg width="40px" height="47px" viewBox="0 0 40 47" version="1.1" xmlns="http://www.w3.org/2000/svg" xmlns:xlink="http://www.w3.org/1999/xlink">
    <!-- Generator: Sketch 40.1 (33804) - http://www.bohemiancoding.com/sketch -->
    <title>Add Contact (BG)</title>
    <desc>Created with Sketch.</desc>
    <defs></defs>
    <g id="Page-1" stroke="none" stroke-width="1" fill="none" fill-rule="evenodd">
        <g id="Desktop" transform="translate(-768.000000, -88.000000)" fill="#4990E2">
            <g id="btns" transform="translate(755.000000, 88.000000)">
                <g id="Add-Contact-(BG)" transform="translate(13.000000, 0.000000)">
                    <g id="Add-Contact">
                        <path d="M16.630644,22.8114168 C19.1054915,22.8114168 21.5221861,21.2320044 23.4355448,18.3641183 C25.1240394,15.8332344 26.1320542,12.7040684 26.1320542,9.99360204 C26.1320542,4.48314978 21.8695531,0 16.630644,0 C11.3914251,0 7.12913055,4.48314978 7.12913055,9.99360204 C7.12913055,12.7040684 8.1372487,15.8332344 9.82574329,18.3641183 C11.7388954,21.2320044 14.1557966,22.8114168 16.630644,22.8114168 L16.630644,22.8114168 Z M16.630644,1.62960419 C21.0154415,1.62960419 24.5826923,5.38171353 24.5826923,9.99360204 C24.5826923,12.3462073 23.6571035,15.1948641 22.1672371,17.4280737 C20.5757326,19.8135969 18.5576371,21.1818126 16.6305408,21.1818126 C14.7034444,21.1818126 12.6854522,19.8135969 11.0938444,17.4280737 C9.60387467,15.1948641 8.67828587,12.3460987 8.67828587,9.99360204 C8.67838916,5.38171353 12.2457433,1.62960419 16.630644,1.62960419 L16.630644,1.62960419 Z" id="Shape"></path>
                        <path d="M20.6262418,42.5563531 C20.6180818,42.5360373 20.6200444,42.5412521 20.6235562,42.5504865 C20.5843057,42.454883 20.5289419,42.3650375 20.4578778,42.2923572 C20.180542,41.9918582 19.7071603,41.978604 19.4074104,42.2486838 C19.1098297,42.5169166 19.049198,42.994282 19.2747851,43.3332397 C19.4966537,43.6666567 19.9327474,43.7796426 20.2754663,43.5866975 C20.6226266,43.3913622 20.770539,42.9455025 20.6282043,42.5623283 C20.6318195,42.5715627 20.6338853,42.5765601 20.6262418,42.5563531 L20.6262418,42.5563531 Z" id="Shape"></path>
                        <path d="M29.7335976,25.7605658 C29.6584019,25.7605658 29.5836194,25.7618695 29.5088369,25.7636078 C27.9529676,23.7400739 25.9659627,22.0881985 23.7379802,20.9725714 C23.442362,20.8244947 23.0898305,20.8881579 22.8579427,21.1314035 C20.9913748,23.0894273 18.8377617,24.1244432 16.6300243,24.1244432 C14.421977,24.1244432 12.2688804,23.0895359 10.403552,21.1315121 C10.1715609,20.8880493 9.81923597,20.8243861 9.52330785,20.9725714 C6.73827819,22.3672953 4.38128558,24.5486835 2.70694182,27.2809865 C0.98694353,30.0878168 0.0777779673,33.3443092 0.0777779673,36.6983605 L0.0777779673,36.7124838 C0.0777779673,36.9423666 0.170223227,37.1616027 0.3320799,37.3160892 C4.80250543,41.5801115 10.5906116,43.9283711 16.6301276,43.9283711 C16.9491929,43.9283711 17.2715634,43.9217441 17.5883563,43.9088159 C18.0158769,43.8913248 18.3489897,43.5127134 18.3323599,43.0630513 C18.3158333,42.6133892 17.9552452,42.2610688 17.528241,42.2805154 C17.2313833,42.2925745 16.9291544,42.2987669 16.6301276,42.2987669 C11.0917785,42.2987669 5.7789133,40.18919 1.63075504,36.3511462 C1.69097358,33.4337201 2.51017286,30.6100506 4.00912885,28.1637974 C5.4311332,25.8433497 7.39593067,23.9611569 9.71377607,22.6929989 C11.7841367,24.6978466 14.1650928,25.7539388 16.6301276,25.7539388 C19.0948525,25.7539388 21.4759119,24.6979552 23.5474087,22.6929989 C25.0785914,23.5319191 26.4710546,24.6541732 27.6468137,25.9896882 C23.091793,27.003302 19.6628486,31.2644997 19.6628486,36.3527758 C19.6628486,42.1934945 24.1805813,46.9452031 29.7337009,46.9452031 C35.2868205,46.9452031 39.8045533,42.1934945 39.8045533,36.3527758 C39.80445,30.5120571 35.2867173,25.7605658 29.7335976,25.7605658 L29.7335976,25.7605658 Z M29.7335976,45.3158162 C25.0348994,45.3158162 21.2121072,41.295148 21.2121072,36.3529931 C21.2121072,31.4108381 25.0348994,27.39017 29.7335976,27.39017 C34.4322958,27.39017 38.2550881,31.4108381 38.2550881,36.3529931 C38.2550881,41.295148 34.4322958,45.3158162 29.7335976,45.3158162 L29.7335976,45.3158162 Z" id="Shape"></path>
                        <g id="Group-5" transform="translate(22.647995, 29.208023)">
                            <path d="M8.13857736,13.2449562 L8.13857736,1.35561123 C8.13857736,0.808701359 7.79074395,0.364832479 7.3621635,0.364832479 C6.93280663,0.364832479 6.58574963,0.808701359 6.58574963,1.35561123 L6.58574963,13.2449562 C6.58574963,13.7918661 6.93280663,14.235735 7.3621635,14.235735 C7.79074395,14.235735 8.13857736,13.7918661 8.13857736,13.2449562 L8.13857736,13.2449562 Z" id="Path-Copy"></path>
                            <path d="M13.4156505,6.5743282 L1.52630546,6.5743282 C0.97939559,6.5743282 0.535526709,6.92216161 0.535526709,7.35074206 C0.535526709,7.78009893 0.97939559,8.12715593 1.52630546,8.12715593 L13.4156505,8.12715593 C13.9625603,8.12715593 14.4064292,7.78009893 14.4064292,7.35074206 C14.4064292,6.92216161 13.9625603,6.5743282 13.4156505,6.5743282 L13.4156505,6.5743282 Z" id="Path"></path>
                        </g>
                    </g>
                </g>
            </g>
        </g>
    </g>
</svg>