<?xml version="1.0" encoding="UTF-8"?>
<svg width="39px" height="38px" viewBox="0 0 39 38" version="1.1" xmlns="http://www.w3.org/2000/svg" xmlns:xlink="http://www.w3.org/1999/xlink">
    <!-- Generator: Sketch 40.1 (33804) - http://www.bohemiancoding.com/sketch -->
    <title>Fill 178</title>
    <desc>Created with Sketch.</desc>
    <defs></defs>
    <g id="Page-1" stroke="none" stroke-width="1" fill="none" fill-rule="evenodd">
        <g id="Desktop" transform="translate(-767.000000, -421.000000)" fill="#4990E2">
            <g id="btns" transform="translate(755.000000, 88.000000)">
                <path d="M48.9635182,337.228502 L45.4363588,333.725854 C44.4632648,332.758049 42.8835189,332.758049 41.9091994,333.725854 L36.6184602,340.73115 C35.8108167,341.916192 35.6453662,343.265993 36.6184602,344.233798 L38.7778956,346.378102 C37.1773152,348.513863 35.2556384,350.842453 33.0925264,352.990418 C30.6463102,355.419084 27.9255688,357.62685 25.4793526,359.440417 L23.3922252,357.369339 C22.4191312,356.401534 21.0599861,356.565072 19.8650658,357.369339 L12.810747,362.623311 C11.6280824,363.4349 11.8364274,365.158154 12.810747,366.125959 L16.3379064,369.627386 C18.2865456,371.562996 20.8197765,370.943015 23.3922252,369.627386 C23.3922252,369.627386 31.1782029,365.28752 37.8440195,358.667881 C44.1139804,352.441222 48.9635182,344.233798 48.9635182,344.233798 C49.9746045,341.471954 50.9121573,339.162891 48.9635182,337.228502" id="Fill-178"></path>
            </g>
        </g>
    </g>
</svg>