<?xml version="1.0" encoding="UTF-8"?>
<svg width="39px" height="37px" viewBox="0 0 39 37" version="1.1" xmlns="http://www.w3.org/2000/svg" xmlns:xlink="http://www.w3.org/1999/xlink">
    <!-- Generator: Sketch 40.1 (33804) - http://www.bohemiancoding.com/sketch -->
    <title>Flower Invite</title>
    <desc>Created with Sketch.</desc>
    <defs></defs>
    <g id="Page-1" stroke="none" stroke-width="1" fill="none" fill-rule="evenodd">
        <g id="Desktop" transform="translate(-768.000000, -257.000000)" fill="#4990E2">
            <g id="btns" transform="translate(755.000000, 88.000000)">
                <g id="Flower-Invite" transform="translate(13.000000, 169.690625)">
                    <path d="M38.6651795,35.3460646 L38.6651795,13.0417345 C38.6651795,12.8120222 38.3491816,12.5230292 38.0412862,12.308137 L31.6646105,8.07698332 L31.6646105,3.40122509 C31.6646105,2.94180035 31.24328,2.63057714 30.8219494,2.63057714 L23.5539976,2.63057714 L19.8511504,0.163021682 C19.5999726,0.00741007644 19.178642,0.00741007644 18.9193617,0.163021682 L15.2165145,2.63057714 L7.94856267,2.63057714 C7.44620702,2.63057714 7.10590159,3.01590111 7.10590159,3.40122509 L7.10590159,8.02511279 L0.648200829,12.315547 C0.267382842,12.5304393 0.0243075311,12.8120222 0.0243075311,13.0491446 L0.0243075311,35.5016762 C0.0243075311,35.9388707 0.405125518,36.2426839 0.802148526,36.2723242 L0.866968609,36.2723242 L37.8144159,36.2723242 C38.3572841,36.2649141 38.6651795,35.8795901 38.6651795,35.3460646 L38.6651795,35.3460646 Z M37.0608824,14.4274188 L37.0608824,33.9603803 L23.1164621,23.749295 L37.0608824,14.4274188 L37.0608824,14.4274188 Z M36.4369891,13.0713748 L31.6646105,16.2502976 L31.6646105,9.86281175 L36.4369891,13.0713748 L36.4369891,13.0713748 Z M19.3487948,1.62280674 L20.8315541,2.62316706 L17.8579328,2.62316706 L19.3487948,1.62280674 L19.3487948,1.62280674 Z M29.9792883,4.17187304 L29.9792883,17.3766293 L19.3487948,24.4606623 L8.71830115,17.3766293 L8.71830115,4.17187304 L29.9792883,4.17187304 L29.9792883,4.17187304 Z M1.63670709,14.4274188 L15.5811274,23.749295 L1.63670709,34.0196609 L1.63670709,14.4274188 L1.63670709,14.4274188 Z M7.1140041,16.3095783 L2.22008784,13.0491446 L7.1140041,9.79612106 L7.1140041,16.3095783 L7.1140041,16.3095783 Z M3.15187653,34.797719 L16.9342467,24.6533243 L18.8383366,25.9278575 C19.2029496,26.1798001 19.4784349,26.1798001 19.8511504,25.9278575 L21.7552403,24.6533243 L35.6186356,34.797719 L3.15187653,34.797719 L3.15187653,34.797719 Z" id="Shape"></path>
                    <rect id="Rectangle-path" x="13.701345" y="7.95101202" width="11.3840271" height="1.46719514"></rect>
                    <rect id="Rectangle-path" x="13.701345" y="12.6564106" width="11.3840271" height="1.46719514"></rect>
                    <rect id="Rectangle-path" x="13.701345" y="17.3618091" width="11.3840271" height="1.46719514"></rect>
                </g>
            </g>
        </g>
    </g>
</svg>