<?xml version="1.0" encoding="UTF-8"?>
<svg width="38px" height="38px" viewBox="0 0 38 38" version="1.1" xmlns="http://www.w3.org/2000/svg" xmlns:xlink="http://www.w3.org/1999/xlink">
    <!-- Generator: Sketch 40.1 (33804) - http://www.bohemiancoding.com/sketch -->
    <title>Add Reminer</title>
    <desc>Created with Sketch.</desc>
    <defs></defs>
    <g id="Page-1" stroke="none" stroke-width="1" fill="none" fill-rule="evenodd">
        <g id="Desktop" transform="translate(-769.000000, -257.000000)" fill="#4990E2">
            <path d="M799.875,277.1875 L802.25,277.1875 L802.25,274.8125 L799.875,274.8125 L799.875,277.1875 Z M788,292.625 C778.81825,292.625 771.375,285.18175 771.375,276 C771.375,266.819437 778.81825,259.375 788,259.375 C797.18175,259.375 804.625,266.819437 804.625,276 C804.625,285.18175 797.18175,292.625 788,292.625 L788,292.625 Z M788,257 C777.506062,257 769,265.50725 769,276 C769,286.493938 777.506062,295 788,295 C798.493938,295 807,286.493938 807,276 C807,265.50725 798.493938,257 788,257 L788,257 Z M795.21525,266.824188 L796.85875,268.47125 L798.50225,266.824188 L796.85875,265.178312 L795.21525,266.824188 L795.21525,266.824188 Z M794.867313,284.048875 L796.546438,285.728 L798.225563,284.048875 L796.546438,282.36975 L794.867313,284.048875 L794.867313,284.048875 Z M788,261.75 C787.3445,261.75 786.8125,262.280813 786.8125,262.9375 L786.8125,274.839813 L777.3125,274.839813 C776.655813,274.839813 776.125,275.373 776.125,276.0285 C776.125,276.684 776.655813,277.214813 777.3125,277.214813 L788,277.214813 C788.656687,277.214813 789.1875,276.684 789.1875,276.0285 L789.1875,262.9375 C789.1875,262.280813 788.656687,261.75 788,261.75 L788,261.75 Z M780.50925,266.883562 L778.830125,265.204437 L777.151,266.883562 L778.830125,268.562687 L780.50925,266.883562 L780.50925,266.883562 Z M776.995437,284.113 L778.638937,285.760062 L780.282437,284.113 L778.638937,282.465937 L776.995437,284.113 L776.995437,284.113 Z M786.8125,290.25 L789.1875,290.25 L789.1875,287.875 L786.8125,287.875 L786.8125,290.25 Z" id="Add-Reminer"></path>
        </g>
    </g>
</svg>