<?xml version="1.0" encoding="UTF-8"?>
<svg width="26px" height="26px" viewBox="0 0 26 26" version="1.1" xmlns="http://www.w3.org/2000/svg" xmlns:xlink="http://www.w3.org/1999/xlink">
    <!-- Generator: Sketch 40.1 (33804) - http://www.bohemiancoding.com/sketch -->
    <title>call</title>
    <desc>Created with Sketch.</desc>
    <defs></defs>
    <g id="Page-1" stroke="none" stroke-width="1" fill="none" fill-rule="evenodd">
        <g id="Desktop" transform="translate(-3.000000, -45.000000)">
            <g id="Icons" transform="translate(2.000000, 4.000000)">
                <g id="Services" transform="translate(2.000000, 36.000000)">
                    <g id="call" transform="translate(0.000000, 6.000000)">
                        <ellipse id="Oval-2" stroke="#FFFFFF" fill="#77B72E" cx="12" cy="12" rx="12" ry="12"></ellipse>
                        <path d="M17.1895745,6.91673777 L16.0697861,5.70554159 C15.7608521,5.37088007 15.2593208,5.37088007 14.9499977,5.70554159 L13.2703151,8.12793394 C13.0139077,8.53771494 12.9613812,9.00446859 13.2703151,9.33913011 L13.955884,10.0806185 C13.4477382,10.8191527 12.837652,11.6243661 12.1509159,12.3671205 C11.374301,13.2069395 10.5105309,13.9703729 9.73391607,14.597494 L9.07130328,13.8813268 C8.76236931,13.5466652 8.33087337,13.6032159 7.95151491,13.8813268 L5.71193815,15.698121 C5.33647054,15.978764 5.4026151,16.5746557 5.71193815,16.9093172 L6.83172653,18.1200913 C7.45037264,18.7894144 8.25461259,18.5750284 9.07130328,18.1200913 C9.07130328,18.1200913 11.5431641,16.6193897 13.6594008,14.3303556 C15.6499627,12.1772117 17.1895745,9.33913011 17.1895745,9.33913011 C17.5105701,8.38409982 17.8082206,7.58563879 17.1895745,6.91673777" id="Fill-178" fill="#FFFFFF"></path>
                    </g>
                </g>
            </g>
        </g>
    </g>
</svg>