<?xml version="1.0" encoding="UTF-8"?>
<svg width="32px" height="32px" viewBox="0 0 32 32" version="1.1" xmlns="http://www.w3.org/2000/svg" xmlns:xlink="http://www.w3.org/1999/xlink">
    <!-- Generator: Sketch 40.1 (33804) - http://www.bohemiancoding.com/sketch -->
    <title>call2me</title>
    <desc>Created with Sketch.</desc>
    <defs></defs>
    <g id="Page-1" stroke="none" stroke-width="1" fill="none" fill-rule="evenodd">
        <g id="Desktop" transform="translate(-378.000000, -42.000000)">
            <g id="Icons" transform="translate(2.000000, 4.000000)">
                <g id="Services" transform="translate(2.000000, 36.000000)">
                    <g id="call2me" transform="translate(374.941125, 3.000000)">
                        <path d="M14.9124183,0.00790921512 C6.70986492,0.00790921512 0.0602889717,6.67294929 0.0602889717,14.8945784 C0.0602889717,23.1162769 6.70986492,29.781317 14.9124183,29.781317 C17.5310778,29.7747953 20.1016306,29.0742054 22.3631246,27.7511463 L29.7364451,29.7777786 L27.833224,22.216569 C29.09597,19.9836727 29.7613636,17.4613962 29.7646169,14.8945784 C29.7646169,6.67294929 23.1150409,0.00790921512 14.9124183,0.00790921512 L14.9124183,0.00790921512 Z" id="Fill-1" fill="#87AADE"></path>
                        <path d="M14.9124183,0.00790921512 C6.70986492,0.00790921512 0.0602889717,6.67287991 0.0602889717,14.8945784 C0.0602889717,23.1162769 6.70986492,29.781317 14.9124183,29.781317 C17.5310778,29.7747953 20.1016306,29.0742054 22.3631246,27.7511463 L29.7364451,29.7777786 L27.833224,22.2164996 C29.09597,19.9836727 29.7613636,17.4613268 29.7646169,14.8945784 C29.7646169,6.67287991 23.1150409,0.00790921512 14.9124183,0.00790921512 L14.9124183,0.00790921512 Z" id="Stroke-2" stroke="#FFFFFF" stroke-linecap="round" stroke-linejoin="round"></path>
                        <path d="M22.5748628,7.64390951 C22.4677824,7.53852269 22.3109342,7.50216805 22.168691,7.54962334 L18.655872,8.72039532 L15.6370627,6.57318217 C15.5148235,6.48618081 15.3542375,6.47514953 15.2212003,6.54445923 C15.0882323,6.61383831 15.0052398,6.75231896 15.0060012,6.90280218 L15.0314043,10.6129179 L12.061186,12.8270818 C11.9406081,12.916789 11.880596,13.0666478 11.9055145,13.2149109 C11.9300869,13.3631046 12.035783,13.4851424 12.1788568,13.5306551 L15.7070422,14.6528617 L16.8903257,18.1687159 C16.9380862,18.3110124 17.0617098,18.4147342 17.2098365,18.4370048 C17.3583786,18.4592062 17.5067822,18.3961406 17.5941355,18.2738253 L19.7493105,15.2572229 L23.450818,15.2158035 C23.5147063,15.2151791 23.5763104,15.1992219 23.6309235,15.170499 C23.7044331,15.1323405 23.7656219,15.0710094 23.8039688,14.9938599 C23.8710411,14.8594032 23.8569206,14.6986519 23.7680446,14.577516 L21.5716848,11.5906772 L22.6761981,8.04943024 C22.7211207,7.90574616 22.681874,7.74936572 22.5748628,7.64390951 L22.5748628,7.64390951 Z" id="Stroke-11" stroke="#FFFFFF"></path>
                        <path d="M3.95546876,13.4904846 C4.70738506,12.0820199 5.66993207,10.853247 6.8217906,9.83857795 C6.9307399,9.74297358 7.074852,9.69822407 7.21785661,9.72070289 L7.22007159,9.72125793 C7.36148418,9.74345923 7.48663052,9.8304606 7.56124764,9.9551348 C8.00874271,10.7158764 8.42432822,11.4790463 8.83991374,12.2424937 C9.17977465,12.8707213 9.52371943,13.4978388 9.87977737,14.1195447 C9.9941949,14.3197727 9.95390997,14.5715494 9.78273359,14.7268198 C9.45041745,15.0230685 9.08896049,15.3173745 8.73497909,15.6000249 C8.49223119,15.7962983 8.25398246,15.9886865 8.03442262,16.1762181 C9.42473753,18.2868685 11.7443748,20.5742274 13.8976809,21.9601439 C14.3562508,21.3709768 14.8243037,20.7793813 15.2993475,20.1899367 C15.448651,20.0028907 15.7087034,19.9552273 15.91262,20.0682458 C16.5312222,20.4131986 17.1509319,20.7340768 17.773618,21.0587709 C18.5477533,21.4593657 19.3207812,21.8601687 20.0916632,22.3054436 C20.2159789,22.3796792 20.3025016,22.5019251 20.3260357,22.6449848 C20.3512311,22.7892239 20.3101156,22.9325611 20.2176402,23.0431513 C19.149051,24.3014103 17.8744688,25.3543073 16.6280583,26.0023079 C16.5360675,26.0502488 16.4309252,26.0692587 16.3284132,26.0532321 L16.3138773,26.0508038 C14.3451759,25.6852455 10.5933468,24.5873215 7.62700484,21.300002 C5.70592548,19.1760308 4.45404679,16.6556276 3.90729296,13.8097671 C3.88569691,13.7029927 3.90355518,13.5885866 3.95546876,13.4904846 L3.95546876,13.4904846 Z" id="Fill-12" fill="#FF9955"></path>
                        <path d="M3.95546876,13.4904846 C4.70738506,12.0820199 5.66993207,10.853247 6.8217906,9.83857795 C6.9307399,9.7429042 7.074852,9.69822407 7.21785661,9.72070289 L7.22007159,9.72125793 C7.36148418,9.74345923 7.48663052,9.8304606 7.56124764,9.9551348 C8.00874271,10.7158764 8.42432822,11.4790463 8.83991374,12.2424937 C9.17977465,12.8706519 9.52371943,13.4977694 9.87977737,14.1194753 C9.9941949,14.3197727 9.95390997,14.5715494 9.78273359,14.7268198 C9.45041745,15.0230685 9.08896049,15.3173745 8.73497909,15.6000249 C8.49223119,15.7962289 8.25398246,15.9886865 8.03442262,16.1762181 C9.42473753,18.2868685 11.7443748,20.5742274 13.8976809,21.9601439 C14.3562508,21.3709768 14.8243037,20.7793813 15.2993475,20.1898673 C15.448651,20.0028907 15.7087034,19.9552273 15.91262,20.0682458 C16.5312222,20.4131986 17.1509319,20.7340768 17.773618,21.0587709 C18.5477533,21.4592963 19.3207812,21.8601687 20.0916632,22.3054436 C20.2159789,22.3796792 20.3025016,22.5019251 20.3260357,22.6449848 C20.3512311,22.7891545 20.3101156,22.9325611 20.2176402,23.043082 C19.149051,24.3014103 17.8744688,25.3543073 16.6280583,26.0023079 C16.5360675,26.0502488 16.4309252,26.0692587 16.3284132,26.0532321 L16.3138773,26.0508038 C14.3451759,25.6851761 10.5933468,24.5873215 7.62700484,21.2999326 C5.70592548,19.1760308 4.45404679,16.6556276 3.90729296,13.8097671 C3.88569691,13.7029233 3.90355518,13.5885866 3.95546876,13.4904846 L3.95546876,13.4904846 Z" id="Stroke-13" stroke="#FFFFFF" stroke-linecap="round" stroke-linejoin="round"></path>
                    </g>
                </g>
            </g>
        </g>
    </g>
</svg>