<?xml version="1.0" encoding="UTF-8"?>
<svg width="26px" height="27px" viewBox="0 0 26 27" version="1.1" xmlns="http://www.w3.org/2000/svg" xmlns:xlink="http://www.w3.org/1999/xlink">
    <!-- Generator: Sketch 40.1 (33804) - http://www.bohemiancoding.com/sketch -->
    <title>email</title>
    <desc>Created with Sketch.</desc>
    <defs>
        <path d="M12,24 C18.627417,24 24,18.627417 24,12 C24,5.372583 18.627417,0 12,0 C5.372583,0 0,5.372583 0,12 C0,18.627417 5.372583,24 12,24 Z" id="path-1"></path>
        <mask id="mask-2" maskContentUnits="userSpaceOnUse" maskUnits="objectBoundingBox" x="-1" y="-1" width="26" height="26">
            <rect x="-1" y="-1" width="26" height="26" fill="white"></rect>
            <use xlink:href="#path-1" fill="black"></use>
        </mask>
    </defs>
    <g id="Page-1" stroke="none" stroke-width="1" fill="none" fill-rule="evenodd">
        <g id="Desktop" transform="translate(-213.000000, -44.000000)">
            <g id="Icons" transform="translate(2.000000, 4.000000)">
                <g id="Services" transform="translate(2.000000, 36.000000)">
                    <g id="email" transform="translate(210.000000, 5.558875)">
                        <g id="Oval-2">
                            <use fill="#DB5D6C" fill-rule="evenodd" xlink:href="#path-1"></use>
                            <use stroke="#FFFFFF" mask="url(#mask-2)" stroke-width="2" xlink:href="#path-1"></use>
                        </g>
                        <g id="at" transform="translate(6.127660, 6.638298)" fill="#FFFFFF">
                            <g id="Capa_1">
                                <path d="M9.01344972,10.4493701 C8.27877204,10.8125144 7.36790164,10.9941352 6.28069416,10.9941352 C5.26400708,10.9941352 4.33764192,10.8197336 3.50133403,10.4710761 C2.66502614,10.1222727 2.02608393,9.58270924 1.58417055,8.85228832 C1.14225718,8.12172156 0.921192216,7.25100149 0.921192216,6.23981211 C0.921192216,5.27412517 1.14225718,4.36947273 1.58417055,3.52534436 C2.02608393,2.68150767 2.64856898,2.03351128 3.45148133,1.58159828 C4.25461023,1.12968528 5.14146857,0.90370447 6.11275409,0.90370447 C6.96340185,0.90370447 7.74042545,1.08333211 8.44382489,1.4422714 C9.14724839,1.80135653 9.67616339,2.28017722 10.0310511,2.87846609 C10.3859388,3.47687649 10.5632623,4.12066779 10.5632623,4.80998582 C10.5632623,5.40008328 10.4252291,5.97275273 10.149355,6.5277754 C9.87326441,7.08282237 9.4988639,7.52545016 9.02588883,7.85563444 C8.66888384,8.10738052 8.38057067,8.23316848 8.16044406,8.23316848 C8.04002284,8.23316848 7.93747834,8.19303786 7.85235342,8.11246065 C7.76722849,8.03202927 7.72490663,7.93609013 7.72490663,7.82466751 C7.72490663,7.76283088 7.78700596,7.44304993 7.91163771,6.86517882 L8.80787951,2.71140509 L7.69362839,2.71140509 L7.48197096,3.67089379 C7.24560373,3.28716151 6.96340185,3.00133723 6.6355578,2.81354249 C6.30771375,2.62577205 5.96319599,2.53180176 5.60219701,2.53180176 C5.129246,2.53180176 4.64147391,2.6968939 4.13938602,3.02710249 C3.63727406,3.35728678 3.21701485,3.85149371 2.87882492,4.50965035 C2.54065906,5.16795284 2.37154003,5.8251129 2.37154003,6.48130069 C2.37154003,7.01364507 2.48043642,7.50274756 2.69844573,7.94848662 C2.91621445,8.39420138 3.19935468,8.72440997 3.54813109,8.93896655 C3.89666689,9.15349884 4.25554858,9.2608622 4.62501675,9.2608622 C4.96108938,9.2608622 5.29622366,9.16703775 5.630179,8.97909717 C5.96413434,8.79144827 6.26608963,8.54266763 6.5358524,8.23316848 C6.56077875,8.48491455 6.60030963,8.66240319 6.65415632,8.76551285 C6.73718801,8.92654575 6.86675209,9.05036486 7.04313729,9.13701879 C7.21952249,9.22367272 7.45093333,9.26706045 7.73739386,9.26706045 C8.63363567,9.26706045 9.45938114,8.85019793 10.2147506,8.0165215 C11.0614044,7.08802404 11.4844786,6.02542568 11.4844786,4.82843472 C11.4844786,3.99079628 11.2831911,3.21487293 10.8807846,2.50093206 C10.4075929,1.67131487 9.76133644,1.04726074 8.94172631,0.628307831 C8.12211619,0.209476455 7.19786833,0 6.16871807,0 C4.84066816,0 3.71087416,0.297102659 2.77933607,0.891283669 C1.84758143,1.48563483 1.12863911,2.34201386 0.622509108,3.46039645 C0.207422835,4.3725354 0,5.33202409 0,6.33898407 C0,7.24266424 0.174267904,8.08465361 0.52277965,8.86453897 C0.800771002,9.47945373 1.21373998,10.023198 1.7614941,10.4958448 C2.3094407,10.9683457 2.97217843,11.3222048 3.75038098,11.5574709 C4.52836699,11.7927369 5.37807641,11.9103577 6.29948516,11.9103577 C7.29947448,11.9103577 8.15433277,11.779198 8.86386756,11.5171701 C9.57364295,11.2550207 10.1855896,10.8991684 10.7001407,10.4493701 C11.2147158,9.99954745 11.5778081,9.55791625 11.7894895,9.12459799 L10.6629677,9.12459799 C10.2977342,9.64457018 9.74791085,10.0862014 9.01344972,10.4493701 L9.01344972,10.4493701 Z M6.90317921,6.48436336 C6.75383765,6.90334058 6.56169304,7.24888679 6.32746716,7.5213423 C6.09300068,7.79365197 5.84698531,7.99904487 5.58970977,8.13722933 C5.33243424,8.27558394 5.08759782,8.34459109 4.85524864,8.34459109 C4.50673689,8.34459109 4.1974673,8.18781189 3.92772859,7.87422919 C3.65796582,7.56064648 3.52320474,7.12112997 3.52320474,6.55565536 C3.52320474,6.20065378 3.5895146,5.81069894 3.72239899,5.38554778 C3.85504278,4.96056677 4.03142798,4.59934264 4.25155459,4.30226429 C4.4714406,4.00513732 4.69864091,3.78946262 4.93310739,3.65536171 C5.16757387,3.52126081 5.41758323,3.4541982 5.68308734,3.4541982 C6.08571044,3.4541982 6.42695601,3.60900854 6.70706466,3.9185077 C6.98714925,4.22800685 7.12732387,4.6634155 7.12732387,5.22468503 C7.12729981,5.6456068 7.05254482,6.06553198 6.90317921,6.48436336 L6.90317921,6.48436336 Z" id="Shape"></path>
                            </g>
                        </g>
                    </g>
                </g>
            </g>
        </g>
    </g>
</svg>