<?xml version="1.0" encoding="UTF-8"?>
<svg width="26px" height="26px" viewBox="0 0 26 26" version="1.1" xmlns="http://www.w3.org/2000/svg" xmlns:xlink="http://www.w3.org/1999/xlink">
    <!-- Generator: Sketch 40.1 (33804) - http://www.bohemiancoding.com/sketch -->
    <title>facebook</title>
    <desc>Created with Sketch.</desc>
    <defs></defs>
    <g id="Page-1" stroke="none" stroke-width="1" fill="none" fill-rule="evenodd">
        <g id="Desktop" transform="translate(-87.000000, -45.000000)">
            <g id="Icons" transform="translate(2.000000, 4.000000)">
                <g id="Services" transform="translate(2.000000, 36.000000)">
                    <g id="facebook" transform="translate(84.000000, 6.000000)">
                        <ellipse id="Oval-2" stroke="#FFFFFF" stroke-width="2" fill="#FFFFFF" cx="12" cy="12" rx="12" ry="12"></ellipse>
                        <path d="M15.11625,7.992 L13.98675,7.99275 C13.101,7.99275 12.92925,8.4135 12.92925,9.03075 L12.92925,10.39275 L15.042,10.39275 L14.76675,12.5265 L12.92925,12.5265 L12.92925,18 L10.7265,18 L10.7265,12.5265 L8.8845,12.5265 L8.8845,10.39275 L10.7265,10.39275 L10.7265,8.82 C10.7265,6.99375 11.84175,6 13.47,6 C14.25,6 14.9205,6.05775 15.11625,6.084 L15.11625,7.992 Z M12,0 C5.373,0 0,5.37225 0,12 C0,18.627 5.373,24 12,24 C18.62775,24 24,18.627 24,12 C24,5.37225 18.62775,0 12,0 L12,0 Z" id="Fill-183" fill="#1D508C"></path>
                    </g>
                </g>
            </g>
        </g>
    </g>
</svg>