<?xml version="1.0" encoding="UTF-8"?>
<svg width="26px" height="26px" viewBox="0 0 26 26" version="1.1" xmlns="http://www.w3.org/2000/svg" xmlns:xlink="http://www.w3.org/1999/xlink">
    <!-- Generator: Sketch 40.1 (33804) - http://www.bohemiancoding.com/sketch -->
    <title>line</title>
    <desc>Created with Sketch.</desc>
    <defs></defs>
    <g id="Page-1" stroke="none" stroke-width="1" fill="none" fill-rule="evenodd">
        <g id="Desktop" transform="translate(-88.000000, -87.000000)">
            <g id="Icons" transform="translate(2.000000, 4.000000)">
                <g id="Services" transform="translate(2.000000, 36.000000)">
                    <g id="line" transform="translate(85.000000, 48.000000)">
                        <circle id="Oval-2" stroke="#FFFFFF" fill="#00C200" cx="12" cy="12" r="12"></circle>
                        <g id="Capa_1" transform="translate(4.800000, 5.600000)">
                            <g id="Group">
                                <g transform="translate(0.008636, 0.396172)" id="Shape">
                                    <path d="M14.3481091,6.44232057 C14.3811864,6.26856459 14.3975523,6.12236842 14.4050659,6.00769378 C14.4175023,5.81843541 14.4033386,5.53745455 14.3982864,5.44947847 C14.2234864,2.41755502 11.0691409,0.00198086124 7.20350455,0.00198086124 C3.22568182,0.00198086124 0.00107954545,2.55974641 0.00107954545,5.71491388 C0.00107954545,8.61498086 2.72533409,11.0102727 6.25471364,11.3787129 C6.47049318,11.4012344 6.62607727,11.595488 6.60215455,11.8104976 L6.45188182,13.1592919 C6.41776818,13.4654641 6.73524091,13.6882249 7.01346136,13.5543014 C9.99533864,12.1192105 11.7784023,10.642823 12.8431795,9.36374641 C13.0369364,9.13099522 13.6687295,8.24826316 13.7975409,8.01641627 C14.0709682,7.52421531 14.2594568,6.99566986 14.3481091,6.44232057 L14.3481091,6.44232057 Z" fill="#FFFFFF"></path>
                                    <path d="M3.24308409,6.87221053 L3.24308409,4.46580861 C3.24308409,4.26289952 3.07812955,4.09840191 2.87465682,4.09840191 L2.87465682,4.09840191 C2.67118409,4.09840191 2.50622955,4.26289952 2.50622955,4.46580861 L2.50622955,7.23961722 C2.50622955,7.44252632 2.67118409,7.60702392 2.87465682,7.60702392 L4.34832273,7.60702392 C4.55179545,7.60702392 4.71675,7.44252632 4.71675,7.23961722 L4.71675,7.23961722 C4.71675,7.03670813 4.55179545,6.87221053 4.34832273,6.87221053 L3.24308409,6.87221053 L3.24308409,6.87221053 Z" fill="#00C500"></path>
                                    <path d="M5.51565682,7.60702392 L5.35458864,7.60702392 C5.19559318,7.60702392 5.06669545,7.47848325 5.06669545,7.31992823 L5.06669545,4.38549761 C5.06669545,4.22694258 5.19559318,4.09840191 5.35458864,4.09840191 L5.51565682,4.09840191 C5.67465227,4.09840191 5.80355,4.22694258 5.80355,4.38549761 L5.80355,7.31992823 C5.80355,7.47848325 5.67465227,7.60702392 5.51565682,7.60702392 L5.51565682,7.60702392 Z" fill="#00C500"></path>
                                    <path d="M8.49291364,4.46580861 L8.49291364,6.16034928 C8.49291364,6.16034928 7.02157955,4.24653589 6.999125,4.22138756 C6.928825,4.14271292 6.82523182,4.094311 6.71023864,4.09866029 C6.50983182,4.10623923 6.35614773,4.28089952 6.35614773,4.48088038 L6.35614773,7.23957416 C6.35614773,7.44248325 6.52110227,7.60698086 6.724575,7.60698086 L6.724575,7.60698086 C6.92804773,7.60698086 7.09300227,7.44248325 7.09300227,7.23957416 L7.09300227,5.55532536 C7.09300227,5.55532536 8.58670455,7.48580383 8.60864091,7.50655981 C8.67380227,7.56805263 8.76133182,7.60611962 8.85792955,7.60698086 C9.062525,7.60883254 9.22976818,7.42835885 9.22976818,7.22433014 L9.22976818,4.46580861 C9.22976818,4.26289952 9.06481364,4.09840191 8.86134091,4.09840191 L8.86134091,4.09840191 C8.65786818,4.09844498 8.49291364,4.26289952 8.49291364,4.46580861 L8.49291364,4.46580861 Z" fill="#00C500"></path>
                                    <path d="M11.9928432,4.46580861 L11.9928432,4.46580861 C11.9928432,4.26289952 11.8278886,4.09840191 11.6244159,4.09840191 L10.15075,4.09840191 C9.94727727,4.09840191 9.78232273,4.26289952 9.78232273,4.46580861 L9.78232273,7.23961722 C9.78232273,7.44252632 9.94727727,7.60702392 10.15075,7.60702392 L11.6244159,7.60702392 C11.8278886,7.60702392 11.9928432,7.44252632 11.9928432,7.23961722 L11.9928432,7.23961722 C11.9928432,7.03670813 11.8278886,6.87221053 11.6244159,6.87221053 L10.5191773,6.87221053 L10.5191773,6.22007656 L11.6244159,6.22007656 C11.8278886,6.22007656 11.9928432,6.05557895 11.9928432,5.85266986 L11.9928432,5.85266986 C11.9928432,5.64976077 11.8278886,5.48526316 11.6244159,5.48526316 L10.5191773,5.48526316 L10.5191773,4.83312919 L11.6244159,4.83312919 C11.8278886,4.83321531 11.9928432,4.6687177 11.9928432,4.46580861 L11.9928432,4.46580861 Z" fill="#00C500"></path>
                                </g>
                            </g>
                        </g>
                    </g>
                </g>
            </g>
        </g>
    </g>
</svg>