<?xml version="1.0" encoding="UTF-8"?>
<svg width="26px" height="26px" viewBox="0 0 26 26" version="1.1" xmlns="http://www.w3.org/2000/svg" xmlns:xlink="http://www.w3.org/1999/xlink">
    <!-- Generator: Sketch 40.1 (33804) - http://www.bohemiancoding.com/sketch -->
    <title>linkedin</title>
    <desc>Created with Sketch.</desc>
    <defs></defs>
    <g id="Page-1" stroke="none" stroke-width="1" fill="none" fill-rule="evenodd">
        <g id="Desktop" transform="translate(-129.000000, -87.000000)">
            <g id="Icons" transform="translate(2.000000, 4.000000)">
                <g id="Services" transform="translate(2.000000, 36.000000)">
                    <g id="linkedin" transform="translate(126.000000, 48.000000)">
                        <g id="Capa_1">
                            <g id="Group">
                                <circle id="Oval-2" stroke="#FFFFFF" fill="#007AB9" cx="12" cy="12" r="12"></circle>
                                <path d="M19.0334867,12.9707368 L19.0334867,17.8397895 L16.1855575,17.8397895 L16.1855575,13.2970526 C16.1855575,12.1564211 15.7743717,11.3774737 14.7432212,11.3774737 C13.9563186,11.3774737 13.4888496,11.9018947 13.2824071,12.4096842 C13.2074336,12.5911579 13.1881062,12.8431579 13.1881062,13.0976842 L13.1881062,17.8395789 L10.3399646,17.8395789 C10.3399646,17.8395789 10.3781947,10.1456842 10.3399646,9.34926316 L13.1883186,9.34926316 L13.1883186,10.5524211 C13.1825841,10.5618947 13.1745133,10.5711579 13.1694159,10.5802105 L13.1883186,10.5802105 L13.1883186,10.5524211 C13.5667965,9.97515789 14.2417699,9.14989474 15.7550442,9.14989474 C17.6287434,9.14989474 19.0334867,10.3633684 19.0334867,12.9707368 L19.0334867,12.9707368 L19.0334867,12.9707368 Z M7.36056637,5.25663158 C6.38633628,5.25663158 5.74895575,5.89052632 5.74895575,6.72336842 C5.74895575,7.53852632 6.36785841,8.19073684 7.32318584,8.19073684 L7.34166372,8.19073684 C8.33500885,8.19073684 8.95263717,7.53852632 8.95263717,6.72336842 C8.93373451,5.89052632 8.33500885,5.25663158 7.36056637,5.25663158 L7.36056637,5.25663158 L7.36056637,5.25663158 Z M5.91823009,17.8397895 L8.76530973,17.8397895 L8.76530973,9.34926316 L5.91823009,9.34926316 L5.91823009,17.8397895 L5.91823009,17.8397895 Z" id="Shape" fill="#F1F2F2"></path>
                            </g>
                        </g>
                    </g>
                </g>
            </g>
        </g>
    </g>
</svg>