<?xml version="1.0" encoding="UTF-8"?>
<svg width="26px" height="26px" viewBox="0 0 26 26" version="1.1" xmlns="http://www.w3.org/2000/svg" xmlns:xlink="http://www.w3.org/1999/xlink">
    <!-- Generator: Sketch 40.1 (33804) - http://www.bohemiancoding.com/sketch -->
    <title>skype</title>
    <desc>Created with Sketch.</desc>
    <defs></defs>
    <g id="Page-1" stroke="none" stroke-width="1" fill="none" fill-rule="evenodd">
        <g id="Desktop" transform="translate(-171.000000, -45.000000)">
            <g id="Icons" transform="translate(2.000000, 4.000000)">
                <g id="Services" transform="translate(2.000000, 36.000000)">
                    <g id="skype" transform="translate(168.000000, 6.000000)">
                        <ellipse id="Oval-2" fill="#FFFFFF" cx="12" cy="12" rx="12" ry="12"></ellipse>
                        <g fill="#1EB8FF">
                            <path d="M12.8577222,11.2935 L11.5427787,10.9995 C11.0426982,10.884 10.4667128,10.7325 10.4667128,10.257 C10.4667128,9.7815 10.8707956,9.4485 11.6000795,9.4485 C13.0690657,9.4485 12.9351156,10.46625 13.6643996,10.46625 C14.0483899,10.46625 14.3847535,10.23825 14.3847535,9.8475 C14.3847535,8.93475 12.9351156,8.25 11.7057513,8.25 C10.3707152,8.25 8.94935569,8.82075 8.94935569,10.3425 C8.94935569,11.07525 9.20907007,11.85525 10.6393596,12.21675 L12.416431,12.66375 C12.9537198,12.79725 13.0884141,13.10175 13.0884141,13.377 C13.0884141,13.83375 12.6374487,14.28075 11.8210972,14.28075 C10.2263467,14.28075 10.4473644,13.044 9.59306038,13.044 C9.20907007,13.044 8.93000734,13.31025 8.93000734,13.69125 C8.93000734,14.433 9.82375224,15.42225 11.8210972,15.42225 C13.7217004,15.42225 14.663072,14.499 14.663072,13.263 C14.663072,12.46425 14.2984301,11.61675 12.8577222,11.2935" id="Fill-220"></path>
                            <path d="M16.8851555,17.00325 C16.2563342,17.637 15.4213785,17.98575 14.5320986,17.98575 C13.9561131,17.98575 13.3927785,17.835 12.8949306,17.55075 C12.5712178,17.6085 12.2400634,17.63925 11.9096531,17.63925 C11.1506025,17.63925 10.4146211,17.48925 9.72180132,17.193 C9.0513066,16.908 8.45076361,16.49925 7.93356735,15.97875 C7.41785943,15.459 7.01228826,14.853 6.7295047,14.178 C6.43630279,13.479 6.28746933,12.73725 6.28746933,11.97225 C6.28746933,11.6445 6.31649186,11.31675 6.3723044,10.99575 C6.09845084,10.5 5.95333822,9.93975 5.95333822,9.369 C5.95333822,8.4735 6.29937601,7.6305 6.92819736,6.9975 C7.55701871,6.363 8.39271856,6.01425 9.28199846,6.01425 C9.82672891,6.01425 10.3640177,6.1515 10.8425172,6.408 C10.8440056,6.40725 10.8447497,6.40725 10.8447497,6.40725 C11.1937642,6.33975 11.5524528,6.306 11.9096531,6.306 C12.6687037,6.306 13.4054293,6.456 14.0982491,6.7515 C14.7672555,7.0365 15.3692868,7.44525 15.8849947,7.96575 C16.4014468,8.4855 16.807018,9.0915 17.0898015,9.7665 C17.3837476,10.46475 17.5325811,11.20725 17.5325811,11.97225 C17.5325811,12.31725 17.4998377,12.66225 17.438816,12.999 C17.7141579,13.497 17.8600147,14.0595 17.8600147,14.631 C17.8600147,15.52725 17.5139769,16.37025 16.8851555,17.00325 M11.9066764,0 C5.33047021,0 0,5.373 0,12 C0,18.62775 5.33047021,24 11.9066764,24 C18.4828827,24 23.8133529,18.62775 23.8133529,12 C23.8133529,5.373 18.4828827,0 11.9066764,0" id="Fill-221" stroke="#FFFFFF"></path>
                        </g>
                    </g>
                </g>
            </g>
        </g>
    </g>
</svg>