<?xml version="1.0" encoding="UTF-8"?>
<svg width="27px" height="27px" viewBox="0 0 27 27" version="1.1" xmlns="http://www.w3.org/2000/svg" xmlns:xlink="http://www.w3.org/1999/xlink">
    <!-- Generator: Sketch 40.1 (33804) - http://www.bohemiancoding.com/sketch -->
    <title>SMS</title>
    <desc>Created with Sketch.</desc>
    <defs>
        <path d="M12.8585781,24.5656849 C19.4859951,24.5656849 24.8585781,19.1931019 24.8585781,12.5656849 C24.8585781,5.93826789 19.4859951,0.565684885 12.8585781,0.565684885 C6.23116111,0.565684885 0.858578104,5.93826789 0.858578104,12.5656849 C0.858578104,19.1931019 6.23116111,24.5656849 12.8585781,24.5656849 Z" id="path-1"></path>
        <mask id="mask-2" maskContentUnits="userSpaceOnUse" maskUnits="objectBoundingBox" x="-1" y="-1" width="26" height="26">
            <rect x="-0.141421896" y="-0.434315115" width="26" height="26" fill="white"></rect>
            <use xlink:href="#path-1" fill="black"></use>
        </mask>
    </defs>
    <g id="Page-1" stroke="none" stroke-width="1" fill="none" fill-rule="evenodd">
        <g id="Desktop" transform="translate(-338.000000, -45.000000)">
            <g id="Icons" transform="translate(2.000000, 4.000000)">
                <g id="Services" transform="translate(2.000000, 36.000000)">
                    <g id="SMS" transform="translate(347.263456, 17.970563) rotate(45.000000) translate(-347.263456, -17.970563) translate(334.763456, 5.470563)">
                        <g id="Oval">
                            <use fill="#66A1E5" fill-rule="evenodd" xlink:href="#path-1"></use>
                            <use stroke="#FFFFFF" mask="url(#mask-2)" stroke-width="2" xlink:href="#path-1"></use>
                        </g>
                        <g id="speech-bubble" transform="translate(12.986075, 12.086580) rotate(-45.000000) translate(-12.986075, -12.086580) translate(4.986075, 5.086580)" fill="#FFFFFF">
                            <g id="Capa_1" transform="translate(-0.000000, -0.000000)">
                                <g id="Group" transform="translate(0.000000, -0.000000)">
                                    <path d="M1.83147164,13.9654803 C1.54314513,13.9654803 1.26350315,13.9174842 0.999686314,13.8228917 L0.398909577,13.607509 L0.860540787,13.1545453 C1.47154597,12.5549934 1.62574469,11.8634488 1.63578015,11.3454904 C0.579740866,10.1321876 1.12798659e-13,8.61850901 1.12798659e-13,7.06603348 C-0.000192989636,3.26173849 3.40510914,0.166586644 7.59066836,0.166586644 C11.7762276,0.166586644 15.1817227,3.26173849 15.1817227,7.06603348 C15.1817227,10.8701285 11.7762276,13.9650803 7.59066836,13.9650803 C6.34453428,13.9650803 5.1151903,13.6853028 4.01958814,13.1537454 C3.60678331,13.4567211 2.77287509,13.9654803 1.83147164,13.9654803 L1.83147164,13.9654803 Z M3.929076,12.2146207 L4.1506281,12.3308114 C5.19219317,12.8765676 6.38178128,13.1653445 7.59047537,13.1653445 C11.3504924,13.1653445 14.4095712,10.4291638 14.4095712,7.06623346 C14.4095712,3.70290312 11.3504924,0.966722493 7.59047537,0.966722493 C3.83045829,0.966722493 0.771572564,3.70290312 0.771572564,7.06603348 C0.771572564,8.46372142 1.3146454,9.83021186 2.30101543,10.913525 L2.40137004,11.0237162 L2.40600179,11.175104 C2.42298488,11.7188604 2.32880594,12.4562013 1.86234999,13.1651445 C2.75627798,13.1503457 3.57802785,12.5055974 3.73512141,12.3754078 L3.929076,12.2146207 L3.929076,12.2146207 Z" id="Shape" transform="translate(7.590861, 7.066033) scale(-1, 1) translate(-7.590861, -7.066033) "></path>
                                    <path d="M3.90881209,8.95308218 C3.62569629,8.95308218 3.39584563,8.93008403 3.21829517,8.88388773 C3.04113068,8.8380914 2.91858226,8.79089519 2.85122888,8.74289904 C2.83424579,8.72530045 2.82787714,8.68510367 2.83192992,8.62150877 C2.8359827,8.55851382 2.84563218,8.49251911 2.86049238,8.42492453 C2.8751596,8.35732995 2.89426557,8.29653482 2.91742433,8.24473898 C2.94058308,8.19234318 2.9625839,8.16794513 2.98400575,8.17254476 C3.09381685,8.21194161 3.21308445,8.25033853 3.34180854,8.28733556 C3.47053262,8.32433259 3.63418783,8.3429311 3.83258118,8.3429311 C4.03541329,8.3429311 4.20717406,8.31273352 4.34902145,8.25113846 C4.49028986,8.18974339 4.56131005,8.08035216 4.56131005,7.92296477 C4.56131005,7.78677569 4.51460655,7.67658453 4.42177854,7.59139136 C4.32895052,7.50619819 4.16201449,7.41520548 3.92135641,7.31941316 C3.79031645,7.26641741 3.66699607,7.20862205 3.55081631,7.14502715 C3.43444356,7.08183221 3.33235204,7.00723819 3.24357681,6.92184504 C3.15480158,6.83665187 3.08532531,6.73486003 3.03456904,6.61686949 C2.98381276,6.49887895 2.95833813,6.35869019 2.95833813,6.19670318 C2.95833813,6.0655137 2.98284781,5.9407237 3.03128821,5.82253318 C3.07972861,5.70434265 3.15480158,5.60255081 3.25612114,5.51735764 C3.3574407,5.43216448 3.48732272,5.36416993 3.64576721,5.31397395 C3.8042117,5.26357799 3.99314856,5.23838001 4.21277076,5.23838001 C4.35616206,5.23838001 4.47562265,5.24177974 4.57057355,5.24817923 C4.66552445,5.2547787 4.74349226,5.26357799 4.80505596,5.27457711 C4.86604068,5.28557623 4.91583201,5.29757527 4.95385096,5.31077421 C4.99186992,5.32397315 5.027766,5.33477228 5.06153918,5.34357158 C5.0910666,5.35657054 5.1059268,5.39496746 5.1059268,5.45836237 C5.1059268,5.52175729 5.09724226,5.58955186 5.08045217,5.66194605 C5.06366207,5.73394028 5.04031032,5.79753518 5.0109759,5.8521308 C4.98125549,5.90692641 4.95172808,5.92992457 4.92220066,5.92112527 C4.85040852,5.89932702 4.7521768,5.87532894 4.62769848,5.84913104 C4.50302718,5.82273316 4.38182968,5.8097342 4.26352704,5.8097342 C4.02267597,5.8097342 3.85709086,5.84493138 3.76638573,5.91472579 C3.67548762,5.98472017 3.63013505,6.07871264 3.63013505,6.19690316 C3.63013505,6.32389298 3.68089133,6.42568482 3.78221089,6.50207869 C3.88353044,6.57847257 4.04197493,6.65626633 4.25715838,6.73506002 C4.59913601,6.87504879 4.85156646,7.0358359 5.01406373,7.21742134 C5.176561,7.39900678 5.25800263,7.62758846 5.25800263,7.90336635 C5.25800263,8.10914985 5.21998367,8.27993615 5.14413875,8.41572527 C5.06790784,8.5513144 4.96658828,8.65870579 4.83998708,8.73689952 C4.71338588,8.81609317 4.56864365,8.87168871 4.40614638,8.90448608 C4.24345611,8.9366835 4.07767802,8.95308218 3.90881209,8.95308218 L3.90881209,8.95308218 Z" id="Shape"></path>
                                    <path d="M8.47552584,8.92028481 C8.3869436,8.92028481 8.32885372,8.90508603 8.30164218,8.8742885 C8.27385167,8.84389094 8.26053539,8.78489567 8.26053539,8.69690272 L8.26053539,6.3996869 C8.09166946,6.6840641 7.96140145,6.90384648 7.87050333,7.05923402 C7.77941222,7.21482155 7.71360276,7.32861243 7.67114504,7.40080664 C7.62888031,7.47260088 7.60340568,7.51559744 7.59472114,7.52859639 C7.58642259,7.54179533 7.5825628,7.55079461 7.5825628,7.55519426 C7.54473683,7.620789 7.51810426,7.66338559 7.50343705,7.683184 C7.48838385,7.70338238 7.4576985,7.71258164 7.41138099,7.71258164 L7.31006143,7.71258164 C7.25525237,7.71258164 7.21916331,7.70278243 7.20237321,7.683184 C7.18558311,7.66338559 7.16010848,7.620789 7.1263353,7.55519426 L6.480206,6.41328581 L6.480206,8.73689952 C6.480206,8.79389495 6.4707495,8.83889134 6.45164353,8.87168871 C6.43273054,8.90448608 6.38313221,8.92088477 6.30284852,8.92088477 L6.03710179,8.92088477 C5.97785397,8.92088477 5.92632574,8.91108555 5.88174513,8.89128714 C5.83755051,8.87168871 5.81516371,8.80729387 5.81516371,8.69750268 L5.81516371,5.54675529 C5.81516371,5.45916231 5.83098886,5.40116696 5.86263916,5.37276924 C5.89428946,5.34437151 5.93964203,5.33017265 5.99888984,5.33017265 L6.31558584,5.33017265 C6.36190335,5.33017265 6.40108024,5.33657214 6.43273054,5.34977108 C6.46438085,5.36297002 6.49699609,5.39576739 6.53096227,5.44816319 L7.37316904,6.83965163 L8.2155688,5.46136213 C8.24104343,5.413166 8.27134281,5.37936871 8.30781785,5.3595703 C8.34390691,5.33977188 8.37825906,5.33017265 8.41222524,5.33017265 L8.76076452,5.33017265 C8.84104821,5.33017265 8.88717273,5.34757126 8.90029603,5.38256845 C8.91303335,5.41776563 8.91920901,5.47456108 8.91920901,5.55335476 L8.91920901,8.72970009 C8.91920901,8.79529484 8.91091046,8.84369096 8.89392737,8.87448849 C8.87694428,8.90528602 8.8283109,8.92028481 8.74841319,8.92028481 L8.47552584,8.92028481 L8.47552584,8.92028481 L8.47552584,8.92028481 Z" id="Shape"></path>
                                    <path d="M10.5850956,8.95308218 C10.3017868,8.95308218 10.0721291,8.93008403 9.89457863,8.88388773 C9.71741415,8.8380914 9.59467274,8.79089519 9.52751235,8.74289904 C9.51052926,8.72530045 9.5041606,8.68510367 9.50821338,8.62150877 C9.51226617,8.55851382 9.52152967,8.49251911 9.53658286,8.42492453 C9.55125007,8.35732995 9.57016306,8.29653482 9.5935148,8.24473898 C9.61648057,8.19214319 9.63848139,8.16794513 9.66009623,8.17254476 C9.76990733,8.21194161 9.88936791,8.25033853 10.017899,8.28733556 C10.1464301,8.32453258 10.3100853,8.3429311 10.5086717,8.3429311 C10.7115038,8.3429311 10.8830715,8.31273352 11.0251119,8.25113846 C11.1661873,8.18974339 11.2375935,8.08035216 11.2375935,7.92296477 C11.2375935,7.78677569 11.19089,7.67658453 11.097869,7.59139136 C11.004848,7.50619819 10.838105,7.41520548 10.5972539,7.31941316 C10.4662139,7.26641741 10.3430865,7.20862205 10.2267138,7.14502715 C10.110341,7.08183221 10.0082495,7.00723819 9.91928131,6.92184504 C9.83069906,6.83665187 9.7612228,6.73486003 9.71046652,6.61686949 C9.65951726,6.49867897 9.63423562,6.35869019 9.63423562,6.19670318 C9.63423562,6.0655137 9.6587453,5.9407237 9.70699271,5.82253318 C9.7556261,5.70434265 9.83069906,5.60255081 9.93201862,5.51735764 C10.0333382,5.43216448 10.1630272,5.36416993 10.3214717,5.31397395 C10.4801092,5.26357799 10.669239,5.23838001 10.8884753,5.23838001 C11.0320595,5.23838001 11.1515201,5.24177974 11.246278,5.24817923 C11.3412289,5.2547787 11.4191968,5.26357799 11.4809534,5.27457711 C11.5417452,5.28557623 11.5915365,5.29757527 11.6297485,5.31077421 C11.6675744,5.32377317 11.7036635,5.33477228 11.7376297,5.34357158 C11.7669641,5.35657054 11.7818243,5.39496746 11.7818243,5.45836237 C11.7818243,5.52175729 11.7731398,5.58955186 11.7561567,5.66194605 C11.7395596,5.73394028 11.7162078,5.79753518 11.6870664,5.8521308 C11.657346,5.90692641 11.6276256,5.92992457 11.5980982,5.92112527 C11.526499,5.89932702 11.4278813,5.87532894 11.303789,5.84913104 C11.1791177,5.82273316 11.0577272,5.8097342 10.9396175,5.8097342 C10.6987664,5.8097342 10.5329883,5.84493138 10.4424762,5.91472579 C10.3515781,5.98472017 10.3060325,6.07871264 10.3060325,6.19690316 C10.3060325,6.32389298 10.3569818,6.42568482 10.4583014,6.50207869 C10.5594279,6.57847257 10.7180654,6.65626633 10.9332489,6.73506002 C11.2750335,6.87504879 11.5276569,7.0358359 11.6901542,7.21742134 C11.8526515,7.39900678 11.9340931,7.62758846 11.9340931,7.90336635 C11.9340931,8.10914985 11.8960741,8.27993615 11.8202292,8.41572527 C11.7439983,8.5513144 11.6426788,8.65870579 11.5160776,8.73689952 C11.3894764,8.81609317 11.2447341,8.87168871 11.0822369,8.90448608 C10.9191606,8.9366835 10.7539615,8.95308218 10.5850956,8.95308218 L10.5850956,8.95308218 Z" id="Shape"></path>
                                </g>
                            </g>
                        </g>
                    </g>
                </g>
            </g>
        </g>
    </g>
</svg>