<?xml version="1.0" encoding="UTF-8"?>
<svg width="26px" height="26px" viewBox="0 0 26 26" version="1.1" xmlns="http://www.w3.org/2000/svg" xmlns:xlink="http://www.w3.org/1999/xlink">
    <!-- Generator: Sketch 40.1 (33804) - http://www.bohemiancoding.com/sketch -->
    <title>telegram</title>
    <desc>Created with Sketch.</desc>
    <defs></defs>
    <g id="Page-1" stroke="none" stroke-width="1" fill="none" fill-rule="evenodd">
        <g id="Desktop" transform="translate(-46.000000, -87.000000)">
            <g id="Icons" transform="translate(2.000000, 4.000000)">
                <g id="Services" transform="translate(2.000000, 36.000000)">
                    <g id="telegram" transform="translate(43.000000, 48.000000)">
                        <circle id="Oval-2" stroke="#FFFFFF" fill="#61A8DE" cx="12" cy="12" r="12"></circle>
                        <g id="Capa_1" transform="translate(4.800000, 6.400000)" fill="#FFFFFF">
                            <g id="Group">
                                <path d="M12.1856934,0.371052632 L0.330313501,5.05890789 C-0.0536842105,5.21076316 -0.0304210526,5.76990789 0.364858124,5.88832895 L3.37743707,6.79101316 L4.50173227,10.4109868 C4.6191762,10.7891053 5.09140275,10.9037368 5.3647643,10.6205132 L6.92234554,9.00675 L9.97845538,11.283 C10.3524554,11.5615658 10.8850961,11.3546053 10.9800549,10.8938289 L13.0041442,1.07435526 C13.1032654,0.593368421 12.636913,0.192631579 12.1856934,0.371052632 L12.1856934,0.371052632 Z M10.699341,2.55023684 L5.19258581,7.49147368 C5.13769565,7.54073684 5.10276201,7.60890789 5.09459268,7.68280263 L4.88257895,9.59522368 C4.87565446,9.65759211 4.78964302,9.66584211 4.77128146,9.60592105 L3.89899085,6.75382895 C3.8590389,6.62325 3.91112815,6.48177632 4.02561556,6.40973684 L10.528524,2.31726316 C10.6780618,2.22307895 10.8311785,2.43197368 10.699341,2.55023684 L10.699341,2.55023684 Z" id="Shape"></path>
                            </g>
                        </g>
                    </g>
                </g>
            </g>
        </g>
    </g>
</svg>