<?xml version="1.0" encoding="UTF-8"?>
<svg width="26px" height="26px" viewBox="0 0 26 26" version="1.1" xmlns="http://www.w3.org/2000/svg" xmlns:xlink="http://www.w3.org/1999/xlink">
    <!-- Generator: Sketch 40.1 (33804) - http://www.bohemiancoding.com/sketch -->
    <title>viber</title>
    <desc>Created with Sketch.</desc>
    <defs></defs>
    <g id="Page-1" stroke="none" stroke-width="1" fill="none" fill-rule="evenodd">
        <g id="Desktop" transform="translate(-3.000000, -87.000000)">
            <g id="Icons" transform="translate(2.000000, 4.000000)">
                <g id="Services" transform="translate(2.000000, 36.000000)">
                    <g id="viber" transform="translate(0.000000, 48.000000)">
                        <circle id="Oval-2" stroke="#FFFFFF" stroke-width="2" fill="#7D3DAF" cx="12" cy="12" r="12"></circle>
                        <path d="M12,0 C5.37225,0 0,5.37225 0,12 C0,18.627 5.37225,24 12,24 C18.62775,24 24,18.627 24,12 C24,5.37225 18.62775,0 12,0" id="Fill-184" fill="#7D3DAF"></path>
                        <g transform="translate(4.800000, 5.600000)" id="Group" fill="#FFFFFF">
                            <g>
                                <path d="M14.0671366,3.42597226 L14.0628594,3.40972281 C13.7168792,2.08132972 12.1571168,0.655891266 10.7247208,0.359338681 L10.7085624,0.356179064 C8.39173069,-0.0635985681 6.04258218,-0.0635985681 3.72622574,0.356179064 L3.70959208,0.359338681 C2.27767129,0.655891266 0.717908911,2.08132972 0.371453465,3.40972281 L0.367651485,3.42597226 C-0.0600712871,5.28111857 -0.0600712871,7.16244456 0.367651485,9.01759087 L0.371453465,9.03384033 C0.703128713,10.3055409 2.14674059,11.665485 3.52567129,12.0394933 L3.52567129,13.5223465 C3.52567129,14.05903 4.21430495,14.3226323 4.60590891,13.9353535 L6.1877703,12.3736453 C6.53085149,12.3918808 6.87412277,12.4020367 7.21739406,12.4020367 C8.38365149,12.4020367 9.55038416,12.297318 10.7085624,12.0874292 L10.7247208,12.0842696 C12.1571168,11.787717 13.7168792,10.3622786 14.0628594,9.03388547 L14.0671366,9.01763601 C14.4948594,7.16244456 14.4948594,5.28111857 14.0671366,3.42597226 L14.0671366,3.42597226 Z M12.8153347,8.74857209 C12.5843644,9.61520978 11.4000475,10.692639 10.4590574,10.8916949 C9.22716832,11.114177 7.98553663,11.2092815 6.74514059,11.1766472 C6.72047525,11.1760152 6.6967604,11.1850879 6.67955644,11.201879 C6.50352475,11.3734913 5.52456238,12.3279663 5.52456238,12.3279663 L4.29604752,13.525461 C4.20622574,13.6143816 4.04844356,13.5538975 4.04844356,13.4311239 L4.04844356,10.9746574 C4.04844356,10.9340789 4.01793267,10.8995939 3.97596832,10.8917852 C3.97573069,10.89174 3.97549307,10.8916949 3.97525545,10.8916497 C3.03426535,10.6925939 1.85042376,9.61516465 1.61897822,8.74852695 C1.23402772,7.07167329 1.23402772,5.37179957 1.61897822,3.69494591 C1.85042376,2.82830822 3.03426535,1.75087896 3.97525545,1.55182312 C6.12670099,1.16319028 8.30808713,1.16319028 10.4590574,1.55182312 C11.4005228,1.75087896 12.5843644,2.82830822 12.8153347,3.69494591 C13.2007129,5.37184471 13.2007129,7.07171843 12.8153347,8.74857209 L12.8153347,8.74857209 Z" id="Shape"></path>
                                <path d="M9.26433267,9.88246821 C9.11966733,9.84076127 8.98179802,9.81273096 8.85376634,9.76226737 C7.52706535,9.23948623 6.30605941,8.5650435 5.33888317,7.53117182 C4.78887921,6.94325745 4.3584,6.27951228 3.99450297,5.57708437 C3.82194059,5.24397051 3.67651485,4.89781194 3.52828515,4.55391025 C3.39312475,4.24029573 3.59220594,3.91629962 3.80183762,3.68000544 C3.99854257,3.45824549 4.25165941,3.28852894 4.52578218,3.16345326 C4.73973861,3.06582111 4.95079604,3.12210742 5.10705743,3.29435166 C5.44486337,3.66673505 5.75515248,4.05816641 6.00641584,4.48981517 C6.16091881,4.75531324 6.11852673,5.079851 5.83851089,5.26053593 C5.77045545,5.3044546 5.70843564,5.35600149 5.64503762,5.40560747 C5.58943366,5.44907476 5.53710891,5.49299343 5.49899406,5.55185258 C5.42932277,5.65955037 5.42599604,5.78656695 5.47085941,5.90365332 C5.81617426,6.80495652 6.3982099,7.50580461 7.35336238,7.88328852 C7.50620198,7.94368233 7.65970693,8.01400637 7.83578614,7.99450702 C8.13067723,7.96178242 8.22615446,7.65457742 8.43279208,7.49406889 C8.63477228,7.3372165 8.89287921,7.33514018 9.11044752,7.46590317 C9.32806337,7.5967113 9.53902574,7.73713368 9.74870495,7.87904561 C9.95453465,8.01833956 10.1594614,8.15460931 10.3493228,8.31340261 C10.5318653,8.46610237 10.5947406,8.66642206 10.4919446,8.87364777 C10.3037465,9.25316286 10.0299089,9.56889883 9.63488317,9.77043723 C9.52334257,9.82726519 9.39013069,9.84568124 9.26433267,9.88246821 C9.11966733,9.84071613 9.39013069,9.84568124 9.26433267,9.88246821 L9.26433267,9.88246821 Z" id="Shape"></path>
                                <path d="M7.22100594,2.72950249 C8.95637228,2.77567803 10.3816871,3.86949216 10.6871287,5.49895157 C10.7391683,5.77659159 10.757703,6.06046057 10.7808475,6.34225324 C10.7905901,6.460784 10.7199208,6.57340176 10.5852356,6.57493643 C10.4461307,6.57651624 10.3835406,6.46597479 10.3745109,6.34748917 C10.3566416,6.11295535 10.3442376,5.87738336 10.3102099,5.64479044 C10.1305663,4.41700858 9.09975446,3.40123698 7.81302178,3.18326857 C7.61940594,3.1504537 7.42122772,3.14183246 7.22509307,3.12228797 C7.10110099,3.10992033 6.93870891,3.10278862 6.9112396,2.9564081 C6.8881901,2.83367957 6.99725941,2.73595714 7.12030099,2.72968304 C7.15375842,2.72792269 7.18740594,2.72936708 7.22100594,2.72950249 C8.95637228,2.77567803 7.18740594,2.72936708 7.22100594,2.72950249 L7.22100594,2.72950249 Z" id="Shape"></path>
                                <path d="M9.8582495,5.97650505 C9.85539802,5.99708769 9.85387723,6.04547496 9.84118812,6.09106372 C9.79513663,6.25653735 9.53099406,6.27725541 9.47016238,6.1102471 C9.4521505,6.06068626 9.44944158,6.00430967 9.44934653,5.95095729 C9.44872871,5.6018648 9.3688396,5.2531334 9.18349307,4.94940397 C8.99296634,4.63723385 8.70187723,4.37480513 8.36045941,4.21601182 C8.15401188,4.12000462 7.93074059,4.060333 7.70447525,4.02476474 C7.60557624,4.00923749 7.50563168,3.99980377 7.40625743,3.9866688 C7.2858297,3.97078044 7.22152871,3.89788357 7.22723168,3.78517553 C7.23255446,3.67955406 7.31382178,3.60358785 7.4350099,3.61008764 C7.83326733,3.63157303 8.21793267,3.71331682 8.57199208,3.89138379 C9.29199208,4.25352099 9.70327129,4.82514076 9.82331881,5.58841386 C9.82873663,5.62298909 9.83748119,5.65724836 9.84023762,5.69195901 C9.84703366,5.77767489 9.85131089,5.86348105 9.8582495,5.97650505 C9.85539802,5.99708769 9.85131089,5.86348105 9.8582495,5.97650505 L9.8582495,5.97650505 Z" id="Shape"></path>
                                <path d="M8.77886733,5.9366036 C8.63367921,5.93908616 8.55597624,5.86275885 8.54100594,5.73632905 C8.53059802,5.64817575 8.52237624,5.55884887 8.5002297,5.47308785 C8.45660198,5.30418378 8.36207525,5.14764734 8.21246733,5.04414733 C8.14184554,4.99526355 8.06181386,4.95965016 7.9779802,4.93667523 C7.87147723,4.90747134 7.76088713,4.9155058 7.65462178,4.89077051 C7.53923168,4.86391377 7.47540594,4.77517368 7.4935604,4.67235073 C7.51005149,4.57878094 7.60590891,4.50574866 7.71355248,4.51315119 C8.3863604,4.5592816 8.86721584,4.88964208 8.93584158,5.64190165 C8.94068911,5.69498321 8.94639208,5.75108897 8.93398812,5.80186852 C8.91274455,5.88880312 8.84497426,5.93236069 8.77886733,5.9366036 C8.63367921,5.93908616 8.84497426,5.93236069 8.77886733,5.9366036 L8.77886733,5.9366036 Z" id="Shape"></path>
                            </g>
                        </g>
                    </g>
                </g>
            </g>
        </g>
    </g>
</svg>