<?xml version="1.0" encoding="UTF-8"?>
<svg width="26px" height="26px" viewBox="0 0 26 26" version="1.1" xmlns="http://www.w3.org/2000/svg" xmlns:xlink="http://www.w3.org/1999/xlink">
    <!-- Generator: Sketch 40.1 (33804) - http://www.bohemiancoding.com/sketch -->
    <title>vk</title>
    <desc>Created with Sketch.</desc>
    <defs></defs>
    <g id="Page-1" stroke="none" stroke-width="1" fill="none" fill-rule="evenodd">
        <g id="Desktop" transform="translate(-171.000000, -87.000000)">
            <g id="Icons" transform="translate(2.000000, 4.000000)">
                <g id="Services" transform="translate(2.000000, 36.000000)">
                    <g id="vk" transform="translate(168.000000, 48.000000)">
                        <g id="Capa_1">
                            <g id="Group">
                                <circle id="XMLID_11_" stroke="#FFFFFF" fill="#4D76A1" cx="12" cy="12" r="12"></circle>
                                <path d="M11.4645664,17.1402478 L12.3997168,17.1402478 C12.3997168,17.1402478 12.6821947,17.1092389 12.8264071,16.9537699 C12.9591504,16.8110442 12.9549027,16.5430088 12.9549027,16.5430088 C12.9549027,16.5430088 12.9366372,15.2882124 13.5190088,15.1034336 C14.0930973,14.9214159 14.8303009,16.316177 15.6116814,16.8524602 C16.2025487,17.2583363 16.6515398,17.1693451 16.6515398,17.1693451 L18.7408142,17.1402478 C18.7408142,17.1402478 19.8337699,17.0729204 19.3155398,16.2135929 C19.2730619,16.143292 19.0137345,15.5779115 17.7621239,14.4161416 C16.4521062,13.2002124 16.6275398,13.396885 18.2055929,11.2935929 C19.1666549,10.0126726 19.5508673,9.23065487 19.4308673,8.89571681 C19.3163894,8.57670796 18.6095575,8.66102655 18.6095575,8.66102655 L16.2571327,8.67568142 C16.2571327,8.67568142 16.0827611,8.65189381 15.9534159,8.72920354 C15.8270442,8.80502655 15.7456991,8.98173451 15.7456991,8.98173451 C15.7456991,8.98173451 15.3733805,9.97295575 14.8768142,10.8159292 C13.8293097,12.5946903 13.4104779,12.6885664 13.239292,12.5781239 C12.8410619,12.320708 12.9404602,11.544 12.9404602,10.9922124 C12.9404602,9.26846018 13.2019115,8.54973451 12.4313628,8.36368142 C12.175646,8.30187611 11.987469,8.26109735 11.3335221,8.25451327 C10.4941593,8.24580531 9.78371681,8.25706195 9.38145133,8.45415929 C9.11384071,8.58520354 8.90739823,8.87723894 9.03313274,8.8940177 C9.18860177,8.91483186 9.54074336,8.98895575 9.72743363,9.24318584 C9.96849558,9.57111504 9.96,10.3076814 9.96,10.3076814 C9.96,10.3076814 10.0984779,12.3368496 9.63653097,12.5889558 C9.31943363,12.7618407 8.88446018,12.4088496 7.95058407,10.795115 C7.4720708,9.96849558 7.11079646,9.05479646 7.11079646,9.05479646 C7.11079646,9.05479646 7.04113274,8.8840354 6.91688496,8.79270796 C6.7660885,8.6820531 6.55539823,8.64679646 6.55539823,8.64679646 L4.32,8.66145133 C4.32,8.66145133 3.98442478,8.67079646 3.86123894,8.81670796 C3.75164602,8.94647788 3.85253097,9.21493805 3.85253097,9.21493805 C3.85253097,9.21493805 5.60261947,13.3093805 7.58421239,15.3727434 C9.40120354,17.2644956 11.4645664,17.1402478 11.4645664,17.1402478 L11.4645664,17.1402478 L11.4645664,17.1402478 Z" id="Shape" fill="#FFFFFF"></path>
                            </g>
                        </g>
                    </g>
                </g>
            </g>
        </g>
    </g>
</svg>