<?xml version="1.0" encoding="UTF-8"?>
<svg width="26px" height="26px" viewBox="0 0 26 26" version="1.1" xmlns="http://www.w3.org/2000/svg" xmlns:xlink="http://www.w3.org/1999/xlink">
    <!-- Generator: Sketch 40.1 (33804) - http://www.bohemiancoding.com/sketch -->
    <title>whatsapp</title>
    <desc>Created with Sketch.</desc>
    <defs></defs>
    <g id="Page-1" stroke="none" stroke-width="1" fill="none" fill-rule="evenodd">
        <g id="Desktop" transform="translate(-46.000000, -45.000000)">
            <g id="Icons" transform="translate(2.000000, 4.000000)">
                <g id="Services" transform="translate(2.000000, 36.000000)">
                    <g id="whatsapp" transform="translate(43.000000, 6.000000)">
                        <ellipse id="Oval-2" stroke="#FFFFFF" stroke-width="2" fill="#FFFFFF" cx="12" cy="12" rx="12" ry="12"></ellipse>
                        <g fill="#4A9C25">
                            <path d="M14.934975,14.071125 C14.811225,14.418375 14.217225,14.734875 13.931475,14.777625 C13.675725,14.815875 13.351725,14.831625 12.995475,14.719125 C12.779475,14.650125 12.502725,14.558625 12.148725,14.405625 C10.657725,13.762125 9.683475,12.261375 9.609225,12.162375 C9.534975,12.063375 9.002475,11.356875 9.002475,10.625625 C9.002475,9.894375 9.386475,9.534375 9.522975,9.385875 C9.658725,9.237375 9.819975,9.199875 9.918975,9.199875 C10.017975,9.199875 10.116975,9.200625 10.203975,9.205125 C10.295475,9.209625 10.417725,9.170625 10.538475,9.460125 C10.662225,9.757875 10.959225,10.489125 10.996725,10.563375 C11.033475,10.637625 11.058225,10.724625 11.008725,10.823625 C10.959225,10.922625 10.934475,10.984875 10.860225,11.071875 C10.785975,11.158125 10.704225,11.265375 10.637475,11.332125 C10.563225,11.405625 10.485225,11.486625 10.572225,11.635125 C10.659225,11.783625 10.956975,12.270375 11.398725,12.664125 C11.966475,13.170375 12.445725,13.327125 12.594225,13.402125 C12.742725,13.476375 12.829725,13.463625 12.915975,13.364625 C13.002975,13.265625 13.287975,12.931125 13.386975,12.781875 C13.485975,12.633375 13.584975,12.658125 13.721475,12.707625 C13.857225,12.757125 14.588475,13.116375 14.736975,13.191375 C14.885475,13.265625 14.984475,13.302375 15.021975,13.364625 C15.058725,13.426875 15.058725,13.723875 14.934975,14.071125 M12.027225,7.004625 C9.300225,7.004625 7.081725,9.221625 7.080975,11.946375 C7.080975,12.880125 7.341975,13.789875 7.836975,14.576625 L7.954725,14.763375 L7.455225,16.587375 L9.326475,16.096875 L9.506475,16.203375 C10.265475,16.654125 11.135475,16.892625 12.022725,16.892625 L12.024975,16.892625 C14.749725,16.892625 16.967475,14.675625 16.968975,11.950125 C16.968975,10.629375 16.455975,9.388125 15.522225,8.453625 C14.588475,7.519875 13.347225,7.004625 12.027225,7.004625" id="Fill-232"></path>
                            <path d="M12.02505,17.896875 L12.0228,17.896875 C11.0268,17.896875 10.0488,17.647125 9.1803,17.173125 L6.02655,18.000375 L6.87105,14.918625 C6.35055,14.017125 6.07605,12.994125 6.0768,11.945625 C6.0783,8.667375 8.74605,6.000375 12.02505,6.000375 C13.6158,6.000375 15.1098,6.619875 16.23255,7.744125 C17.3553,8.867625 17.97405,10.361625 17.9733,11.950875 C17.9718,15.229125 15.3033,17.896875 12.02505,17.896875 M12.0003,0.000375 C5.37255,0.000375 0.0003,5.372625 0.0003,12.000375 C0.0003,18.627375 5.37255,24.000375 12.0003,24.000375 C18.6273,24.000375 24.0003,18.627375 24.0003,12.000375 C24.0003,5.372625 18.6273,0.000375 12.0003,0.000375" id="Fill-233"></path>
                        </g>
                    </g>
                </g>
            </g>
        </g>
    </g>
</svg>