<?xml version="1.0" encoding="UTF-8"?>
<svg width="39px" height="38px" viewBox="0 0 39 38" version="1.1" xmlns="http://www.w3.org/2000/svg" xmlns:xlink="http://www.w3.org/1999/xlink">
    <!-- Generator: Sketch 40.1 (33804) - http://www.bohemiancoding.com/sketch -->
    <title>Fill-178</title>
    <desc>Created with Sketch.</desc>
    <defs></defs>
    <g id="Page-1" stroke="none" stroke-width="1" fill="none" fill-rule="evenodd">
        <g id="whatisthis" transform="translate(0.000000, -68.000000)" fill="#FFFFFF">
            <g id="call" transform="translate(0.000000, 68.000000)">
                <g id="Fill-178">
                    <g id="Page-1">
                        <g id="Desktop">
                            <g id="btns">
                                <path d="M36.9635182,4.228502 L33.4363588,0.725854 C32.4632648,-0.241951 30.8835189,-0.241951 29.9091994,0.725854 L24.6184602,7.73115 C23.8108167,8.916192 23.6453662,10.265993 24.6184602,11.233798 L26.7778956,13.378102 C25.1773152,15.513863 23.2556384,17.842453 21.0925264,19.990418 C18.6463102,22.419084 15.9255688,24.62685 13.4793526,26.440417 L11.3922252,24.369339 C10.4191312,23.401534 9.0599861,23.565072 7.8650658,24.369339 L0.810747,29.623311 C-0.3719176,30.4349 -0.1635726,32.158154 0.810747,33.125959 L4.3379064,36.627386 C6.2865456,38.562996 8.8197765,37.943015 11.3922252,36.627386 C11.3922252,36.627386 19.1782029,32.28752 25.8440195,25.667881 C32.1139804,19.441222 36.9635182,11.233798 36.9635182,11.233798 C37.9746045,8.471954 38.9121573,6.162891 36.9635182,4.228502" id="Fill-178"></path>
                            </g>
                        </g>
                    </g>
                </g>
            </g>
        </g>
    </g>
</svg>