<?xml version="1.0" encoding="UTF-8"?>
<svg width="38px" height="42px" viewBox="0 0 38 42" version="1.1" xmlns="http://www.w3.org/2000/svg" xmlns:xlink="http://www.w3.org/1999/xlink">
    <!-- Generator: Sketch 40.1 (33804) - http://www.bohemiancoding.com/sketch -->
    <title>Group</title>
    <desc>Created with Sketch.</desc>
    <defs></defs>
    <g id="Page-1" stroke="none" stroke-width="1" fill="none" fill-rule="evenodd">
        <g id="whatisthis" transform="translate(-20.000000, 0.000000)" fill="#FFFFFF">
            <g id="meet" transform="translate(20.000000, 0.000000)">
                <g id="Insta-Conference">
                    <g id="Page-1">
                        <g id="Desktop">
                            <g id="btns">
                                <g id="Insta-Conference">
                                    <g id="Group">
                                        <path d="M5.37718551,8.74971717 C5.80637815,9.10424242 6.41947316,9.0150101 6.74704928,8.55060606 C9.6297975,4.46133333 14.0020505,2.11626263 18.742892,2.11626263 C23.4837335,2.11626263 27.8559865,4.46147475 30.7387347,8.55060606 C30.9311269,8.82339394 31.2220009,8.96664646 31.5164015,8.96664646 C31.7230304,8.96664646 31.9316186,8.89593939 32.1085985,8.74971717 C32.5375299,8.39505051 32.6198158,7.73111111 32.2925009,7.26656566 C29.0367234,2.64854545 24.0981346,0 18.742892,0 C13.3876494,0 8.44906061,2.64854545 5.19341374,7.26656566 C4.86596823,7.73111111 4.9482541,8.39505051 5.37718551,8.74971717 L5.37718551,8.74971717 L5.37718551,8.74971717 Z" id="Shape"></path>
                                        <path d="M29.1314174,14.3939798 C29.1314174,16.216101 30.5007588,17.6986869 32.1837007,17.6986869 C33.8666426,17.6986869 35.2359839,16.216101 35.2359839,14.3939798 C35.2359839,12.5718586 33.8666426,11.0892727 32.1837007,11.0892727 C30.5007588,11.0892727 29.1314174,12.5717172 29.1314174,14.3939798 L29.1314174,14.3939798 L29.1314174,14.3939798 Z" id="Shape"></path>
                                        <path d="M35.3074289,18.7953535 C35.3003759,18.7928081 34.5313295,18.5372727 34.5313295,18.5372727 C34.2528637,18.4452121 33.9503652,18.5019192 33.7172219,18.6908485 L32.1837007,19.9340202 L30.6501795,18.6908485 C30.4169056,18.5017778 30.1142764,18.4450707 29.8360718,18.5372727 C29.8360718,18.5372727 29.0670255,18.7928081 29.0599724,18.7953535 C27.8225497,19.2420808 26.9912012,20.4909091 26.9912012,21.9030707 L26.9912012,26.8990909 C26.9912012,27.0918384 27.043185,27.2803434 27.1411444,27.4412727 L28.6886411,29.9911111 L28.6886411,36.6873535 C28.6886411,37.2327879 29.0969357,37.6748485 29.6007081,37.6748485 L34.7668238,37.6748485 C35.2705962,37.6748485 35.6788908,37.2327879 35.6788908,36.6873535 L35.6788908,29.9911111 L37.2263876,27.4412727 C37.3242164,27.280202 37.3763307,27.091697 37.3763307,26.8990909 L37.3763307,21.9030707 C37.3763307,20.4909091 36.5448516,19.2420808 35.3074289,18.7953535 L35.3074289,18.7953535 L35.3074289,18.7953535 Z" id="Shape"></path>
                                        <path d="M5.30208333,17.6986869 C6.98502524,17.6986869 8.35436656,16.216101 8.35436656,14.3939798 C8.35436656,12.5718586 6.98502524,11.0892727 5.30208333,11.0892727 C3.61914142,11.0892727 2.24966949,12.5717172 2.24966949,14.3939798 C2.24966949,16.2162424 3.61901081,17.6986869 5.30208333,17.6986869 L5.30208333,17.6986869 L5.30208333,17.6986869 Z" id="Shape"></path>
                                        <path d="M8.42581159,18.7953535 C8.41875851,18.7928081 7.64971219,18.5372727 7.64971219,18.5372727 C7.37111575,18.4452121 7.06887845,18.5019192 6.83560455,18.6908485 L5.30208333,19.9340202 L3.76856211,18.6908485 C3.53541882,18.5017778 3.23265907,18.4450707 2.95445447,18.5372727 C2.95445447,18.5372727 2.18540815,18.7928081 2.17835507,18.7953535 C0.940932362,19.2420808 0.109583877,20.4909091 0.109583877,21.9030707 L0.109583877,26.8990909 C0.109583877,27.0918384 0.161567647,27.2803434 0.259527013,27.4412727 L1.80702377,29.9911111 L1.80702377,36.6873535 C1.80702377,37.2327879 2.21531841,37.6748485 2.71909077,37.6748485 L7.88507589,37.6748485 C8.38884826,37.6748485 8.79714289,37.2327879 8.79714289,36.6873535 L8.79714289,29.9911111 L10.3446396,27.4412727 C10.4424684,27.280202 10.4945828,27.091697 10.4945828,26.8990909 L10.4945828,21.9030707 C10.4945828,20.4909091 9.66310369,19.2420808 8.42581159,18.7953535 L8.42581159,18.7953535 L8.42581159,18.7953535 Z" id="Shape"></path>
                                        <path d="M22.6798136,9.73650505 C22.6798136,7.38620202 20.9136715,5.474 18.742892,5.474 C16.5721125,5.474 14.8059704,7.38620202 14.8059704,9.73650505 C14.8059704,12.0869495 16.5721125,13.9990101 18.742892,13.9990101 C20.9136715,13.9990101 22.6798136,12.0869495 22.6798136,9.73650505 L22.6798136,9.73650505 L22.6798136,9.73650505 Z" id="Shape"></path>
                                        <path d="M23.0670796,16.0647879 L23.060549,16.0625253 L21.9368898,15.6891919 C21.7596486,15.6302222 21.5702605,15.7317576 21.5065216,15.9211111 L19.1437417,22.940202 C19.0073823,23.3450707 18.4785323,23.3450707 18.3421729,22.940202 L15.979393,15.9211111 C15.9279317,15.7682424 15.7947069,15.6723636 15.6518169,15.6723636 C15.6179882,15.6723636 14.4266717,16.0619596 14.4266717,16.0619596 C12.9912405,16.5798182 12.0322836,18.0205455 12.0322836,19.6496364 L12.0322836,27.0747273 C12.0322836,27.148404 12.0522673,27.2205253 12.0896225,27.2821818 L14.5550638,31.3441616 L14.5550638,41.6221414 C14.5550638,41.8308687 14.7112763,42 14.9040604,42 L22.5818542,42 C22.7746383,42 22.9308508,41.8308687 22.9308508,41.6221414 L22.9308508,31.3441616 L25.3962921,27.2821818 C25.4336473,27.2205253 25.453631,27.148404 25.453631,27.0747273 L25.453631,19.6301212 C25.4535004,18.008101 24.4907558,16.5697778 23.0670796,16.0647879 L23.0670796,16.0647879 L23.0670796,16.0647879 Z" id="Shape"></path>
                                        <path d="M19.6660611,15.9170101 C19.5684935,15.801899 19.4257341,15.7439192 19.2812767,15.7439192 L18.2043767,15.7439192 C18.0600499,15.7439192 17.9172905,15.801899 17.8195923,15.9170101 C17.6684737,16.0953333 17.6465308,16.3528485 17.7537636,16.5540808 L18.3293729,17.4936364 L18.0599193,19.9549495 L18.5905978,21.4833535 C18.6423204,21.6370707 18.8430718,21.6370707 18.8949249,21.4833535 L19.4256035,19.9549495 L19.1561499,17.4936364 L19.7317591,16.5540808 C19.8391226,16.3528485 19.8171797,16.0953333 19.6660611,15.9170101 L19.6660611,15.9170101 L19.6660611,15.9170101 Z" id="Shape"></path>
                                    </g>
                                </g>
                            </g>
                        </g>
                    </g>
                </g>
            </g>
        </g>
    </g>
</svg>