<?xml version="1.0" encoding="UTF-8"?>
<svg width="40px" height="30px" viewBox="0 0 40 30" version="1.1" xmlns="http://www.w3.org/2000/svg" xmlns:xlink="http://www.w3.org/1999/xlink">
    <!-- Generator: Sketch 40.1 (33804) - http://www.bohemiancoding.com/sketch -->
    <title>Read-Message</title>
    <desc>Created with Sketch.</desc>
    <defs></defs>
    <g id="Page-1" stroke="none" stroke-width="1" fill="none" fill-rule="evenodd">
        <g id="whatisthis" transform="translate(-117.000000, 0.000000)" fill="#FFFFFF">
            <g id="message" transform="translate(117.000000, 0.000000)">
                <g id="Read-Message">
                    <g id="Page-1">
                        <g id="Desktop">
                            <g id="btns">
                                <path d="M37.5,25 C37.5,25.25375 37.45125,25.49375 37.38125,25.7225 L26.25,13.75 L37.5,5 L37.5,25 L37.5,25 L37.5,25 Z M4.445,27.4325 L15.725,15.4125 L20,18.64375 L24.09,15.3925 L35.555,27.4325 C35.37625,27.47375 4.62375,27.47375 4.445,27.4325 L4.445,27.4325 L4.445,27.4325 Z M2.5,25 L2.5,5 L13.75,13.75 L2.61875,25.7225 C2.54875,25.49375 2.5,25.25375 2.5,25 L2.5,25 L2.5,25 Z M36.25,2.5 L20,15 L3.75,2.5 L36.25,2.5 L36.25,2.5 L36.25,2.5 Z M35,0 L5,0 C2.23875,0 0,2.23875 0,5 L0,25 C0,27.76125 2.23875,30 5,30 L35,30 C37.76125,30 40,27.76125 40,25 L40,5 C40,2.23875 37.76125,0 35,0 L35,0 L35,0 Z" id="Read-Message"></path>
                            </g>
                        </g>
                    </g>
                </g>
            </g>
        </g>
    </g>
</svg>