<?xml version="1.0" encoding="UTF-8"?>
<svg width="38px" height="38px" viewBox="0 0 38 38" version="1.1" xmlns="http://www.w3.org/2000/svg" xmlns:xlink="http://www.w3.org/1999/xlink">
    <!-- Generator: Sketch 40.1 (33804) - http://www.bohemiancoding.com/sketch -->
    <title>Add-Reminer</title>
    <desc>Created with Sketch.</desc>
    <defs></defs>
    <g id="Page-1" stroke="none" stroke-width="1" fill="none" fill-rule="evenodd">
        <g id="whatisthis" transform="translate(-39.000000, -150.000000)" fill="#FFFFFF">
            <g id="schedule" transform="translate(39.000000, 150.000000)">
                <g id="Add-Reminer">
                    <g id="Page-1">
                        <g id="Desktop">
                            <path d="M30.875,20.1875 L33.25,20.1875 L33.25,17.8125 L30.875,17.8125 L30.875,20.1875 L30.875,20.1875 Z M19,35.625 C9.81825,35.625 2.375,28.18175 2.375,19 C2.375,9.819437 9.81825,2.375 19,2.375 C28.18175,2.375 35.625,9.819437 35.625,19 C35.625,28.18175 28.18175,35.625 19,35.625 L19,35.625 L19,35.625 Z M19,0 C8.506062,0 0,8.50725 0,19 C0,29.493938 8.506062,38 19,38 C29.493938,38 38,29.493938 38,19 C38,8.50725 29.493938,0 19,0 L19,0 L19,0 Z M26.21525,9.824188 L27.85875,11.47125 L29.50225,9.824188 L27.85875,8.178312 L26.21525,9.824188 L26.21525,9.824188 L26.21525,9.824188 Z M25.867313,27.048875 L27.546438,28.728 L29.225563,27.048875 L27.546438,25.36975 L25.867313,27.048875 L25.867313,27.048875 L25.867313,27.048875 Z M19,4.75 C18.3445,4.75 17.8125,5.280813 17.8125,5.9375 L17.8125,17.839813 L8.3125,17.839813 C7.655813,17.839813 7.125,18.373 7.125,19.0285 C7.125,19.684 7.655813,20.214813 8.3125,20.214813 L19,20.214813 C19.656687,20.214813 20.1875,19.684 20.1875,19.0285 L20.1875,5.9375 C20.1875,5.280813 19.656687,4.75 19,4.75 L19,4.75 L19,4.75 Z M11.50925,9.883562 L9.830125,8.204437 L8.151,9.883562 L9.830125,11.562687 L11.50925,9.883562 L11.50925,9.883562 L11.50925,9.883562 Z M7.995437,27.113 L9.638937,28.760062 L11.282437,27.113 L9.638937,25.465937 L7.995437,27.113 L7.995437,27.113 L7.995437,27.113 Z M17.8125,33.25 L20.1875,33.25 L20.1875,30.875 L17.8125,30.875 L17.8125,33.25 L17.8125,33.25 Z" id="Add-Reminer"></path>
                        </g>
                    </g>
                </g>
            </g>
        </g>
    </g>
</svg>