<?xml version="1.0" encoding="UTF-8"?>
<svg width="47px" height="46px" viewBox="0 0 47 46" version="1.1" xmlns="http://www.w3.org/2000/svg" xmlns:xlink="http://www.w3.org/1999/xlink">
    <!-- Generator: Sketch 40.1 (33804) - http://www.bohemiancoding.com/sketch -->
    <title>Shape</title>
    <desc>Created with Sketch.</desc>
    <defs></defs>
    <g id="Page-1" stroke="none" stroke-width="1" fill="none" fill-rule="evenodd">
        <g id="whatisthis" fill="#FFFFFF">
            <path d="M45.999,8.427 C45.984,3.8 42.229,0.056 37.602,0.056 L8.397,0.056 C6.165,0.056 4.025,0.945 2.45,2.525 C0.874,4.106 -0.008,6.25 -6.77626358e-21,8.481 L0.071,30.765 C0.086,35.393 3.841,39.055 8.469,39.055 L16.763,39.055 L20.685,44.76 C21.214,45.52 22.081,46.013 23.006,46.015 C23.931,46.017 24.799,45.507 25.332,44.75 L29.301,39.055 L37.674,39.055 C39.905,39.055 42.045,38.248 43.621,36.668 C45.197,35.086 46.079,32.984 46.071,30.752 L45.999,8.427 L45.999,8.427 Z M22.404,32.811 C20.657,32.811 19.47,31.525 19.47,29.811 C19.47,28.063 20.69,26.81 22.404,26.81 C24.185,26.81 25.34,28.063 25.372,29.811 C25.372,31.524 24.185,32.811 22.404,32.811 L22.404,32.811 Z M26.653,18.735 C25.322,20.21 25.035,21.614 25.035,23.234 C25.035,24.437 24.059,25.414 22.856,25.414 L21.959,25.414 C20.768,25.414 19.798,24.457 19.78,23.268 L19.777,23.035 C19.669,21.199 20.281,19.285 21.9,17.342 C23.052,15.973 23.988,14.799 23.988,13.575 C23.988,12.315 23.16,11.476 21.361,11.404 C20.812,11.404 20.209,11.496 19.626,11.658 C18.558,11.956 17.445,11.351 17.115,10.291 C16.782,9.223 17.366,8.086 18.428,7.734 C19.591,7.348 21.013,7.076 22.584,7.076 C27.335,7.076 29.605,9.703 29.605,12.691 C29.604,15.423 28.022,17.223 26.653,18.735 L26.653,18.735 Z" id="Shape"></path>
        </g>
    </g>
</svg>