<?xml version="1.0" encoding="UTF-8"?>
<svg width="85px" height="21px" viewBox="0 0 85 21" version="1.1" xmlns="http://www.w3.org/2000/svg" xmlns:xlink="http://www.w3.org/1999/xlink">
    <!-- Generator: Sketch 40.1 (33804) - http://www.bohemiancoding.com/sketch -->
    <title>logo</title>
    <desc>Created with Sketch.</desc>
    <defs></defs>
    <g id="Page-1" stroke="none" stroke-width="1" fill="none" fill-rule="evenodd">
        <g id="logo" fill="#FFFFFF">
            <g id="Page-1">
                <g id="Desktop">
                    <g id="Top-Bar">
                        <g id="logo">
                            <path d="M47.8529981,7.81391031 C47.8529981,8.38297125 47.7344438,8.93622486 47.4973354,9.47367114 C47.2760337,9.99531059 46.9756959,10.5169495 46.596322,11.038588 C46.216949,11.5444196 45.7901536,12.0502517 45.3159356,12.5560843 C44.8417187,13.0461081 44.3675012,13.528229 43.8932833,14.0024469 C43.6245601,14.2711701 43.3084155,14.5873147 42.9448494,14.9508808 C42.5970901,15.3144479 42.2651381,15.6938219 41.9489935,16.0890027 C41.6328478,16.4841835 41.3641242,16.8635574 41.1428225,17.2271246 C40.9373287,17.5906907 40.8345818,17.9068358 40.8345818,18.17556 L48.3983488,18.17556 L48.3983488,20.0487175 L38.4397838,20.0487175 C38.423977,19.9538745 38.4160736,19.859031 38.4160736,19.764187 L38.4160736,19.5033683 C38.4160736,18.7604272 38.5346278,18.0728121 38.7717363,17.4405228 C39.0246526,16.7924257 39.3487012,16.1838467 39.7438819,15.6147857 C40.1390627,15.0457248 40.5816655,14.5082785 41.0716903,14.0024469 C41.5617151,13.4966153 42.043836,13.0065905 42.5180529,12.5323726 C42.9132347,12.1529986 43.2847053,11.7815286 43.6324645,11.4179624 C43.9960307,11.0385885 44.3121753,10.6671179 44.5808984,10.3035508 C44.8654294,9.92417785 45.0867311,9.53690047 45.2448034,9.14171867 C45.4186825,8.74653788 45.5056221,8.32764584 45.5056221,7.88504255 C45.5056221,7.4108256 45.4265859,7.0077409 45.2685136,6.67578842 C45.1262491,6.34383697 44.9286587,6.06721043 44.6757424,5.84590878 C44.4228261,5.62460713 44.1224883,5.46653482 43.774729,5.37169184 C43.4427776,5.26104101 43.0871149,5.2057156 42.7077409,5.2057156 C42.2493308,5.2057156 41.8304387,5.26894442 41.4510648,5.39540207 C41.0716908,5.52185972 40.7318349,5.67202862 40.4314971,5.84590878 C40.1311593,6.00398109 39.8782435,6.17786074 39.6727497,6.36754772 C39.4672559,6.54142686 39.3091836,6.67578842 39.1985328,6.77063243 L38.1078329,5.2057156 C38.2500974,5.04764329 38.4634951,4.85795631 38.7480261,4.63665466 C39.032556,4.39954619 39.3724119,4.17824454 39.7675937,3.97274971 C40.1627745,3.76725591 40.6053773,3.59337626 41.0954021,3.45111077 C41.5854258,3.30884528 42.1149682,3.23771253 42.6840291,3.23771253 C44.4070188,3.23771253 45.6953096,3.64079724 46.5489015,4.44696665 C47.4182992,5.23732924 47.8529981,6.3596438 47.8529981,7.81391031 L47.8529981,7.81391031 L47.8529981,7.81391031 Z" id="path4298"></path>
                            <path d="M6.65360521,20.3739134 C5.57145982,20.3739134 4.61814131,20.2021444 3.79364967,19.8586064 C2.98633551,19.5150684 2.29925949,19.0341147 1.73242162,18.4157455 C1.18276121,17.7973773 0.770515395,17.0673591 0.49568417,16.2256911 C0.220853967,15.3668455 0.0834388655,14.4221158 0.0834388655,13.3915017 C0.0834388655,12.3608877 0.229442698,11.4161579 0.521450364,10.5573124 C0.83063447,9.69846685 1.26005673,8.95985997 1.80971713,8.34149176 C2.35937856,7.70594608 3.02927814,7.21640424 3.81941587,6.87286623 C4.62673004,6.51215178 5.51992896,6.33179456 6.49901265,6.33179456 C7.10020442,6.33179456 7.70139619,6.3833249 8.30258796,6.48638559 C8.90377974,6.5894473 9.47920583,6.75262808 10.0288662,6.97592794 L9.48779456,9.01139134 C9.12707909,8.83962182 8.70624454,8.70220621 8.22529092,8.5991445 C7.76151476,8.49608381 7.26338469,8.44455347 6.73090073,8.44455347 C5.39110259,8.44455347 4.36048857,8.8653875 3.63905864,9.70705558 C2.93480516,10.5487236 2.58267842,11.7768724 2.58267842,13.3915017 C2.58267842,14.1129316 2.65997445,14.7742425 2.8145665,15.3754343 C2.98633602,15.976626 3.24398978,16.4919331 3.58752779,16.9213553 C3.94824224,17.3507776 4.40343018,17.6857274 4.95309161,17.9262047 C5.50275201,18.1495035 6.17265108,18.2611529 6.96278881,18.2611529 C7.59833448,18.2611529 8.17376108,18.2010339 8.68906861,18.0807957 C9.20437511,17.9605576 9.6080322,17.8317312 9.90003986,17.6943166 L10.2349897,19.7040138 C10.097574,19.789898 9.90003935,19.8757823 9.64238559,19.9616665 C9.38473285,20.0303743 9.09272569,20.0904939 8.76636412,20.1420253 C8.44000256,20.2107321 8.08787581,20.2622624 7.7099839,20.2966163 C7.34926945,20.3481477 6.99714322,20.3739134 6.65360521,20.3739134 L6.65360521,20.3739134 L6.65360521,20.3739134 Z" id="path4288"></path>
                            <path d="M17.3422016,18.33845 C17.9090395,18.33845 18.4071701,18.3298612 18.8365933,18.3126838 C19.283192,18.2783299 19.6524952,18.2267995 19.9445029,18.1580928 L19.9445029,14.1644615 C19.7727344,14.0785772 19.4893154,14.0098699 19.0942461,13.9583396 C18.7163542,13.8896318 18.252578,13.8552779 17.7029176,13.8552779 C17.3422021,13.8552779 16.9557215,13.8810431 16.5434757,13.9325734 C16.1484073,13.9841048 15.7791041,14.0957547 15.4355661,14.2675232 C15.1092045,14.4221152 14.8343738,14.6454151 14.611074,14.9374228 C14.3877741,15.212253 14.2761242,15.5815562 14.2761242,16.0453323 C14.2761242,16.9041778 14.5509549,17.5053696 15.1006163,17.8489076 C15.6502767,18.1752692 16.3974718,18.33845 17.3422016,18.33845 L17.3422016,18.33845 L17.3422016,18.33845 Z M17.1360797,6.33179456 C18.0979859,6.33179456 18.9053001,6.46062093 19.5580222,6.71827367 C20.2279218,6.95875099 20.7604058,7.31087773 21.1554741,7.77465389 C21.5677199,8.22125361 21.8597276,8.7623258 22.0314971,9.39787045 C22.2032656,10.0162397 22.2891499,10.7033162 22.2891499,11.4591 L22.2891499,19.8328402 C22.0830275,19.8671941 21.7910203,19.9187249 21.4131284,19.9874327 C21.0524129,20.0389631 20.6401671,20.0904939 20.176391,20.1420253 C19.7126148,20.1935556 19.205896,20.2364978 18.6562346,20.2708517 C18.1237506,20.322382 17.5912666,20.3481472 17.0587827,20.3481472 C16.3029989,20.3481472 15.6073346,20.2708512 14.97179,20.1162591 C14.3362443,19.961667 13.7865834,19.7211902 13.3228072,19.3948287 C12.85903,19.0512907 12.4983151,18.6046915 12.2406623,18.055031 C11.9830086,17.5053696 11.8541817,16.8440588 11.8541817,16.0710985 C11.8541817,15.3324911 12.000185,14.6969454 12.2921916,14.1644615 C12.6013768,13.6319775 13.0136226,13.2025553 13.5289291,12.8761947 C14.0442366,12.5498331 14.6454284,12.3093563 15.3325044,12.1547643 C16.0195804,12.0001722 16.7410103,11.9228762 17.4967942,11.9228762 C17.7372705,11.9228762 17.9863355,11.9400531 18.2439893,11.9744071 C18.501643,11.9915835 18.7421198,12.0259374 18.9654197,12.0774688 C19.205896,12.1118227 19.4120189,12.1461761 19.5837884,12.1805289 C19.7555569,12.2148828 19.8757951,12.2406485 19.9445029,12.257826 L19.9445029,11.5879264 C19.9445029,11.1928581 19.9015608,10.8063779 19.8156765,10.428486 C19.7297923,10.0334166 19.5752002,9.68987811 19.3519003,9.39787045 C19.1286005,9.08868634 18.8194159,8.84821004 18.4243465,8.67644155 C18.0464546,8.48749559 17.5483245,8.39302261 16.9299563,8.39302261 C16.1398186,8.39302261 15.4441538,8.45314169 14.8429621,8.57337984 C14.2589477,8.67644155 13.8209368,8.78809148 13.5289291,8.90832963 L13.2455102,6.92439709 C13.5546943,6.78698147 14.0700013,6.65815459 14.7914312,6.53791644 C15.5128611,6.40050185 16.2944106,6.33179456 17.1360797,6.33179456 L17.1360797,6.33179456 L17.1360797,6.33179456 Z" id="path4290"></path>
                            <path d="M51.3965749,7.04264929 C51.9462353,6.9052347 52.6676653,6.75923138 53.5608647,6.60463933 C54.4712406,6.45004625 55.5190316,6.37274971 56.7042376,6.37274971 C57.5630832,6.37274971 58.2845131,6.49298837 58.8685274,6.7334657 C59.4525427,6.95676556 59.9420846,7.29171483 60.3371529,7.73831353 C60.4573911,7.65242928 60.646337,7.53219113 60.9039908,7.37759908 C61.1616446,7.22300703 61.4794174,7.07700319 61.8573093,6.93958758 C62.2352012,6.78499553 62.6560353,6.65616916 63.1198114,6.55310847 C63.5835876,6.4328693 64.0817176,6.37274971 64.6142016,6.37274971 C65.6448167,6.37274971 66.4864852,6.52734228 67.1392074,6.83652741 C67.7919295,7.12853405 68.2986483,7.54936808 68.6593637,8.09902951 C69.0372557,8.64868992 69.2863207,9.30141204 69.4065588,10.0571959 C69.5439734,10.8129797 69.6126807,11.6374713 69.6126807,12.5306708 L69.6126807,20.0541541 L67.2165029,20.0541541 L67.2165029,13.0459778 C67.2165029,12.25584 67.1735608,11.5773522 67.0876765,11.0105144 C67.0189687,10.4436765 66.8729649,9.97131161 66.649665,9.5934197 C66.4435426,9.21552779 66.1515355,8.94069759 65.7736435,8.76892909 C65.4129281,8.57998314 64.9405632,8.48551016 64.3565489,8.48551016 C63.5492347,8.48551016 62.8793356,8.59716009 62.3468517,8.82045995 C61.8315441,9.02658234 61.4794174,9.2155283 61.2904714,9.38729782 C61.4278871,9.83389651 61.5309483,10.3234378 61.599655,10.8559218 C61.6683628,11.3884058 61.7027167,11.9466554 61.7027167,12.5306708 L61.7027167,20.0541541 L59.3065389,20.0541541 L59.3065389,13.0459778 C59.3065389,12.25584 59.2635968,11.5773522 59.1777125,11.0105144 C59.0918273,10.4436765 58.9372352,9.97131161 58.7139364,9.5934197 C58.507813,9.21552779 58.2158053,8.94069759 57.8379134,8.76892909 C57.4771989,8.57998314 57.0134228,8.48551016 56.4465849,8.48551016 C56.2061076,8.48551016 55.9484538,8.49409838 55.6736236,8.51127482 C55.3987934,8.52845228 55.1325514,8.55421745 54.8748977,8.58857033 C54.6344214,8.6057478 54.4111215,8.63151348 54.2049981,8.66586738 C53.9988757,8.70022129 53.8614606,8.72598646 53.7927528,8.7431629 L53.7927528,20.0541541 L51.3965749,20.0541541 L51.3965749,7.04264929 L51.3965749,7.04264929 L51.3965749,7.04264929 Z" id="path4301"></path>
                            <path d="M72.8418045,13.3809276 C72.8418045,12.1957215 73.0135756,11.1651069 73.3571177,10.2890839 C73.7006465,9.39588552 74.1558298,8.65727865 74.7226677,8.07326332 C75.2895056,7.48924901 75.9422307,7.05123802 76.6808432,6.75923036 C77.4194455,6.46722371 78.1752293,6.32122039 78.9481947,6.32122039 C80.751767,6.32122039 82.1345088,6.88805775 83.0964201,8.02173246 C84.0583212,9.13823176 84.5392718,10.8473341 84.5392718,13.1490395 L84.5392718,13.5612848 C84.5392718,13.7158768 84.5306861,13.8618807 84.5135148,13.9992963 L75.3410502,13.9992963 C75.4441089,15.3906248 75.8477629,16.447004 76.5520123,17.1684339 C77.2562719,17.8898648 78.3555947,18.2505803 79.8499808,18.2505803 C80.691652,18.2505803 81.3959065,18.1818725 81.9627443,18.0444569 C82.5467535,17.8898648 82.9847656,17.743861 83.2767804,17.6064454 L83.6117286,19.6161441 C83.3197138,19.7707362 82.8044053,19.9339164 82.065803,20.1056849 C81.344372,20.2774545 80.5198825,20.3633392 79.5923342,20.3633392 C78.4242954,20.3633392 77.4108547,20.1915702 76.5520123,19.8480322 C75.7103411,19.4873167 75.0146774,18.9977749 74.4650211,18.3794067 C73.9153648,17.7610374 73.50312,17.0310188 73.2282867,16.1893507 C72.9706319,15.3305062 72.8418045,14.3943651 72.8418045,13.3809276 L72.8418045,13.3809276 L72.8418045,13.3809276 Z M82.0400307,12.0668946 C82.0572122,10.9847492 81.7823841,10.1001385 81.2155462,9.41306248 C80.6658796,8.70880899 79.901505,8.35668225 78.9224224,8.35668225 C78.3727661,8.35668225 77.8832247,8.46833218 77.4537984,8.69163204 C77.0415536,8.89775546 76.6894289,9.17258618 76.3974243,9.51612419 C76.1054197,9.85966219 75.8735301,10.2547311 75.7017555,10.7013308 C75.5471624,11.1479295 75.4441037,11.6031174 75.3925795,12.0668946 L82.0400307,12.0668946 L82.0400307,12.0668946 L82.0400307,12.0668946 Z" id="path4303"></path>
                            <path d="M29.0971054,20.3287834 C27.6198917,20.2944295 26.5721007,19.9766567 25.9537325,19.3754649 C25.3353632,18.7742732 25.0261786,17.8381316 25.0261786,16.5670402 L25.0261786,0.48945803 L27.422358,0.0772127252 L27.422358,16.1805611 C27.422358,16.5756295 27.4567114,16.9019905 27.5254182,17.1596443 C27.594126,17.4172981 27.7057759,17.623421 27.860368,17.778013 C28.01496,17.9326051 28.2210829,18.0528432 28.4787367,18.1387275 C28.7363904,18.2074353 29.0541633,18.2675544 29.4320552,18.3190847 L29.0971054,20.3287834 L29.0971054,20.3287834 L29.0971054,20.3287834 Z" id="path4293"></path>
                            <path d="M36.1423197,20.3287834 C34.6651059,20.2944295 33.6173149,19.9766567 32.9989467,19.3754649 C32.3805785,18.7742732 32.0713944,17.8381316 32.0713944,16.5670402 L32.0713944,0.48945803 L34.4675722,0.0772127252 L34.4675722,16.1805611 C34.4675722,16.5756295 34.5019262,16.9019905 34.570634,17.1596443 C34.6393407,17.4172981 34.7509902,17.623421 34.9055822,17.778013 C35.0601753,17.9326051 35.2662982,18.0528432 35.5239509,18.1387275 C35.7816047,18.2074353 36.0993775,18.2675544 36.4772695,18.3190847 L36.1423197,20.3287834 L36.1423197,20.3287834 L36.1423197,20.3287834 Z" id="path4295"></path>
                        </g>
                    </g>
                </g>
            </g>
        </g>
    </g>
</svg>